Workaround Round Bold Italic.ufo
<glyph name="Exclamation_Mark" format="1">
  <advance width="318"/>
  <unicode hex="0021"/>
  <outline>
    <contour>
      <point x="1" y="91" type="curve" smooth="yes"/>
      <point x="-6" y="38"/>
      <point x="35" y="-6"/>
      <point x="93" y="-6" type="curve" smooth="yes"/>
      <point x="151" y="-6"/>
      <point x="204" y="38"/>
      <point x="211" y="91" type="curve" smooth="yes"/>
      <point x="218" y="145"/>
      <point x="176" y="188"/>
      <point x="118" y="188" type="curve" smooth="yes"/>
      <point x="60" y="188"/>
      <point x="8" y="145"/>
    </contour>
    <contour>
      <point x="317" y="909" type="line" smooth="yes"/>
      <point x="324" y="962"/>
      <point x="283" y="1006"/>
      <point x="225" y="1006" type="curve" smooth="yes"/>
      <point x="167" y="1006"/>
      <point x="114" y="962"/>
      <point x="107" y="909" type="curve" smooth="yes"/>
      <point x="44" y="426" type="line" smooth="yes"/>
      <point x="37" y="372"/>
      <point x="79" y="328"/>
      <point x="137" y="328" type="curve" smooth="yes"/>
      <point x="195" y="328"/>
      <point x="247" y="372"/>
      <point x="254" y="426" type="curve" smooth="yes"/>
    </contour>
  </outline>
</glyph>
<glyph name="exclam" format="1">
  <advance width="468"/>
  <unicode hex="0021"/>
  <outline>
    <contour>
      <point x="229" y="118" type="line" smooth="yes"/>
      <point x="236" y="171"/>
      <point x="191" y="215"/>
      <point x="129" y="215" type="curve" smooth="yes"/>
      <point x="67" y="215"/>
      <point x="11" y="171"/>
      <point x="4" y="118" type="curve" smooth="yes"/>
      <point x="1" y="91" type="line" smooth="yes"/>
      <point x="-6" y="38"/>
      <point x="38" y="-6"/>
      <point x="100" y="-6" type="curve" smooth="yes"/>
      <point x="163" y="-6"/>
      <point x="218" y="38"/>
      <point x="225" y="91" type="curve" smooth="yes"/>
    </contour>
    <contour>
      <point x="332" y="909" type="line" smooth="yes"/>
      <point x="339" y="962"/>
      <point x="294" y="1006"/>
      <point x="232" y="1006" type="curve" smooth="yes"/>
      <point x="170" y="1006"/>
      <point x="114" y="962"/>
      <point x="107" y="909" type="curve" smooth="yes"/>
      <point x="59" y="429" type="line" smooth="yes"/>
      <point x="53" y="382"/>
      <point x="92" y="345"/>
      <point x="146" y="345" type="curve" smooth="yes"/>
      <point x="200" y="345"/>
      <point x="249" y="382"/>
      <point x="255" y="429" type="curve" smooth="yes"/>
    </contour>
  </outline>
</glyph>
<glyph name="quotedbl" format="1">
  <advance width="672"/>
  <unicode hex="0022"/>
  <outline>
    <contour>
      <point x="208" y="902" type="line" smooth="yes"/>
      <point x="219" y="938"/>
      <point x="205" y="972"/>
      <point x="172" y="991" type="curve" smooth="yes"/>
      <point x="139" y="1011"/>
      <point x="97" y="1011"/>
      <point x="59" y="991" type="curve" smooth="yes"/>
      <point x="21" y="972"/>
      <point x="-1" y="938"/>
      <point x="0" y="902" type="curve" smooth="yes"/>
      <point x="8" y="706" type="line" smooth="yes"/>
      <point x="9" y="676"/>
      <point x="36" y="654"/>
      <point x="72" y="654" type="curve" smooth="yes"/>
      <point x="107" y="654"/>
      <point x="140" y="676"/>
      <point x="149" y="706" type="curve" smooth="yes"/>
    </contour>
    <contour>
      <point x="533" y="902" type="line" smooth="yes"/>
      <point x="544" y="938"/>
      <point x="531" y="972"/>
      <point x="498" y="991" type="curve" smooth="yes"/>
      <point x="465" y="1011"/>
      <point x="422" y="1011"/>
      <point x="384" y="991" type="curve" smooth="yes"/>
      <point x="346" y="972"/>
      <point x="324" y="938"/>
      <point x="326" y="902" type="curve" smooth="yes"/>
      <point x="333" y="706" type="line" smooth="yes"/>
      <point x="335" y="676"/>
      <point x="361" y="654"/>
      <point x="397" y="654" type="curve" smooth="yes"/>
      <point x="433" y="654"/>
      <point x="465" y="676"/>
      <point x="475" y="706" type="curve" smooth="yes"/>
    </contour>
  </outline>
</glyph>
<glyph name="numbersign" format="1">
  <advance width="1128"/>
  <unicode hex="0023"/>
  <outline>
    <contour>
      <point x="604" y="603" type="line"/>
      <point x="536" y="397" type="line"/>
      <point x="389" y="397" type="line"/>
      <point x="457" y="603" type="line"/>
    </contour>
    <contour>
      <point x="814" y="603" type="line"/>
      <point x="857" y="603" type="line" smooth="yes"/>
      <point x="911" y="603"/>
      <point x="969" y="646"/>
      <point x="987" y="700" type="curve" smooth="yes"/>
      <point x="1005" y="754"/>
      <point x="975" y="797"/>
      <point x="921" y="797" type="curve" smooth="yes"/>
      <point x="878" y="797" type="line"/>
      <point x="917" y="915" type="line" smooth="yes"/>
      <point x="933" y="965"/>
      <point x="900" y="1006"/>
      <point x="842" y="1006" type="curve" smooth="yes"/>
      <point x="784" y="1006"/>
      <point x="723" y="965"/>
      <point x="707" y="915" type="curve" smooth="yes"/>
      <point x="668" y="797" type="line"/>
      <point x="521" y="797" type="line"/>
      <point x="560" y="915" type="line" smooth="yes"/>
      <point x="576" y="965"/>
      <point x="543" y="1006"/>
      <point x="485" y="1006" type="curve" smooth="yes"/>
      <point x="427" y="1006"/>
      <point x="366" y="965"/>
      <point x="350" y="915" type="curve" smooth="yes"/>
      <point x="311" y="797" type="line"/>
      <point x="267" y="797" type="line" smooth="yes"/>
      <point x="213" y="797"/>
      <point x="155" y="754"/>
      <point x="137" y="700" type="curve" smooth="yes"/>
      <point x="119" y="646"/>
      <point x="149" y="603"/>
      <point x="203" y="603" type="curve" smooth="yes"/>
      <point x="247" y="603" type="line"/>
      <point x="179" y="397" type="line"/>
      <point x="135" y="397" type="line" smooth="yes"/>
      <point x="81" y="397"/>
      <point x="23" y="354"/>
      <point x="5" y="300" type="curve" smooth="yes"/>
      <point x="-13" y="246"/>
      <point x="17" y="203"/>
      <point x="71" y="203" type="curve" smooth="yes"/>
      <point x="115" y="203" type="line"/>
      <point x="76" y="85" type="line" smooth="yes"/>
      <point x="59" y="35"/>
      <point x="93" y="-6"/>
      <point x="151" y="-6" type="curve" smooth="yes"/>
      <point x="209" y="-6"/>
      <point x="269" y="35"/>
      <point x="286" y="85" type="curve" smooth="yes"/>
      <point x="325" y="203" type="line"/>
      <point x="472" y="203" type="line"/>
      <point x="433" y="85" type="line" smooth="yes"/>
      <point x="416" y="35"/>
      <point x="450" y="-6"/>
      <point x="508" y="-6" type="curve" smooth="yes"/>
      <point x="566" y="-6"/>
      <point x="626" y="35"/>
      <point x="643" y="85" type="curve" smooth="yes"/>
      <point x="682" y="203" type="line"/>
      <point x="725" y="203" type="line" smooth="yes"/>
      <point x="779" y="203"/>
      <point x="837" y="246"/>
      <point x="855" y="300" type="curve" smooth="yes"/>
      <point x="873" y="354"/>
      <point x="843" y="397"/>
      <point x="789" y="397" type="curve" smooth="yes"/>
      <point x="746" y="397" type="line"/>
    </contour>
  </outline>
</glyph>
<glyph name="dollar" format="1">
  <advance width="827"/>
  <unicode hex="0024"/>
  <outline>
    <contour>
      <point x="383" y="6" type="line"/>
      <point x="541" y="43"/>
      <point x="670" y="169"/>
      <point x="689" y="318" type="curve" smooth="yes"/>
      <point x="710" y="480"/>
      <point x="604" y="566"/>
      <point x="463" y="621" type="curve"/>
      <point x="486" y="796" type="line"/>
      <point x="491" y="793"/>
      <point x="497" y="791"/>
      <point x="502" y="787" type="curve"/>
      <point x="532" y="750"/>
      <point x="593" y="750"/>
      <point x="638" y="788" type="curve" smooth="yes"/>
      <point x="683" y="825"/>
      <point x="696" y="886"/>
      <point x="667" y="924" type="curve"/>
      <point x="624" y="963"/>
      <point x="573" y="988"/>
      <point x="512" y="999" type="curve"/>
      <point x="520" y="1060" type="line" smooth="yes"/>
      <point x="525" y="1095"/>
      <point x="496" y="1123"/>
      <point x="455" y="1123" type="curve" smooth="yes"/>
      <point x="414" y="1123"/>
      <point x="378" y="1095"/>
      <point x="373" y="1060" type="curve" smooth="yes"/>
      <point x="365" y="999" type="line"/>
      <point x="224" y="972"/>
      <point x="107" y="860"/>
      <point x="90" y="727" type="curve" smooth="yes"/>
      <point x="71" y="587"/>
      <point x="172" y="514"/>
      <point x="296" y="466" type="curve"/>
      <point x="261" y="193" type="line"/>
      <point x="230" y="199"/>
      <point x="204" y="210"/>
      <point x="181" y="226" type="curve"/>
      <point x="150" y="263"/>
      <point x="90" y="263"/>
      <point x="44" y="226" type="curve" smooth="yes"/>
      <point x="-1" y="188"/>
      <point x="-13" y="128"/>
      <point x="16" y="90" type="curve"/>
      <point x="74" y="36"/>
      <point x="147" y="5"/>
      <point x="235" y="-3" type="curve"/>
      <point x="228" y="-60" type="line" smooth="yes"/>
      <point x="223" y="-95"/>
      <point x="252" y="-123"/>
      <point x="293" y="-123" type="curve" smooth="yes"/>
      <point x="334" y="-123"/>
      <point x="370" y="-95"/>
      <point x="375" y="-60" type="curve" smooth="yes"/>
    </contour>
    <contour>
      <point x="338" y="787" type="curve"/>
      <point x="324" y="684" type="line"/>
      <point x="310" y="696"/>
      <point x="301" y="710"/>
      <point x="303" y="727" type="curve" smooth="yes"/>
      <point x="306" y="750"/>
      <point x="319" y="771"/>
    </contour>
    <contour>
      <point x="411" y="220" type="curve"/>
      <point x="435" y="401" type="line"/>
      <point x="461" y="380"/>
      <point x="479" y="353"/>
      <point x="475" y="318" type="curve" smooth="yes"/>
      <point x="470" y="279"/>
      <point x="445" y="244"/>
    </contour>
  </outline>
</glyph>
<glyph name="percent" format="1">
  <advance width="1218"/>
  <unicode hex="0025"/>
  <outline>
    <contour>
      <point x="190" y="757" type="curve" smooth="yes"/>
      <point x="197" y="809"/>
      <point x="246" y="850"/>
      <point x="300" y="850" type="curve" smooth="yes"/>
      <point x="354" y="850"/>
      <point x="392" y="809"/>
      <point x="386" y="757" type="curve" smooth="yes"/>
      <point x="379" y="706"/>
      <point x="330" y="664"/>
      <point x="276" y="664" type="curve" smooth="yes"/>
      <point x="222" y="664"/>
      <point x="183" y="706"/>
    </contour>
    <contour>
      <point x="19" y="757" type="curve" smooth="yes"/>
      <point x="1" y="620"/>
      <point x="107" y="509"/>
      <point x="255" y="509" type="curve" smooth="yes"/>
      <point x="404" y="509"/>
      <point x="539" y="620"/>
      <point x="557" y="757" type="curve" smooth="yes"/>
      <point x="574" y="895"/>
      <point x="469" y="1006"/>
      <point x="320" y="1006" type="curve" smooth="yes"/>
      <point x="172" y="1006"/>
      <point x="37" y="895"/>
    </contour>
    <contour>
      <point x="697" y="243" type="curve" smooth="yes"/>
      <point x="704" y="294"/>
      <point x="753" y="336"/>
      <point x="807" y="336" type="curve" smooth="yes"/>
      <point x="861" y="336"/>
      <point x="900" y="294"/>
      <point x="893" y="243" type="curve" smooth="yes"/>
      <point x="886" y="191"/>
      <point x="837" y="150"/>
      <point x="783" y="150" type="curve" smooth="yes"/>
      <point x="729" y="150"/>
      <point x="691" y="191"/>
    </contour>
    <contour>
      <point x="526" y="243" type="curve" smooth="yes"/>
      <point x="508" y="105"/>
      <point x="614" y="-6"/>
      <point x="763" y="-6" type="curve" smooth="yes"/>
      <point x="911" y="-6"/>
      <point x="1046" y="105"/>
      <point x="1064" y="243" type="curve" smooth="yes"/>
      <point x="1082" y="380"/>
      <point x="976" y="491"/>
      <point x="827" y="491" type="curve" smooth="yes"/>
      <point x="679" y="491"/>
      <point x="544" y="380"/>
    </contour>
    <contour>
      <point x="1058" y="897" type="line" smooth="yes"/>
      <point x="1079" y="917"/>
      <point x="1087" y="944"/>
      <point x="1081" y="971" type="curve" smooth="yes"/>
      <point x="1075" y="998"/>
      <point x="1056" y="1017"/>
      <point x="1029" y="1024" type="curve" smooth="yes"/>
      <point x="1002" y="1031"/>
      <point x="974" y="1024"/>
      <point x="954" y="1003" type="curve" smooth="yes"/>
      <point x="25" y="103" type="line" smooth="yes"/>
      <point x="-6" y="73"/>
      <point x="-8" y="25"/>
      <point x="20" y="-5" type="curve" smooth="yes"/>
      <point x="49" y="-34"/>
      <point x="98" y="-34"/>
      <point x="129" y="-3" type="curve" smooth="yes"/>
    </contour>
  </outline>
</glyph>
<glyph name="ampersand" format="1">
  <advance width="956"/>
  <unicode hex="0026"/>
  <outline>
    <contour>
      <point x="346" y="637" type="curve"/>
      <point x="339" y="650"/>
      <point x="331" y="664"/>
      <point x="324" y="677" type="curve" smooth="yes"/>
      <point x="316" y="693"/>
      <point x="314" y="708"/>
      <point x="316" y="727" type="curve" smooth="yes"/>
      <point x="322" y="774"/>
      <point x="361" y="812"/>
      <point x="403" y="812" type="curve" smooth="yes"/>
      <point x="445" y="812"/>
      <point x="474" y="774"/>
      <point x="468" y="727" type="curve" smooth="yes"/>
      <point x="460" y="668"/>
      <point x="388" y="654"/>
    </contour>
    <contour>
      <point x="560" y="385" type="curve"/>
      <point x="525" y="417"/>
      <point x="491" y="451"/>
      <point x="459" y="486" type="curve"/>
      <point x="557" y="536"/>
      <point x="662" y="605"/>
      <point x="678" y="727" type="curve" smooth="yes"/>
      <point x="698" y="881"/>
      <point x="586" y="1006"/>
      <point x="428" y="1006" type="curve" smooth="yes"/>
      <point x="270" y="1006"/>
      <point x="126" y="881"/>
      <point x="106" y="727" type="curve" smooth="yes"/>
      <point x="98" y="665"/>
      <point x="109" y="613"/>
      <point x="139" y="563" type="curve" smooth="yes"/>
      <point x="145" y="554"/>
      <point x="150" y="546"/>
      <point x="156" y="537" type="curve"/>
      <point x="79" y="486"/>
      <point x="15" y="418"/>
      <point x="3" y="318" type="curve" smooth="yes"/>
      <point x="-21" y="139"/>
      <point x="111" y="-6"/>
      <point x="297" y="-6" type="curve" smooth="yes"/>
      <point x="391" y="-6"/>
      <point x="483" y="31"/>
      <point x="566" y="99" type="curve"/>
      <point x="594" y="74"/>
      <point x="622" y="48"/>
      <point x="650" y="21" type="curve" smooth="yes"/>
      <point x="684" y="-12"/>
      <point x="746" y="-6"/>
      <point x="787" y="36" type="curve" smooth="yes"/>
      <point x="828" y="78"/>
      <point x="833" y="138"/>
      <point x="798" y="172" type="curve" smooth="yes"/>
      <point x="767" y="201"/>
      <point x="736" y="230"/>
      <point x="704" y="257" type="curve"/>
      <point x="731" y="298"/>
      <point x="756" y="344"/>
      <point x="778" y="393" type="curve"/>
      <point x="804" y="440"/>
      <point x="786" y="495"/>
      <point x="737" y="518" type="curve" smooth="yes"/>
      <point x="688" y="540"/>
      <point x="628" y="521"/>
      <point x="601" y="475" type="curve"/>
      <point x="588" y="443"/>
      <point x="575" y="412"/>
    </contour>
    <contour>
      <point x="262" y="396" type="curve"/>
      <point x="314" y="335"/>
      <point x="371" y="279"/>
      <point x="429" y="225" type="curve"/>
      <point x="394" y="201"/>
      <point x="358" y="188"/>
      <point x="322" y="188" type="curve" smooth="yes"/>
      <point x="252" y="188"/>
      <point x="203" y="247"/>
      <point x="213" y="318" type="curve" smooth="yes"/>
      <point x="217" y="353"/>
      <point x="236" y="378"/>
    </contour>
  </outline>
</glyph>
<glyph name="quotesingle" format="1">
  <advance width="347"/>
  <unicode hex="0027"/>
  <outline>
    <contour>
      <point x="208" y="902" type="line" smooth="yes"/>
      <point x="219" y="938"/>
      <point x="205" y="972"/>
      <point x="172" y="991" type="curve" smooth="yes"/>
      <point x="139" y="1011"/>
      <point x="97" y="1011"/>
      <point x="59" y="991" type="curve" smooth="yes"/>
      <point x="21" y="972"/>
      <point x="-1" y="938"/>
      <point x="0" y="902" type="curve" smooth="yes"/>
      <point x="8" y="706" type="line" smooth="yes"/>
      <point x="9" y="676"/>
      <point x="36" y="654"/>
      <point x="72" y="654" type="curve" smooth="yes"/>
      <point x="107" y="654"/>
      <point x="140" y="676"/>
      <point x="149" y="706" type="curve" smooth="yes"/>
    </contour>
  </outline>
</glyph>
<glyph name="parenleft" format="1">
  <advance width="545"/>
  <unicode hex="0028"/>
  <outline>
    <contour>
      <point x="400" y="964" type="curve" smooth="yes"/>
      <point x="423" y="1011"/>
      <point x="402" y="1065"/>
      <point x="352" y="1085" type="curve" smooth="yes"/>
      <point x="302" y="1105"/>
      <point x="242" y="1083"/>
      <point x="218" y="1036" type="curve" smooth="yes"/>
      <point x="1" y="608"/>
      <point x="-54" y="192"/>
      <point x="52" y="-236" type="curve" smooth="yes"/>
      <point x="64" y="-283"/>
      <point x="118" y="-305"/>
      <point x="174" y="-285" type="curve" smooth="yes"/>
      <point x="229" y="-265"/>
      <point x="265" y="-211"/>
      <point x="253" y="-164" type="curve" smooth="yes"/>
      <point x="159" y="215"/>
      <point x="207" y="585"/>
    </contour>
  </outline>
</glyph>
<glyph name="parenright" format="1">
  <advance width="545"/>
  <unicode hex="0029"/>
  <outline>
    <contour>
      <point x="156" y="964" type="curve" smooth="yes"/>
      <point x="250" y="585"/>
      <point x="202" y="215"/>
      <point x="10" y="-164" type="curve" smooth="yes"/>
      <point x="-14" y="-211"/>
      <point x="7" y="-265"/>
      <point x="57" y="-285" type="curve" smooth="yes"/>
      <point x="108" y="-305"/>
      <point x="168" y="-283"/>
      <point x="192" y="-236" type="curve" smooth="yes"/>
      <point x="409" y="192"/>
      <point x="463" y="608"/>
      <point x="357" y="1036" type="curve" smooth="yes"/>
      <point x="345" y="1083"/>
      <point x="291" y="1105"/>
      <point x="236" y="1085" type="curve" smooth="yes"/>
      <point x="180" y="1065"/>
      <point x="145" y="1011"/>
    </contour>
  </outline>
</glyph>
<glyph name="asterisk" format="1">
  <advance width="651"/>
  <unicode hex="002A"/>
  <outline>
    <contour>
      <point x="363" y="976" type="line"/>
      <point x="368" y="1013"/>
      <point x="336" y="1044"/>
      <point x="293" y="1044" type="curve" smooth="yes"/>
      <point x="249" y="1044"/>
      <point x="210" y="1013"/>
      <point x="205" y="976" type="curve"/>
      <point x="215" y="871" type="line"/>
      <point x="143" y="940" type="line"/>
      <point x="112" y="959"/>
      <point x="66" y="946"/>
      <point x="41" y="911" type="curve" smooth="yes"/>
      <point x="16" y="876"/>
      <point x="21" y="832"/>
      <point x="53" y="812" type="curve"/>
      <point x="148" y="776" type="line"/>
      <point x="43" y="740" type="line"/>
      <point x="7" y="720"/>
      <point x="-10" y="676"/>
      <point x="6" y="641" type="curve" smooth="yes"/>
      <point x="22" y="605"/>
      <point x="64" y="593"/>
      <point x="100" y="612" type="curve"/>
      <point x="191" y="681" type="line"/>
      <point x="153" y="576" type="line"/>
      <point x="148" y="538"/>
      <point x="180" y="508"/>
      <point x="223" y="508" type="curve" smooth="yes"/>
      <point x="267" y="508"/>
      <point x="306" y="538"/>
      <point x="311" y="576" type="curve"/>
      <point x="301" y="681" type="line"/>
      <point x="373" y="612" type="line"/>
      <point x="394" y="599"/>
      <point x="420" y="600"/>
      <point x="445" y="613" type="curve" smooth="yes"/>
      <point x="469" y="627"/>
      <point x="486" y="650"/>
      <point x="490" y="677" type="curve" smooth="yes"/>
      <point x="494" y="704"/>
      <point x="484" y="727"/>
      <point x="463" y="740" type="curve"/>
      <point x="368" y="776" type="line"/>
      <point x="473" y="812" type="line"/>
      <point x="509" y="832"/>
      <point x="526" y="876"/>
      <point x="510" y="911" type="curve" smooth="yes"/>
      <point x="494" y="946"/>
      <point x="452" y="959"/>
      <point x="416" y="940" type="curve"/>
      <point x="325" y="871" type="line"/>
    </contour>
  </outline>
</glyph>
<glyph name="plus" format="1">
  <advance width="837"/>
  <unicode hex="002B"/>
  <outline>
    <contour>
      <point x="233" y="413" type="line"/>
      <point x="213" y="258" type="line" smooth="yes"/>
      <point x="207" y="208"/>
      <point x="248" y="167"/>
      <point x="306" y="167" type="curve" smooth="yes"/>
      <point x="364" y="167"/>
      <point x="417" y="208"/>
      <point x="423" y="258" type="curve" smooth="yes"/>
      <point x="443" y="413" type="line"/>
      <point x="590" y="413" type="line" smooth="yes"/>
      <point x="644" y="413"/>
      <point x="694" y="456"/>
      <point x="701" y="510" type="curve" smooth="yes"/>
      <point x="708" y="564"/>
      <point x="670" y="607"/>
      <point x="616" y="607" type="curve" smooth="yes"/>
      <point x="468" y="607" type="line"/>
      <point x="489" y="762" type="line" smooth="yes"/>
      <point x="495" y="812"/>
      <point x="453" y="853"/>
      <point x="395" y="853" type="curve" smooth="yes"/>
      <point x="337" y="853"/>
      <point x="285" y="812"/>
      <point x="279" y="762" type="curve" smooth="yes"/>
      <point x="258" y="607" type="line"/>
      <point x="111" y="607" type="line" smooth="yes"/>
      <point x="57" y="607"/>
      <point x="8" y="564"/>
      <point x="1" y="510" type="curve" smooth="yes"/>
      <point x="-6" y="456"/>
      <point x="32" y="413"/>
      <point x="86" y="413" type="curve" smooth="yes"/>
    </contour>
  </outline>
</glyph>
<glyph name="comma" format="1">
  <advance width="393"/>
  <unicode hex="002C"/>
  <outline>
    <contour>
      <point x="257" y="126" type="curve" smooth="yes"/>
      <point x="264" y="181"/>
      <point x="218" y="226"/>
      <point x="154" y="226" type="curve" smooth="yes"/>
      <point x="91" y="226"/>
      <point x="33" y="181"/>
      <point x="26" y="126" type="curve" smooth="yes"/>
      <point x="22" y="94" type="line" smooth="yes"/>
      <point x="17" y="58"/>
      <point x="35" y="27"/>
      <point x="65" y="9" type="curve" smooth="yes"/>
      <point x="75" y="3"/>
      <point x="80" y="-7"/>
      <point x="79" y="-19" type="curve"/>
      <point x="77" y="-32"/>
      <point x="69" y="-42"/>
      <point x="57" y="-48" type="curve" smooth="yes"/>
      <point x="23" y="-65" type="line" smooth="yes"/>
      <point x="5" y="-74"/>
      <point x="-4" y="-95"/>
      <point x="2" y="-113" type="curve"/>
      <point x="9" y="-130"/>
      <point x="29" y="-137"/>
      <point x="47" y="-129" type="curve" smooth="yes"/>
      <point x="152" y="-78"/>
      <point x="242" y="8"/>
    </contour>
  </outline>
</glyph>
<glyph name="hyphen" format="1">
  <advance width="587"/>
  <unicode hex="002D"/>
  <outline>
    <contour>
      <point x="340" y="413" type="line" smooth="yes"/>
      <point x="394" y="413"/>
      <point x="444" y="456"/>
      <point x="451" y="510" type="curve" smooth="yes"/>
      <point x="458" y="564"/>
      <point x="420" y="607"/>
      <point x="366" y="607" type="curve" smooth="yes"/>
      <point x="111" y="607" type="line" smooth="yes"/>
      <point x="57" y="607"/>
      <point x="8" y="564"/>
      <point x="1" y="510" type="curve" smooth="yes"/>
      <point x="-6" y="456"/>
      <point x="32" y="413"/>
      <point x="86" y="413" type="curve" smooth="yes"/>
    </contour>
  </outline>
</glyph>
<glyph name="slash" format="1">
  <advance width="800"/>
  <unicode hex="002F"/>
  <outline>
    <contour>
      <point x="657" y="976" type="line" smooth="yes"/>
      <point x="679" y="1024"/>
      <point x="654" y="1077"/>
      <point x="603" y="1094" type="curve" smooth="yes"/>
      <point x="551" y="1112"/>
      <point x="492" y="1087"/>
      <point x="470" y="1040" type="curve" smooth="yes"/>
      <point x="8" y="24" type="line" smooth="yes"/>
      <point x="-14" y="-24"/>
      <point x="10" y="-77"/>
      <point x="62" y="-94" type="curve" smooth="yes"/>
      <point x="114" y="-112"/>
      <point x="173" y="-87"/>
      <point x="195" y="-40" type="curve" smooth="yes"/>
    </contour>
  </outline>
</glyph>
<glyph name="1" format="1">
  <advance width="548"/>
  <unicode hex="0031"/>
  <outline>
    <contour>
      <point x="412" y="899" type="line" smooth="yes"/>
      <point x="418" y="944"/>
      <point x="395" y="982"/>
      <point x="352" y="998" type="curve" smooth="yes"/>
      <point x="309" y="1015"/>
      <point x="259" y="1005"/>
      <point x="222" y="972" type="curve" smooth="yes"/>
      <point x="36" y="798" type="line" smooth="yes"/>
      <point x="-6" y="758"/>
      <point x="-12" y="695"/>
      <point x="23" y="657" type="curve"/>
      <point x="23" y="657" type="line"/>
      <point x="58" y="620"/>
      <point x="121" y="622"/>
      <point x="164" y="662" type="curve" smooth="yes"/>
      <point x="172" y="670" type="line"/>
      <point x="97" y="91" type="line" smooth="yes"/>
      <point x="90" y="38"/>
      <point x="132" y="-6"/>
      <point x="190" y="-6" type="curve" smooth="yes"/>
      <point x="248" y="-6"/>
      <point x="300" y="38"/>
      <point x="307" y="91" type="curve" smooth="yes"/>
    </contour>
  </outline>
</glyph>
<glyph name="one" format="1">
  <advance width="576"/>
  <unicode hex="0031"/>
  <outline>
    <contour>
      <point x="440" y="906" type="line" smooth="yes"/>
      <point x="445" y="947"/>
      <point x="423" y="982"/>
      <point x="382" y="998" type="curve" smooth="yes"/>
      <point x="340" y="1014"/>
      <point x="292" y="1006"/>
      <point x="254" y="978" type="curve"/>
      <point x="36" y="792" type="line" smooth="yes"/>
      <point x="-5" y="756"/>
      <point x="-12" y="695"/>
      <point x="21" y="655" type="curve" smooth="yes"/>
      <point x="53" y="616"/>
      <point x="114" y="613"/>
      <point x="155" y="648" type="curve" smooth="yes"/>
      <point x="202" y="688" type="line"/>
      <point x="123" y="85" type="line" smooth="yes"/>
      <point x="117" y="35"/>
      <point x="158" y="-6"/>
      <point x="216" y="-6" type="curve" smooth="yes"/>
      <point x="274" y="-6"/>
      <point x="327" y="35"/>
      <point x="333" y="85" type="curve" smooth="yes"/>
    </contour>
  </outline>
</glyph>
<glyph name="Digit_Two" format="1">
  <advance width="759"/>
  <unicode hex="0032"/>
  <outline>
    <contour>
      <point x="299" y="194" type="line"/>
      <point x="704" y="607" type="line"/>
      <point x="733" y="644"/>
      <point x="751" y="685"/>
      <point x="757" y="729" type="curve"/>
      <point x="757" y="729" type="line"/>
      <point x="776" y="879"/>
      <point x="641" y="1000"/>
      <point x="454" y="1000" type="curve"/>
      <point x="454" y="1000" type="line"/>
      <point x="325" y="1000"/>
      <point x="210" y="961"/>
      <point x="125" y="888" type="curve"/>
      <point x="129" y="890" type="line"/>
      <point x="91" y="846"/>
      <point x="93" y="784"/>
      <point x="134" y="752" type="curve"/>
      <point x="134" y="752" type="line"/>
      <point x="175" y="719"/>
      <point x="238" y="728"/>
      <point x="276" y="772" type="curve"/>
      <point x="280" y="774" type="line"/>
      <point x="317" y="795"/>
      <point x="369" y="806"/>
      <point x="428" y="806" type="curve"/>
      <point x="428" y="806" type="line"/>
      <point x="499" y="806"/>
      <point x="552" y="771"/>
      <point x="547" y="729" type="curve"/>
      <point x="547" y="729" type="line"/>
      <point x="545" y="717"/>
      <point x="539" y="705"/>
      <point x="528" y="695" type="curve"/>
      <point x="39" y="197" type="line" smooth="yes"/>
      <point x="19" y="176"/>
      <point x="5" y="150"/>
      <point x="1" y="121" type="curve"/>
      <point x="1" y="121" type="line"/>
      <point x="-8" y="54"/>
      <point x="44" y="0"/>
      <point x="116" y="0" type="curve" smooth="yes"/>
      <point x="557" y="0" type="line" smooth="yes"/>
      <point x="615" y="0"/>
      <point x="668" y="43"/>
      <point x="675" y="97" type="curve"/>
      <point x="675" y="97" type="line"/>
      <point x="682" y="151"/>
      <point x="640" y="194"/>
      <point x="582" y="194" type="curve" smooth="yes"/>
    </contour>
  </outline>
</glyph>
<glyph name="two" format="1">
  <advance width="896"/>
  <unicode hex="0032"/>
  <outline>
    <contour>
      <point x="312" y="194" type="line"/>
      <point x="709" y="610" type="line"/>
      <point x="735" y="646"/>
      <point x="753" y="686"/>
      <point x="759" y="729" type="curve" smooth="yes"/>
      <point x="778" y="879"/>
      <point x="642" y="1000"/>
      <point x="455" y="1000" type="curve" smooth="yes"/>
      <point x="329" y="1000"/>
      <point x="213" y="959"/>
      <point x="134" y="888" type="curve" smooth="yes"/>
      <point x="95" y="850"/>
      <point x="94" y="790"/>
      <point x="131" y="753" type="curve" smooth="yes"/>
      <point x="168" y="717"/>
      <point x="229" y="719"/>
      <point x="267" y="757" type="curve" smooth="yes"/>
      <point x="297" y="787"/>
      <point x="359" y="806"/>
      <point x="430" y="806" type="curve" smooth="yes"/>
      <point x="501" y="806"/>
      <point x="554" y="771"/>
      <point x="549" y="729" type="curve" smooth="yes"/>
      <point x="547" y="717"/>
      <point x="541" y="706"/>
      <point x="531" y="696" type="curve" smooth="yes"/>
      <point x="34" y="174" type="line" smooth="yes"/>
      <point x="16" y="156"/>
      <point x="4" y="132"/>
      <point x="1" y="107" type="curve" smooth="yes"/>
      <point x="-7" y="48"/>
      <point x="35" y="0"/>
      <point x="95" y="0" type="curve" smooth="yes"/>
      <point x="566" y="0" type="line" smooth="yes"/>
      <point x="620" y="0"/>
      <point x="670" y="43"/>
      <point x="676" y="97" type="curve" smooth="yes"/>
      <point x="683" y="151"/>
      <point x="645" y="194"/>
      <point x="591" y="194" type="curve" smooth="yes"/>
    </contour>
  </outline>
</glyph>
<glyph name="Digit_Three" format="1">
  <advance width="665"/>
  <unicode hex="0033"/>
  <outline>
    <contour>
      <point x="527" y="549" type="curve"/>
      <point x="599" y="585"/>
      <point x="652" y="651"/>
      <point x="662" y="727" type="curve"/>
      <point x="662" y="727" type="line"/>
      <point x="682" y="881"/>
      <point x="561" y="1006"/>
      <point x="392" y="1006" type="curve"/>
      <point x="392" y="1006" type="line"/>
      <point x="307" y="1006"/>
      <point x="231" y="979"/>
      <point x="164" y="924" type="curve"/>
      <point x="165" y="923" type="line"/>
      <point x="123" y="883"/>
      <point x="117" y="820"/>
      <point x="152" y="783" type="curve"/>
      <point x="152" y="783" type="line"/>
      <point x="188" y="745"/>
      <point x="251" y="748"/>
      <point x="294" y="788" type="curve"/>
      <point x="295" y="787" type="line"/>
      <point x="316" y="803"/>
      <point x="340" y="812"/>
      <point x="366" y="812" type="curve"/>
      <point x="366" y="812" type="line"/>
      <point x="416" y="812"/>
      <point x="451" y="774"/>
      <point x="445" y="727" type="curve"/>
      <point x="445" y="727" type="line"/>
      <point x="439" y="680"/>
      <point x="394" y="643"/>
      <point x="344" y="643" type="curve"/>
      <point x="344" y="643" type="line"/>
      <point x="295" y="643"/>
      <point x="249" y="599"/>
      <point x="242" y="545" type="curve"/>
      <point x="242" y="545" type="line"/>
      <point x="235" y="492"/>
      <point x="270" y="448"/>
      <point x="319" y="448" type="curve"/>
      <point x="319" y="448" type="line"/>
      <point x="396" y="448"/>
      <point x="451" y="390"/>
      <point x="442" y="318" type="curve"/>
      <point x="442" y="318" type="line"/>
      <point x="433" y="247"/>
      <point x="362" y="188"/>
      <point x="285" y="188" type="curve"/>
      <point x="285" y="188" type="line"/>
      <point x="244" y="188"/>
      <point x="210" y="201"/>
      <point x="183" y="226" type="curve"/>
      <point x="182" y="225" type="line"/>
      <point x="150" y="266"/>
      <point x="88" y="268"/>
      <point x="42" y="231" type="curve"/>
      <point x="42" y="231" type="line"/>
      <point x="-3" y="193"/>
      <point x="-14" y="130"/>
      <point x="18" y="90" type="curve"/>
      <point x="17" y="89" type="line"/>
      <point x="79" y="26"/>
      <point x="160" y="-6"/>
      <point x="260" y="-6" type="curve"/>
      <point x="260" y="-6" type="line"/>
      <point x="459" y="-6"/>
      <point x="640" y="139"/>
      <point x="663" y="318" type="curve"/>
      <point x="663" y="318" type="line"/>
      <point x="677" y="421"/>
      <point x="620" y="509"/>
    </contour>
  </outline>
</glyph>
<glyph name="three" format="1">
  <advance width="798"/>
  <unicode hex="0033"/>
  <outline>
    <contour>
      <point x="525" y="549" type="curve"/>
      <point x="597" y="585"/>
      <point x="650" y="651"/>
      <point x="660" y="727" type="curve" smooth="yes"/>
      <point x="680" y="881"/>
      <point x="559" y="1006"/>
      <point x="389" y="1006" type="curve" smooth="yes"/>
      <point x="305" y="1006"/>
      <point x="229" y="979"/>
      <point x="162" y="924" type="curve"/>
      <point x="123" y="886"/>
      <point x="120" y="825"/>
      <point x="156" y="788" type="curve" smooth="yes"/>
      <point x="191" y="750"/>
      <point x="252" y="750"/>
      <point x="292" y="787" type="curve"/>
      <point x="314" y="803"/>
      <point x="338" y="812"/>
      <point x="364" y="812" type="curve" smooth="yes"/>
      <point x="416" y="812"/>
      <point x="453" y="774"/>
      <point x="447" y="727" type="curve" smooth="yes"/>
      <point x="442" y="684"/>
      <point x="401" y="648"/>
      <point x="354" y="643" type="curve" smooth="yes"/>
      <point x="264" y="634" type="line" smooth="yes"/>
      <point x="225" y="630"/>
      <point x="190" y="592"/>
      <point x="184" y="545" type="curve" smooth="yes"/>
      <point x="178" y="499"/>
      <point x="203" y="461"/>
      <point x="241" y="457" type="curve" smooth="yes"/>
      <point x="334" y="447" type="line" smooth="yes"/>
      <point x="406" y="440"/>
      <point x="455" y="385"/>
      <point x="447" y="318" type="curve" smooth="yes"/>
      <point x="437" y="247"/>
      <point x="364" y="188"/>
      <point x="283" y="188" type="curve" smooth="yes"/>
      <point x="242" y="188"/>
      <point x="208" y="201"/>
      <point x="181" y="226" type="curve"/>
      <point x="150" y="263"/>
      <point x="90" y="263"/>
      <point x="44" y="226" type="curve" smooth="yes"/>
      <point x="-1" y="188"/>
      <point x="-13" y="128"/>
      <point x="16" y="90" type="curve"/>
      <point x="77" y="26"/>
      <point x="158" y="-6"/>
      <point x="258" y="-6" type="curve" smooth="yes"/>
      <point x="457" y="-6"/>
      <point x="638" y="139"/>
      <point x="661" y="318" type="curve" smooth="yes"/>
      <point x="674" y="421"/>
      <point x="618" y="509"/>
    </contour>
  </outline>
</glyph>
<glyph name="4" format="1">
  <advance width="857"/>
  <unicode hex="0034"/>
  <outline>
    <contour>
      <point x="437" y="608" type="line"/>
      <point x="412" y="417" type="line"/>
      <point x="286" y="417" type="line"/>
    </contour>
    <contour>
      <point x="597" y="223" type="line"/>
      <point x="603" y="223" type="line" smooth="yes"/>
      <point x="661" y="223"/>
      <point x="714" y="266"/>
      <point x="721" y="320" type="curve"/>
      <point x="721" y="320" type="line"/>
      <point x="728" y="374"/>
      <point x="687" y="417"/>
      <point x="629" y="417" type="curve" smooth="yes"/>
      <point x="622" y="417" type="line"/>
      <point x="684" y="894" type="line" smooth="yes"/>
      <point x="692" y="956"/>
      <point x="644" y="1006"/>
      <point x="578" y="1006" type="curve"/>
      <point x="578" y="1006" type="line"/>
      <point x="534" y="1006"/>
      <point x="493" y="984"/>
      <point x="468" y="952" type="curve" smooth="yes"/>
      <point x="26" y="393" type="line" smooth="yes"/>
      <point x="13" y="376"/>
      <point x="4" y="356"/>
      <point x="1" y="335" type="curve"/>
      <point x="1" y="335" type="line"/>
      <point x="-7" y="273"/>
      <point x="40" y="223"/>
      <point x="107" y="223" type="curve" smooth="yes"/>
      <point x="387" y="223" type="line"/>
      <point x="370" y="91" type="line" smooth="yes"/>
      <point x="363" y="38"/>
      <point x="404" y="-6"/>
      <point x="462" y="-6" type="curve" smooth="yes"/>
      <point x="520" y="-6"/>
      <point x="573" y="38"/>
      <point x="580" y="91" type="curve" smooth="yes"/>
    </contour>
  </outline>
</glyph>
<glyph name="four" format="1">
  <advance width="857"/>
  <unicode hex="0034"/>
  <outline>
    <contour>
      <point x="437" y="610" type="line"/>
      <point x="412" y="417" type="line"/>
      <point x="285" y="417" type="line"/>
    </contour>
    <contour>
      <point x="597" y="223" type="line"/>
      <point x="610" y="223" type="line" smooth="yes"/>
      <point x="665" y="223"/>
      <point x="714" y="266"/>
      <point x="721" y="320" type="curve" smooth="yes"/>
      <point x="728" y="374"/>
      <point x="690" y="417"/>
      <point x="636" y="417" type="curve" smooth="yes"/>
      <point x="622" y="417" type="line"/>
      <point x="685" y="902" type="line" smooth="yes"/>
      <point x="693" y="959"/>
      <point x="645" y="1006"/>
      <point x="578" y="1006" type="curve" smooth="yes"/>
      <point x="533" y="1006"/>
      <point x="491" y="985"/>
      <point x="466" y="953" type="curve" smooth="yes"/>
      <point x="27" y="395" type="line" smooth="yes"/>
      <point x="13" y="378"/>
      <point x="4" y="357"/>
      <point x="1" y="335" type="curve" smooth="yes"/>
      <point x="-7" y="273"/>
      <point x="37" y="223"/>
      <point x="99" y="223" type="curve" smooth="yes"/>
      <point x="387" y="223" type="line"/>
      <point x="369" y="85" type="line" smooth="yes"/>
      <point x="362" y="35"/>
      <point x="404" y="-6"/>
      <point x="462" y="-6" type="curve" smooth="yes"/>
      <point x="520" y="-6"/>
      <point x="572" y="35"/>
      <point x="579" y="85" type="curve" smooth="yes"/>
    </contour>
  </outline>
</glyph>
<glyph name="5" format="1">
  <advance width="875"/>
  <unicode hex="0035"/>
  <outline>
    <contour>
      <point x="362" y="806" type="line"/>
      <point x="622" y="806" type="line" smooth="yes"/>
      <point x="680" y="806"/>
      <point x="732" y="849"/>
      <point x="739" y="903" type="curve"/>
      <point x="739" y="903" type="line"/>
      <point x="746" y="957"/>
      <point x="705" y="1000"/>
      <point x="647" y="1000" type="curve" smooth="yes"/>
      <point x="301" y="1000" type="line" smooth="yes"/>
      <point x="249" y="1000"/>
      <point x="201" y="965"/>
      <point x="187" y="919" type="curve" smooth="yes"/>
      <point x="59" y="506" type="line" smooth="yes"/>
      <point x="50" y="476"/>
      <point x="54" y="444"/>
      <point x="74" y="420" type="curve"/>
      <point x="74" y="420" type="line"/>
      <point x="107" y="380"/>
      <point x="169" y="379"/>
      <point x="214" y="417" type="curve"/>
      <point x="215" y="416" type="line"/>
      <point x="247" y="438"/>
      <point x="281" y="448"/>
      <point x="319" y="448" type="curve"/>
      <point x="319" y="448" type="line"/>
      <point x="396" y="448"/>
      <point x="451" y="390"/>
      <point x="442" y="318" type="curve"/>
      <point x="442" y="318" type="line"/>
      <point x="433" y="247"/>
      <point x="362" y="188"/>
      <point x="285" y="188" type="curve"/>
      <point x="285" y="188" type="line"/>
      <point x="244" y="188"/>
      <point x="210" y="201"/>
      <point x="183" y="226" type="curve"/>
      <point x="182" y="225" type="line"/>
      <point x="150" y="266"/>
      <point x="88" y="268"/>
      <point x="42" y="231" type="curve"/>
      <point x="42" y="231" type="line"/>
      <point x="-3" y="193"/>
      <point x="-14" y="130"/>
      <point x="18" y="90" type="curve"/>
      <point x="17" y="89" type="line"/>
      <point x="79" y="26"/>
      <point x="160" y="-6"/>
      <point x="260" y="-6" type="curve"/>
      <point x="260" y="-6" type="line"/>
      <point x="459" y="-6"/>
      <point x="640" y="139"/>
      <point x="663" y="318" type="curve"/>
      <point x="663" y="318" type="line"/>
      <point x="686" y="497"/>
      <point x="544" y="643"/>
      <point x="344" y="643" type="curve"/>
      <point x="344" y="643" type="line"/>
      <point x="333" y="643"/>
      <point x="322" y="642"/>
      <point x="312" y="641" type="curve"/>
    </contour>
  </outline>
</glyph>
<glyph name="five" format="1">
  <advance width="873"/>
  <unicode hex="0035"/>
  <outline>
    <contour>
      <point x="361" y="806" type="line"/>
      <point x="627" y="806" type="line" smooth="yes"/>
      <point x="681" y="806"/>
      <point x="730" y="849"/>
      <point x="737" y="903" type="curve" smooth="yes"/>
      <point x="744" y="957"/>
      <point x="706" y="1000"/>
      <point x="652" y="1000" type="curve" smooth="yes"/>
      <point x="292" y="1000" type="line" smooth="yes"/>
      <point x="243" y="1000"/>
      <point x="199" y="965"/>
      <point x="185" y="919" type="curve" smooth="yes"/>
      <point x="61" y="511" type="line" smooth="yes"/>
      <point x="52" y="482"/>
      <point x="57" y="449"/>
      <point x="77" y="425" type="curve" smooth="yes"/>
      <point x="110" y="385"/>
      <point x="170" y="382"/>
      <point x="213" y="416" type="curve"/>
      <point x="245" y="438"/>
      <point x="279" y="448"/>
      <point x="317" y="448" type="curve" smooth="yes"/>
      <point x="394" y="448"/>
      <point x="449" y="390"/>
      <point x="440" y="318" type="curve" smooth="yes"/>
      <point x="430" y="247"/>
      <point x="360" y="188"/>
      <point x="283" y="188" type="curve" smooth="yes"/>
      <point x="242" y="188"/>
      <point x="208" y="201"/>
      <point x="181" y="226" type="curve"/>
      <point x="150" y="263"/>
      <point x="90" y="263"/>
      <point x="44" y="226" type="curve" smooth="yes"/>
      <point x="-1" y="188"/>
      <point x="-13" y="128"/>
      <point x="16" y="90" type="curve"/>
      <point x="77" y="26"/>
      <point x="158" y="-6"/>
      <point x="258" y="-6" type="curve" smooth="yes"/>
      <point x="457" y="-6"/>
      <point x="638" y="139"/>
      <point x="661" y="318" type="curve" smooth="yes"/>
      <point x="684" y="497"/>
      <point x="542" y="643"/>
      <point x="342" y="643" type="curve" smooth="yes"/>
      <point x="332" y="643"/>
      <point x="321" y="642"/>
      <point x="311" y="642" type="curve"/>
    </contour>
  </outline>
</glyph>
<glyph name="6" format="1">
  <advance width="790"/>
  <unicode hex="0036"/>
  <outline>
    <contour>
      <point x="221" y="319" type="curve"/>
      <point x="231" y="391"/>
      <point x="286" y="450"/>
      <point x="345" y="450" type="curve"/>
      <point x="345" y="450" type="line"/>
      <point x="403" y="450"/>
      <point x="443" y="391"/>
      <point x="434" y="319" type="curve"/>
      <point x="434" y="319" type="line"/>
      <point x="424" y="247"/>
      <point x="369" y="188"/>
      <point x="311" y="188" type="curve"/>
      <point x="311" y="188" type="line"/>
      <point x="252" y="188"/>
      <point x="212" y="247"/>
    </contour>
    <contour>
      <point x="385" y="968" type="curve" smooth="yes"/>
      <point x="209" y="774"/>
      <point x="37" y="582"/>
      <point x="3" y="319" type="curve" smooth="yes"/>
      <point x="-21" y="140"/>
      <point x="106" y="-6"/>
      <point x="285" y="-6" type="curve"/>
      <point x="285" y="-6" type="line"/>
      <point x="465" y="-6"/>
      <point x="629" y="140"/>
      <point x="652" y="319" type="curve"/>
      <point x="652" y="319" type="line"/>
      <point x="674" y="484"/>
      <point x="558" y="618"/>
      <point x="392" y="618" type="curve"/>
      <point x="392" y="618" type="line"/>
      <point x="372" y="618"/>
      <point x="352" y="616"/>
      <point x="333" y="612" type="curve"/>
      <point x="333" y="612" type="line"/>
      <point x="389" y="694"/>
      <point x="458" y="769"/>
      <point x="527" y="845" type="curve" smooth="yes"/>
      <point x="566" y="888"/>
      <point x="566" y="951"/>
      <point x="527" y="985" type="curve"/>
      <point x="527" y="985" type="line"/>
      <point x="487" y="1018"/>
      <point x="424" y="1011"/>
    </contour>
  </outline>
</glyph>
<glyph name="six" format="1">
  <advance width="790"/>
  <unicode hex="0036"/>
  <outline>
    <contour>
      <point x="216" y="319" type="curve" smooth="yes"/>
      <point x="226" y="391"/>
      <point x="283" y="450"/>
      <point x="345" y="450" type="curve" smooth="yes"/>
      <point x="406" y="450"/>
      <point x="448" y="391"/>
      <point x="439" y="319" type="curve" smooth="yes"/>
      <point x="430" y="247"/>
      <point x="372" y="188"/>
      <point x="311" y="188" type="curve" smooth="yes"/>
      <point x="249" y="188"/>
      <point x="207" y="247"/>
    </contour>
    <contour>
      <point x="385" y="972" type="curve" smooth="yes"/>
      <point x="209" y="777"/>
      <point x="37" y="583"/>
      <point x="3" y="319" type="curve" smooth="yes"/>
      <point x="-21" y="140"/>
      <point x="106" y="-6"/>
      <point x="285" y="-6" type="curve" smooth="yes"/>
      <point x="465" y="-6"/>
      <point x="629" y="140"/>
      <point x="652" y="319" type="curve" smooth="yes"/>
      <point x="674" y="485"/>
      <point x="557" y="620"/>
      <point x="391" y="620" type="curve" smooth="yes"/>
      <point x="371" y="620"/>
      <point x="352" y="618"/>
      <point x="332" y="614" type="curve"/>
      <point x="389" y="697"/>
      <point x="458" y="773"/>
      <point x="528" y="849" type="curve" smooth="yes"/>
      <point x="564" y="890"/>
      <point x="562" y="950"/>
      <point x="522" y="983" type="curve" smooth="yes"/>
      <point x="483" y="1017"/>
      <point x="422" y="1012"/>
    </contour>
  </outline>
</glyph>
<glyph name="Digit_Seven" format="1">
  <advance width="746"/>
  <unicode hex="0037"/>
  <outline>
    <contour>
      <point x="456" y="812" type="line"/>
      <point x="375" y="703" type="line" smooth="yes"/>
      <point x="232" y="510"/>
      <point x="132" y="322"/>
      <point x="102" y="91" type="curve" smooth="yes"/>
      <point x="95" y="38"/>
      <point x="137" y="-6"/>
      <point x="195" y="-6" type="curve" smooth="yes"/>
      <point x="253" y="-6"/>
      <point x="305" y="38"/>
      <point x="312" y="91" type="curve" smooth="yes"/>
      <point x="337" y="281"/>
      <point x="415" y="438"/>
      <point x="534" y="598" type="curve" smooth="yes"/>
      <point x="724" y="854" type="line" smooth="yes"/>
      <point x="748" y="886"/>
      <point x="753" y="923"/>
      <point x="736" y="955" type="curve"/>
      <point x="736" y="955" type="line"/>
      <point x="720" y="988"/>
      <point x="688" y="1006"/>
      <point x="648" y="1006" type="curve" smooth="yes"/>
      <point x="118" y="1006" type="line" smooth="yes"/>
      <point x="60" y="1006"/>
      <point x="8" y="962"/>
      <point x="1" y="909" type="curve"/>
      <point x="1" y="909" type="line"/>
      <point x="-6" y="855"/>
      <point x="35" y="812"/>
      <point x="93" y="812" type="curve" smooth="yes"/>
    </contour>
  </outline>
</glyph>
<glyph name="seven" format="1">
  <advance width="836"/>
  <unicode hex="0037"/>
  <outline>
    <contour>
      <point x="430" y="812" type="line"/>
      <point x="315" y="628" type="line" smooth="yes"/>
      <point x="204" y="451"/>
      <point x="119" y="287"/>
      <point x="93" y="85" type="curve" smooth="yes"/>
      <point x="86" y="35"/>
      <point x="128" y="-6"/>
      <point x="186" y="-6" type="curve" smooth="yes"/>
      <point x="244" y="-6"/>
      <point x="296" y="35"/>
      <point x="303" y="85" type="curve" smooth="yes"/>
      <point x="325" y="253"/>
      <point x="393" y="390"/>
      <point x="486" y="538" type="curve" smooth="yes"/>
      <point x="682" y="852" type="line" smooth="yes"/>
      <point x="703" y="886"/>
      <point x="706" y="923"/>
      <point x="690" y="955" type="curve" smooth="yes"/>
      <point x="674" y="988"/>
      <point x="644" y="1006"/>
      <point x="605" y="1006" type="curve" smooth="yes"/>
      <point x="111" y="1006" type="line" smooth="yes"/>
      <point x="57" y="1006"/>
      <point x="8" y="962"/>
      <point x="1" y="909" type="curve" smooth="yes"/>
      <point x="-6" y="855"/>
      <point x="32" y="812"/>
      <point x="86" y="812" type="curve" smooth="yes"/>
    </contour>
  </outline>
</glyph>
<glyph name="Digit_Eight" format="1">
  <advance width="862"/>
  <unicode hex="0038"/>
  <outline>
    <contour>
      <point x="347" y="188" type="curve"/>
      <point x="269" y="188"/>
      <point x="214" y="247"/>
      <point x="224" y="318" type="curve"/>
      <point x="224" y="318" type="line"/>
      <point x="233" y="390"/>
      <point x="303" y="448"/>
      <point x="380" y="448" type="curve"/>
      <point x="380" y="448" type="line"/>
      <point x="457" y="448"/>
      <point x="512" y="390"/>
      <point x="503" y="318" type="curve"/>
      <point x="503" y="318" type="line"/>
      <point x="494" y="247"/>
      <point x="424" y="188"/>
    </contour>
    <contour>
      <point x="406" y="643" type="curve"/>
      <point x="356" y="643"/>
      <point x="321" y="680"/>
      <point x="327" y="727" type="curve"/>
      <point x="327" y="727" type="line"/>
      <point x="333" y="774"/>
      <point x="378" y="812"/>
      <point x="428" y="812" type="curve"/>
      <point x="428" y="812" type="line"/>
      <point x="477" y="812"/>
      <point x="512" y="774"/>
      <point x="506" y="727" type="curve"/>
      <point x="506" y="727" type="line"/>
      <point x="500" y="680"/>
      <point x="455" y="643"/>
    </contour>
    <contour>
      <point x="453" y="1006" type="curve"/>
      <point x="283" y="1006"/>
      <point x="130" y="881"/>
      <point x="110" y="727" type="curve"/>
      <point x="110" y="727" type="line"/>
      <point x="101" y="657"/>
      <point x="128" y="594"/>
      <point x="178" y="553" type="curve"/>
      <point x="178" y="553" type="line"/>
      <point x="85" y="504"/>
      <point x="15" y="417"/>
      <point x="2" y="318" type="curve"/>
      <point x="2" y="318" type="line"/>
      <point x="-21" y="139"/>
      <point x="122" y="-6"/>
      <point x="321" y="-6" type="curve"/>
      <point x="321" y="-6" type="line"/>
      <point x="521" y="-6"/>
      <point x="701" y="139"/>
      <point x="724" y="318" type="curve"/>
      <point x="724" y="318" type="line"/>
      <point x="737" y="417"/>
      <point x="691" y="504"/>
      <point x="610" y="553" type="curve"/>
      <point x="610" y="553" type="line"/>
      <point x="671" y="594"/>
      <point x="714" y="657"/>
      <point x="723" y="727" type="curve"/>
      <point x="723" y="727" type="line"/>
      <point x="743" y="881"/>
      <point x="622" y="1006"/>
    </contour>
  </outline>
</glyph>
<glyph name="eight" format="1">
  <advance width="815"/>
  <unicode hex="0038"/>
  <outline>
    <contour>
      <point x="322" y="188" type="curve" smooth="yes"/>
      <point x="257" y="188"/>
      <point x="213" y="247"/>
      <point x="222" y="318" type="curve" smooth="yes"/>
      <point x="231" y="390"/>
      <point x="291" y="448"/>
      <point x="356" y="448" type="curve" smooth="yes"/>
      <point x="420" y="448"/>
      <point x="465" y="390"/>
      <point x="455" y="318" type="curve" smooth="yes"/>
      <point x="446" y="247"/>
      <point x="386" y="188"/>
    </contour>
    <contour>
      <point x="381" y="643" type="curve" smooth="yes"/>
      <point x="342" y="643"/>
      <point x="316" y="680"/>
      <point x="322" y="727" type="curve" smooth="yes"/>
      <point x="328" y="774"/>
      <point x="364" y="812"/>
      <point x="403" y="812" type="curve" smooth="yes"/>
      <point x="442" y="812"/>
      <point x="468" y="774"/>
      <point x="462" y="727" type="curve" smooth="yes"/>
      <point x="456" y="680"/>
      <point x="420" y="643"/>
    </contour>
    <contour>
      <point x="428" y="1006" type="curve" smooth="yes"/>
      <point x="270" y="1006"/>
      <point x="126" y="881"/>
      <point x="106" y="727" type="curve" smooth="yes"/>
      <point x="97" y="655"/>
      <point x="124" y="592"/>
      <point x="173" y="552" type="curve"/>
      <point x="83" y="505"/>
      <point x="16" y="418"/>
      <point x="3" y="318" type="curve" smooth="yes"/>
      <point x="-21" y="139"/>
      <point x="111" y="-6"/>
      <point x="297" y="-6" type="curve" smooth="yes"/>
      <point x="482" y="-6"/>
      <point x="652" y="139"/>
      <point x="675" y="318" type="curve" smooth="yes"/>
      <point x="688" y="418"/>
      <point x="643" y="505"/>
      <point x="565" y="552" type="curve"/>
      <point x="625" y="592"/>
      <point x="668" y="655"/>
      <point x="678" y="727" type="curve" smooth="yes"/>
      <point x="698" y="881"/>
      <point x="586" y="1006"/>
    </contour>
  </outline>
</glyph>
<glyph name="9" format="1">
  <advance width="790"/>
  <unicode hex="0039"/>
  <outline>
    <contour>
      <point x="434" y="681" type="curve"/>
      <point x="434" y="681" type="line"/>
      <point x="424" y="609"/>
      <point x="369" y="550"/>
      <point x="310" y="550" type="curve"/>
      <point x="310" y="550" type="line"/>
      <point x="252" y="550"/>
      <point x="212" y="609"/>
      <point x="221" y="681" type="curve"/>
      <point x="221" y="681" type="line"/>
      <point x="230" y="753"/>
      <point x="286" y="812"/>
      <point x="344" y="812" type="curve"/>
      <point x="344" y="812" type="line"/>
      <point x="403" y="812"/>
      <point x="443" y="753"/>
    </contour>
    <contour>
      <point x="270" y="32" type="curve" smooth="yes"/>
      <point x="446" y="226"/>
      <point x="618" y="418"/>
      <point x="652" y="681" type="curve" smooth="yes"/>
      <point x="676" y="860"/>
      <point x="549" y="1006"/>
      <point x="370" y="1006" type="curve"/>
      <point x="370" y="1006" type="line"/>
      <point x="190" y="1006"/>
      <point x="26" y="860"/>
      <point x="2" y="681" type="curve"/>
      <point x="2" y="681" type="line"/>
      <point x="-19" y="516"/>
      <point x="97" y="382"/>
      <point x="263" y="382" type="curve"/>
      <point x="263" y="382" type="line"/>
      <point x="283" y="382"/>
      <point x="303" y="384"/>
      <point x="322" y="388" type="curve"/>
      <point x="322" y="388" type="line"/>
      <point x="266" y="306"/>
      <point x="197" y="231"/>
      <point x="128" y="155" type="curve" smooth="yes"/>
      <point x="89" y="112"/>
      <point x="89" y="49"/>
      <point x="128" y="15" type="curve"/>
      <point x="128" y="15" type="line"/>
      <point x="168" y="-18"/>
      <point x="231" y="-11"/>
    </contour>
  </outline>
</glyph>
<glyph name="Digit_Nine" format="1">
  <advance width="655"/>
  <unicode hex="0039"/>
  <outline>
    <contour>
      <point x="434" y="681" type="curve"/>
      <point x="434" y="681" type="line"/>
      <point x="424" y="609"/>
      <point x="369" y="550"/>
      <point x="310" y="550" type="curve"/>
      <point x="310" y="550" type="line"/>
      <point x="252" y="550"/>
      <point x="212" y="609"/>
      <point x="221" y="681" type="curve"/>
      <point x="221" y="681" type="line"/>
      <point x="230" y="753"/>
      <point x="286" y="812"/>
      <point x="344" y="812" type="curve"/>
      <point x="344" y="812" type="line"/>
      <point x="403" y="812"/>
      <point x="443" y="753"/>
    </contour>
    <contour>
      <point x="270" y="32" type="curve" smooth="yes"/>
      <point x="446" y="226"/>
      <point x="618" y="418"/>
      <point x="652" y="681" type="curve" smooth="yes"/>
      <point x="676" y="860"/>
      <point x="549" y="1006"/>
      <point x="370" y="1006" type="curve"/>
      <point x="370" y="1006" type="line"/>
      <point x="190" y="1006"/>
      <point x="26" y="860"/>
      <point x="2" y="681" type="curve"/>
      <point x="2" y="681" type="line"/>
      <point x="-19" y="515"/>
      <point x="98" y="380"/>
      <point x="264" y="380" type="curve"/>
      <point x="264" y="380" type="line"/>
      <point x="283" y="380"/>
      <point x="302" y="382"/>
      <point x="321" y="386" type="curve"/>
      <point x="321" y="386" type="line"/>
      <point x="265" y="305"/>
      <point x="196" y="230"/>
      <point x="128" y="155" type="curve" smooth="yes"/>
      <point x="89" y="112"/>
      <point x="89" y="49"/>
      <point x="128" y="15" type="curve"/>
      <point x="128" y="15" type="line"/>
      <point x="168" y="-18"/>
      <point x="231" y="-11"/>
    </contour>
  </outline>
</glyph>
<glyph name="nine" format="1">
  <advance width="790"/>
  <unicode hex="0039"/>
  <outline>
    <contour>
      <point x="439" y="681" type="curve" smooth="yes"/>
      <point x="429" y="609"/>
      <point x="372" y="550"/>
      <point x="310" y="550" type="curve" smooth="yes"/>
      <point x="249" y="550"/>
      <point x="207" y="609"/>
      <point x="216" y="681" type="curve" smooth="yes"/>
      <point x="225" y="753"/>
      <point x="283" y="812"/>
      <point x="344" y="812" type="curve" smooth="yes"/>
      <point x="406" y="812"/>
      <point x="448" y="753"/>
    </contour>
    <contour>
      <point x="270" y="28" type="curve" smooth="yes"/>
      <point x="446" y="223"/>
      <point x="618" y="417"/>
      <point x="652" y="681" type="curve" smooth="yes"/>
      <point x="676" y="860"/>
      <point x="549" y="1006"/>
      <point x="370" y="1006" type="curve" smooth="yes"/>
      <point x="190" y="1006"/>
      <point x="26" y="860"/>
      <point x="2" y="681" type="curve" smooth="yes"/>
      <point x="-19" y="515"/>
      <point x="98" y="380"/>
      <point x="264" y="380" type="curve" smooth="yes"/>
      <point x="284" y="380"/>
      <point x="303" y="382"/>
      <point x="322" y="386" type="curve"/>
      <point x="266" y="303"/>
      <point x="197" y="227"/>
      <point x="127" y="151" type="curve" smooth="yes"/>
      <point x="91" y="110"/>
      <point x="93" y="50"/>
      <point x="133" y="17" type="curve" smooth="yes"/>
      <point x="172" y="-17"/>
      <point x="233" y="-12"/>
    </contour>
  </outline>
</glyph>
<glyph name="colon" format="1">
  <advance width="424"/>
  <unicode hex="003A"/>
  <outline>
    <contour>
      <point x="236" y="126" type="line" smooth="yes"/>
      <point x="243" y="181"/>
      <point x="197" y="226"/>
      <point x="133" y="226" type="curve" smooth="yes"/>
      <point x="70" y="226"/>
      <point x="12" y="181"/>
      <point x="5" y="126" type="curve" smooth="yes"/>
      <point x="1" y="94" type="line" smooth="yes"/>
      <point x="-6" y="39"/>
      <point x="39" y="-6"/>
      <point x="103" y="-6" type="curve" smooth="yes"/>
      <point x="167" y="-6"/>
      <point x="225" y="39"/>
      <point x="232" y="94" type="curve" smooth="yes"/>
    </contour>
    <contour>
      <point x="288" y="526" type="line" smooth="yes"/>
      <point x="295" y="581"/>
      <point x="249" y="626"/>
      <point x="185" y="626" type="curve" smooth="yes"/>
      <point x="122" y="626"/>
      <point x="64" y="581"/>
      <point x="57" y="526" type="curve" smooth="yes"/>
      <point x="53" y="494" type="line" smooth="yes"/>
      <point x="46" y="439"/>
      <point x="91" y="394"/>
      <point x="155" y="394" type="curve" smooth="yes"/>
      <point x="219" y="394"/>
      <point x="277" y="439"/>
      <point x="284" y="494" type="curve" smooth="yes"/>
    </contour>
  </outline>
</glyph>
<glyph name="semicolon" format="1">
  <advance width="445"/>
  <unicode hex="003B"/>
  <outline>
    <contour>
      <point x="257" y="126" type="curve" smooth="yes"/>
      <point x="264" y="181"/>
      <point x="218" y="226"/>
      <point x="154" y="226" type="curve" smooth="yes"/>
      <point x="91" y="226"/>
      <point x="33" y="181"/>
      <point x="26" y="126" type="curve" smooth="yes"/>
      <point x="22" y="94" type="line" smooth="yes"/>
      <point x="17" y="58"/>
      <point x="35" y="27"/>
      <point x="65" y="9" type="curve" smooth="yes"/>
      <point x="75" y="3"/>
      <point x="80" y="-7"/>
      <point x="79" y="-19" type="curve"/>
      <point x="77" y="-32"/>
      <point x="69" y="-42"/>
      <point x="57" y="-48" type="curve" smooth="yes"/>
      <point x="23" y="-65" type="line" smooth="yes"/>
      <point x="5" y="-74"/>
      <point x="-4" y="-95"/>
      <point x="2" y="-113" type="curve"/>
      <point x="9" y="-130"/>
      <point x="29" y="-137"/>
      <point x="47" y="-129" type="curve" smooth="yes"/>
      <point x="152" y="-78"/>
      <point x="242" y="8"/>
    </contour>
    <contour>
      <point x="309" y="526" type="line" smooth="yes"/>
      <point x="316" y="581"/>
      <point x="270" y="626"/>
      <point x="206" y="626" type="curve" smooth="yes"/>
      <point x="143" y="626"/>
      <point x="85" y="581"/>
      <point x="78" y="526" type="curve" smooth="yes"/>
      <point x="74" y="494" type="line" smooth="yes"/>
      <point x="67" y="439"/>
      <point x="112" y="394"/>
      <point x="176" y="394" type="curve" smooth="yes"/>
      <point x="240" y="394"/>
      <point x="298" y="439"/>
      <point x="305" y="494" type="curve" smooth="yes"/>
    </contour>
  </outline>
</glyph>
<glyph name="less" format="1">
  <advance width="767"/>
  <unicode hex="003C"/>
  <outline>
    <contour>
      <point x="417" y="194" type="line" smooth="yes"/>
      <point x="430" y="187"/>
      <point x="445" y="183"/>
      <point x="461" y="183" type="curve" smooth="yes"/>
      <point x="514" y="184"/>
      <point x="563" y="228"/>
      <point x="571" y="282" type="curve" smooth="yes"/>
      <point x="577" y="319"/>
      <point x="561" y="350"/>
      <point x="534" y="366" type="curve" smooth="yes"/>
      <point x="290" y="510" type="line"/>
      <point x="572" y="654" type="line" smooth="yes"/>
      <point x="603" y="670"/>
      <point x="627" y="701"/>
      <point x="631" y="738" type="curve" smooth="yes"/>
      <point x="637" y="792"/>
      <point x="599" y="836"/>
      <point x="547" y="837" type="curve" smooth="yes"/>
      <point x="530" y="837"/>
      <point x="514" y="833"/>
      <point x="500" y="826" type="curve" smooth="yes"/>
      <point x="72" y="608" type="line" smooth="yes"/>
      <point x="35" y="589"/>
      <point x="6" y="552"/>
      <point x="1" y="510" type="curve" smooth="yes"/>
      <point x="-5" y="468"/>
      <point x="14" y="431"/>
      <point x="47" y="412" type="curve" smooth="yes"/>
    </contour>
  </outline>
</glyph>
<glyph name="equal" format="1">
  <advance width="830"/>
  <unicode hex="003D"/>
  <outline>
    <contour>
      <point x="583" y="578" type="line" smooth="yes"/>
      <point x="637" y="578"/>
      <point x="687" y="621"/>
      <point x="694" y="675" type="curve" smooth="yes"/>
      <point x="701" y="729"/>
      <point x="662" y="772"/>
      <point x="608" y="772" type="curve" smooth="yes"/>
      <point x="154" y="772" type="line" smooth="yes"/>
      <point x="100" y="772"/>
      <point x="51" y="729"/>
      <point x="44" y="675" type="curve" smooth="yes"/>
      <point x="37" y="621"/>
      <point x="75" y="578"/>
      <point x="129" y="578" type="curve" smooth="yes"/>
    </contour>
    <contour>
      <point x="540" y="248" type="line" smooth="yes"/>
      <point x="594" y="248"/>
      <point x="644" y="291"/>
      <point x="651" y="345" type="curve" smooth="yes"/>
      <point x="658" y="399"/>
      <point x="620" y="442"/>
      <point x="566" y="442" type="curve" smooth="yes"/>
      <point x="111" y="442" type="line" smooth="yes"/>
      <point x="57" y="442"/>
      <point x="8" y="399"/>
      <point x="1" y="345" type="curve" smooth="yes"/>
      <point x="-6" y="291"/>
      <point x="32" y="248"/>
      <point x="86" y="248" type="curve" smooth="yes"/>
    </contour>
  </outline>
</glyph>
<glyph name="greater" format="1">
  <advance width="767"/>
  <unicode hex="003E"/>
  <outline>
    <contour>
      <point x="132" y="194" type="curve" smooth="yes"/>
      <point x="559" y="412" type="line" smooth="yes"/>
      <point x="596" y="431"/>
      <point x="625" y="468"/>
      <point x="630" y="510" type="curve" smooth="yes"/>
      <point x="636" y="552"/>
      <point x="617" y="589"/>
      <point x="585" y="608" type="curve" smooth="yes"/>
      <point x="214" y="826" type="line" smooth="yes"/>
      <point x="201" y="833"/>
      <point x="186" y="837"/>
      <point x="170" y="837" type="curve" smooth="yes"/>
      <point x="117" y="836"/>
      <point x="68" y="792"/>
      <point x="60" y="738" type="curve" smooth="yes"/>
      <point x="55" y="701"/>
      <point x="70" y="670"/>
      <point x="97" y="654" type="curve" smooth="yes"/>
      <point x="342" y="510" type="line"/>
      <point x="59" y="366" type="line" smooth="yes"/>
      <point x="28" y="350"/>
      <point x="5" y="319"/>
      <point x="1" y="282" type="curve" smooth="yes"/>
      <point x="-5" y="228"/>
      <point x="32" y="184"/>
      <point x="85" y="183" type="curve" smooth="yes"/>
      <point x="101" y="183"/>
      <point x="117" y="187"/>
    </contour>
  </outline>
</glyph>
<glyph name="question" format="1">
  <advance width="868"/>
  <unicode hex="003F"/>
  <outline>
    <contour>
      <point x="398" y="126" type="line" smooth="yes"/>
      <point x="405" y="181"/>
      <point x="360" y="226"/>
      <point x="296" y="226" type="curve" smooth="yes"/>
      <point x="232" y="226"/>
      <point x="174" y="181"/>
      <point x="167" y="126" type="curve" smooth="yes"/>
      <point x="163" y="94" type="line" smooth="yes"/>
      <point x="156" y="39"/>
      <point x="202" y="-6"/>
      <point x="266" y="-6" type="curve" smooth="yes"/>
      <point x="329" y="-6"/>
      <point x="387" y="39"/>
      <point x="394" y="94" type="curve" smooth="yes"/>
    </contour>
    <contour>
      <point x="7" y="764" type="curve"/>
      <point x="-6" y="732"/>
      <point x="-1" y="699"/>
      <point x="22" y="674" type="curve" smooth="yes"/>
      <point x="46" y="648"/>
      <point x="80" y="637"/>
      <point x="117" y="644" type="curve" smooth="yes"/>
      <point x="154" y="651"/>
      <point x="183" y="673"/>
      <point x="197" y="704" type="curve" smooth="yes"/>
      <point x="233" y="778"/>
      <point x="317" y="822"/>
      <point x="398" y="810" type="curve" smooth="yes"/>
      <point x="479" y="798"/>
      <point x="530" y="733"/>
      <point x="520" y="656" type="curve" smooth="yes"/>
      <point x="514" y="613"/>
      <point x="423" y="616"/>
      <point x="407" y="600" type="curve" smooth="yes"/>
      <point x="351" y="546"/>
      <point x="227" y="508"/>
      <point x="215" y="411" type="curve" smooth="yes"/>
      <point x="208" y="361"/>
      <point x="250" y="320"/>
      <point x="308" y="320" type="curve" smooth="yes"/>
      <point x="366" y="320"/>
      <point x="418" y="361"/>
      <point x="425" y="411" type="curve" smooth="yes"/>
      <point x="430" y="454"/>
      <point x="521" y="451"/>
      <point x="538" y="467" type="curve" smooth="yes"/>
      <point x="593" y="521"/>
      <point x="717" y="559"/>
      <point x="730" y="656" type="curve" smooth="yes"/>
      <point x="752" y="830"/>
      <point x="638" y="974"/>
      <point x="456" y="1002" type="curve" smooth="yes"/>
      <point x="274" y="1029"/>
      <point x="86" y="930"/>
    </contour>
  </outline>
</glyph>
<glyph name="A" format="1">
  <advance width="1040"/>
  <unicode hex="0041"/>
  <outline>
    <contour>
      <point x="388" y="417" type="line"/>
      <point x="530" y="690" type="line"/>
      <point x="601" y="417" type="line"/>
    </contour>
    <contour>
      <point x="697" y="52" type="line"/>
      <point x="709" y="19"/>
      <point x="737" y="-1"/>
      <point x="774" y="-5" type="curve" smooth="yes"/>
      <point x="812" y="-9"/>
      <point x="849" y="5"/>
      <point x="876" y="34" type="curve" smooth="yes"/>
      <point x="902" y="63"/>
      <point x="911" y="98"/>
      <point x="899" y="131" type="curve"/>
      <point x="690" y="928" type="line"/>
      <point x="673" y="977"/>
      <point x="627" y="1007"/>
      <point x="568" y="1006" type="curve" smooth="yes"/>
      <point x="509" y="1005"/>
      <point x="456" y="973"/>
      <point x="428" y="923" type="curve" smooth="yes"/>
      <point x="13" y="127" type="line" smooth="yes"/>
      <point x="-15" y="77"/>
      <point x="4" y="20"/>
      <point x="56" y="1" type="curve" smooth="yes"/>
      <point x="107" y="-19"/>
      <point x="171" y="6"/>
      <point x="199" y="56" type="curve" smooth="yes"/>
      <point x="286" y="223" type="line"/>
      <point x="652" y="223" type="line"/>
    </contour>
  </outline>
</glyph>
<glyph name="Latin_Capital_Letter_A" format="1">
  <advance width="1040"/>
  <unicode hex="0041"/>
  <outline>
    <contour>
      <point x="388" y="417" type="line"/>
      <point x="530" y="690" type="line"/>
      <point x="602" y="417" type="line"/>
    </contour>
    <contour>
      <point x="696" y="58" type="line" smooth="yes"/>
      <point x="709" y="8"/>
      <point x="766" y="-18"/>
      <point x="823" y="0" type="curve" smooth="yes"/>
      <point x="880" y="18"/>
      <point x="915" y="74"/>
      <point x="902" y="124" type="curve" smooth="yes"/>
      <point x="693" y="919" type="line" smooth="yes"/>
      <point x="679" y="972"/>
      <point x="632" y="1006"/>
      <point x="571" y="1006" type="curve" smooth="yes"/>
      <point x="510" y="1006"/>
      <point x="454" y="972"/>
      <point x="427" y="919" type="curve" smooth="yes"/>
      <point x="12" y="124" type="line" smooth="yes"/>
      <point x="-6" y="91"/>
      <point x="-4" y="56"/>
      <point x="18" y="29" type="curve" smooth="yes"/>
      <point x="39" y="1"/>
      <point x="73" y="-11"/>
      <point x="112" y="-4" type="curve" smooth="yes"/>
      <point x="151" y="2"/>
      <point x="183" y="25"/>
      <point x="201" y="58" type="curve" smooth="yes"/>
      <point x="287" y="223" type="line"/>
      <point x="652" y="223" type="line"/>
    </contour>
  </outline>
</glyph>
<glyph name="B" format="1">
  <advance width="860"/>
  <unicode hex="0042"/>
  <outline>
    <contour>
      <point x="253" y="433" type="line"/>
      <point x="399" y="433" type="line" smooth="yes"/>
      <point x="469" y="433"/>
      <point x="518" y="379"/>
      <point x="509" y="314" type="curve" smooth="yes"/>
      <point x="500" y="248"/>
      <point x="438" y="194"/>
      <point x="368" y="194" type="curve" smooth="yes"/>
      <point x="222" y="194" type="line"/>
    </contour>
    <contour>
      <point x="302" y="806" type="line"/>
      <point x="420" y="806" type="line" smooth="yes"/>
      <point x="472" y="806"/>
      <point x="509" y="766"/>
      <point x="502" y="716" type="curve" smooth="yes"/>
      <point x="496" y="667"/>
      <point x="449" y="627"/>
      <point x="397" y="627" type="curve" smooth="yes"/>
      <point x="279" y="627" type="line"/>
    </contour>
    <contour>
      <point x="343" y="0" type="line" smooth="yes"/>
      <point x="530" y="0"/>
      <point x="700" y="140"/>
      <point x="723" y="314" type="curve" smooth="yes"/>
      <point x="736" y="416"/>
      <point x="680" y="503"/>
      <point x="588" y="540" type="curve"/>
      <point x="656" y="577"/>
      <point x="706" y="642"/>
      <point x="715" y="716" type="curve" smooth="yes"/>
      <point x="736" y="873"/>
      <point x="615" y="1000"/>
      <point x="446" y="1000" type="curve" smooth="yes"/>
      <point x="238" y="1000" type="line" smooth="yes"/>
      <point x="171" y="1000"/>
      <point x="111" y="953"/>
      <point x="104" y="896" type="curve" smooth="yes"/>
      <point x="1" y="104" type="line" smooth="yes"/>
      <point x="-7" y="47"/>
      <point x="41" y="0"/>
      <point x="108" y="0" type="curve" smooth="yes"/>
    </contour>
  </outline>
</glyph>
<glyph name="Latin_Capital_Letter_B" format="1">
  <advance width="751"/>
  <unicode hex="0042"/>
  <outline>
    <contour>
      <point x="253" y="433" type="line"/>
      <point x="426" y="433" type="line" smooth="yes"/>
      <point x="492" y="433"/>
      <point x="538" y="379"/>
      <point x="529" y="314" type="curve"/>
      <point x="529" y="314" type="line"/>
      <point x="521" y="248"/>
      <point x="461" y="194"/>
      <point x="395" y="194" type="curve" smooth="yes"/>
      <point x="222" y="194" type="line"/>
    </contour>
    <contour>
      <point x="301" y="806" type="line"/>
      <point x="427" y="806" type="line" smooth="yes"/>
      <point x="476" y="806"/>
      <point x="511" y="766"/>
      <point x="504" y="716" type="curve"/>
      <point x="504" y="716" type="line"/>
      <point x="498" y="667"/>
      <point x="453" y="627"/>
      <point x="403" y="627" type="curve" smooth="yes"/>
      <point x="278" y="627" type="line"/>
    </contour>
    <contour>
      <point x="369" y="0" type="line" smooth="yes"/>
      <point x="557" y="0"/>
      <point x="727" y="140"/>
      <point x="749" y="314" type="curve"/>
      <point x="749" y="314" type="line"/>
      <point x="763" y="420"/>
      <point x="701" y="511"/>
      <point x="602" y="544" type="curve"/>
      <point x="602" y="544" type="line"/>
      <point x="666" y="582"/>
      <point x="712" y="645"/>
      <point x="721" y="716" type="curve"/>
      <point x="721" y="716" type="line"/>
      <point x="742" y="873"/>
      <point x="621" y="1000"/>
      <point x="452" y="1000" type="curve" smooth="yes"/>
      <point x="237" y="1000" type="line" smooth="yes"/>
      <point x="170" y="1000"/>
      <point x="110" y="950"/>
      <point x="102" y="888" type="curve" smooth="yes"/>
      <point x="1" y="112" type="line" smooth="yes"/>
      <point x="-7" y="50"/>
      <point x="40" y="0"/>
      <point x="107" y="0" type="curve" smooth="yes"/>
    </contour>
  </outline>
</glyph>
<glyph name="D" format="1">
  <advance width="954"/>
  <unicode hex="0044"/>
  <outline>
    <contour>
      <point x="321" y="0" type="line" smooth="yes"/>
      <point x="555" y="0"/>
      <point x="773" y="212"/>
      <point x="807" y="472" type="curve" smooth="yes"/>
      <point x="814" y="528" type="line" smooth="yes"/>
      <point x="848" y="788"/>
      <point x="685" y="1000"/>
      <point x="451" y="1000" type="curve" smooth="yes"/>
      <point x="238" y="1000" type="line" smooth="yes"/>
      <point x="171" y="1000"/>
      <point x="111" y="953"/>
      <point x="104" y="896" type="curve" smooth="yes"/>
      <point x="1" y="104" type="line" smooth="yes"/>
      <point x="-7" y="47"/>
      <point x="41" y="0"/>
      <point x="108" y="0" type="curve" smooth="yes"/>
    </contour>
    <contour>
      <point x="302" y="806" type="line"/>
      <point x="432" y="806" type="line" smooth="yes"/>
      <point x="558" y="806"/>
      <point x="624" y="682"/>
      <point x="604" y="528" type="curve" smooth="yes"/>
      <point x="597" y="472" type="line" smooth="yes"/>
      <point x="578" y="328"/>
      <point x="468" y="194"/>
      <point x="352" y="194" type="curve" smooth="yes"/>
      <point x="222" y="194" type="line"/>
    </contour>
  </outline>
</glyph>
<glyph name="Latin_Capital_Letter_D" format="1">
  <advance width="998"/>
  <unicode hex="0044"/>
  <outline>
    <contour>
      <point x="365" y="0" type="line" smooth="yes"/>
      <point x="599" y="0"/>
      <point x="817" y="212"/>
      <point x="851" y="472" type="curve" smooth="yes"/>
      <point x="858" y="528" type="line" smooth="yes"/>
      <point x="892" y="788"/>
      <point x="729" y="1000"/>
      <point x="495" y="1000" type="curve" smooth="yes"/>
      <point x="237" y="1000" type="line" smooth="yes"/>
      <point x="170" y="1000"/>
      <point x="110" y="950"/>
      <point x="102" y="888" type="curve" smooth="yes"/>
      <point x="1" y="112" type="line" smooth="yes"/>
      <point x="-7" y="50"/>
      <point x="40" y="0"/>
      <point x="107" y="0" type="curve" smooth="yes"/>
    </contour>
    <contour>
      <point x="301" y="806" type="line"/>
      <point x="486" y="806" type="line" smooth="yes"/>
      <point x="606" y="806"/>
      <point x="668" y="682"/>
      <point x="648" y="528" type="curve" smooth="yes"/>
      <point x="641" y="472" type="line" smooth="yes"/>
      <point x="622" y="328"/>
      <point x="516" y="194"/>
      <point x="406" y="194" type="curve" smooth="yes"/>
      <point x="222" y="194" type="line"/>
    </contour>
  </outline>
</glyph>
<glyph name="E" format="1">
  <advance width="896"/>
  <unicode hex="0045"/>
  <outline>
    <contour>
      <point x="540" y="8" type="line" smooth="yes"/>
      <point x="598" y="8"/>
      <point x="651" y="51"/>
      <point x="658" y="105" type="curve"/>
      <point x="658" y="105" type="line"/>
      <point x="665" y="159"/>
      <point x="623" y="202"/>
      <point x="565" y="202" type="curve" smooth="yes"/>
      <point x="223" y="202" type="line"/>
      <point x="250" y="413" type="line"/>
      <point x="462" y="413" type="line" smooth="yes"/>
      <point x="520" y="413"/>
      <point x="573" y="456"/>
      <point x="580" y="510" type="curve"/>
      <point x="580" y="510" type="line"/>
      <point x="587" y="564"/>
      <point x="546" y="607"/>
      <point x="488" y="607" type="curve" smooth="yes"/>
      <point x="275" y="607" type="line"/>
      <point x="300" y="798" type="line"/>
      <point x="643" y="798" type="line" smooth="yes"/>
      <point x="701" y="798"/>
      <point x="753" y="841"/>
      <point x="760" y="895" type="curve"/>
      <point x="760" y="895" type="line"/>
      <point x="767" y="949"/>
      <point x="726" y="992"/>
      <point x="668" y="992" type="curve" smooth="yes"/>
      <point x="237" y="1000" type="line" smooth="yes"/>
      <point x="170" y="1000"/>
      <point x="110" y="950"/>
      <point x="102" y="888" type="curve" smooth="yes"/>
      <point x="1" y="112" type="line" smooth="yes"/>
      <point x="-7" y="50"/>
      <point x="40" y="0"/>
      <point x="107" y="0" type="curve" smooth="yes"/>
    </contour>
  </outline>
</glyph>
<glyph name="Latin_Capital_Letter_E" format="1">
  <advance width="890"/>
  <unicode hex="0045"/>
  <outline>
    <contour>
      <point x="531" y="0" type="line" smooth="yes"/>
      <point x="589" y="0"/>
      <point x="642" y="43"/>
      <point x="649" y="97" type="curve"/>
      <point x="649" y="97" type="line"/>
      <point x="656" y="151"/>
      <point x="614" y="194"/>
      <point x="556" y="194" type="curve" smooth="yes"/>
      <point x="222" y="194" type="line"/>
      <point x="250" y="413" type="line"/>
      <point x="462" y="413" type="line" smooth="yes"/>
      <point x="520" y="413"/>
      <point x="573" y="456"/>
      <point x="580" y="510" type="curve"/>
      <point x="580" y="510" type="line"/>
      <point x="587" y="564"/>
      <point x="546" y="607"/>
      <point x="488" y="607" type="curve" smooth="yes"/>
      <point x="275" y="607" type="line"/>
      <point x="301" y="806" type="line"/>
      <point x="636" y="806" type="line" smooth="yes"/>
      <point x="694" y="806"/>
      <point x="747" y="849"/>
      <point x="754" y="903" type="curve"/>
      <point x="754" y="903" type="line"/>
      <point x="760" y="957"/>
      <point x="719" y="1000"/>
      <point x="661" y="1000" type="curve" smooth="yes"/>
      <point x="237" y="1000" type="line" smooth="yes"/>
      <point x="170" y="1000"/>
      <point x="110" y="950"/>
      <point x="102" y="888" type="curve" smooth="yes"/>
      <point x="1" y="112" type="line" smooth="yes"/>
      <point x="-7" y="50"/>
      <point x="40" y="0"/>
      <point x="107" y="0" type="curve" smooth="yes"/>
    </contour>
  </outline>
</glyph>
<glyph name="F" format="1">
  <advance width="870"/>
  <unicode hex="0046"/>
  <outline>
    <contour>
      <point x="211" y="85" type="curve" smooth="yes"/>
      <point x="253" y="413" type="line"/>
      <point x="460" y="413" type="line" smooth="yes"/>
      <point x="515" y="413"/>
      <point x="564" y="456"/>
      <point x="571" y="510" type="curve" smooth="yes"/>
      <point x="578" y="564"/>
      <point x="540" y="607"/>
      <point x="486" y="607" type="curve" smooth="yes"/>
      <point x="279" y="607" type="line"/>
      <point x="304" y="806" type="line"/>
      <point x="624" y="806" type="line" smooth="yes"/>
      <point x="678" y="806"/>
      <point x="727" y="849"/>
      <point x="734" y="903" type="curve" smooth="yes"/>
      <point x="741" y="957"/>
      <point x="703" y="1000"/>
      <point x="649" y="1000" type="curve" smooth="yes"/>
      <point x="240" y="1000" type="line" smooth="yes"/>
      <point x="174" y="1000"/>
      <point x="114" y="953"/>
      <point x="106" y="896" type="curve" smooth="yes"/>
      <point x="1" y="85" type="line" smooth="yes"/>
      <point x="-6" y="35"/>
      <point x="36" y="-6"/>
      <point x="94" y="-6" type="curve" smooth="yes"/>
      <point x="152" y="-6"/>
      <point x="204" y="35"/>
    </contour>
  </outline>
</glyph>
<glyph name="G" format="1">
  <advance width="1025"/>
  <unicode hex="0047"/>
  <outline>
    <contour>
      <point x="580" y="567" type="line" smooth="yes"/>
      <point x="522" y="567"/>
      <point x="470" y="524"/>
      <point x="463" y="470" type="curve" smooth="yes"/>
      <point x="456" y="416"/>
      <point x="497" y="373"/>
      <point x="555" y="373" type="curve" smooth="yes"/>
      <point x="647" y="373" type="line"/>
      <point x="602" y="272"/>
      <point x="515" y="194"/>
      <point x="424" y="194" type="curve" smooth="yes"/>
      <point x="394" y="194" type="line" smooth="yes"/>
      <point x="274" y="194"/>
      <point x="212" y="318"/>
      <point x="232" y="472" type="curve" smooth="yes"/>
      <point x="239" y="528" type="line" smooth="yes"/>
      <point x="258" y="672"/>
      <point x="364" y="806"/>
      <point x="474" y="806" type="curve" smooth="yes"/>
      <point x="503" y="806" type="line" smooth="yes"/>
      <point x="568" y="806"/>
      <point x="618" y="775"/>
      <point x="649" y="724" type="curve"/>
      <point x="681" y="685"/>
      <point x="744" y="683"/>
      <point x="789" y="721" type="curve" smooth="yes"/>
      <point x="833" y="759"/>
      <point x="843" y="822"/>
      <point x="811" y="862" type="curve" smooth="yes"/>
      <point x="745" y="947"/>
      <point x="646" y="1000"/>
      <point x="528" y="1000" type="curve" smooth="yes"/>
      <point x="498" y="1000" type="line" smooth="yes"/>
      <point x="263" y="1000"/>
      <point x="46" y="788"/>
      <point x="12" y="528" type="curve" smooth="yes"/>
      <point x="4" y="472" type="line" smooth="yes"/>
      <point x="-29" y="212"/>
      <point x="133" y="0"/>
      <point x="368" y="0" type="curve" smooth="yes"/>
      <point x="398" y="0" type="line" smooth="yes"/>
      <point x="633" y="0"/>
      <point x="850" y="210"/>
      <point x="888" y="470" type="curve"/>
      <point x="899" y="524"/>
      <point x="858" y="567"/>
      <point x="800" y="567" type="curve" smooth="yes"/>
    </contour>
  </outline>
</glyph>
<glyph name="H" format="1">
  <advance width="991"/>
  <unicode hex="0048"/>
  <outline>
    <contour>
      <point x="253" y="413" type="line"/>
      <point x="580" y="413" type="line"/>
      <point x="537" y="85" type="line" smooth="yes"/>
      <point x="531" y="35"/>
      <point x="573" y="-6"/>
      <point x="631" y="-6" type="curve" smooth="yes"/>
      <point x="689" y="-6"/>
      <point x="741" y="35"/>
      <point x="747" y="85" type="curve" smooth="yes"/>
      <point x="855" y="915" type="line" smooth="yes"/>
      <point x="862" y="965"/>
      <point x="820" y="1006"/>
      <point x="762" y="1006" type="curve" smooth="yes"/>
      <point x="704" y="1006"/>
      <point x="652" y="965"/>
      <point x="645" y="915" type="curve" smooth="yes"/>
      <point x="605" y="607" type="line"/>
      <point x="279" y="607" type="line"/>
      <point x="319" y="915" type="line" smooth="yes"/>
      <point x="325" y="965"/>
      <point x="283" y="1006"/>
      <point x="225" y="1006" type="curve" smooth="yes"/>
      <point x="167" y="1006"/>
      <point x="115" y="965"/>
      <point x="109" y="915" type="curve" smooth="yes"/>
      <point x="1" y="85" type="line" smooth="yes"/>
      <point x="-6" y="35"/>
      <point x="36" y="-6"/>
      <point x="94" y="-6" type="curve" smooth="yes"/>
      <point x="152" y="-6"/>
      <point x="204" y="35"/>
      <point x="211" y="85" type="curve" smooth="yes"/>
    </contour>
  </outline>
</glyph>
<glyph name="J" format="1">
  <advance width="809"/>
  <unicode hex="004A"/>
  <outline>
    <contour>
      <point x="383" y="300" type="line" smooth="yes"/>
      <point x="377" y="254"/>
      <point x="346" y="215"/>
      <point x="301" y="197" type="curve" smooth="yes"/>
      <point x="256" y="179"/>
      <point x="212" y="188"/>
      <point x="184" y="221" type="curve" smooth="yes"/>
      <point x="153" y="260"/>
      <point x="90" y="261"/>
      <point x="44" y="223" type="curve" smooth="yes"/>
      <point x="-2" y="185"/>
      <point x="-14" y="123"/>
      <point x="17" y="84" type="curve"/>
      <point x="100" y="-6"/>
      <point x="229" y="-31"/>
      <point x="358" y="17" type="curve" smooth="yes"/>
      <point x="487" y="66"/>
      <point x="576" y="173"/>
      <point x="593" y="300" type="curve" smooth="yes"/>
      <point x="673" y="915" type="line" smooth="yes"/>
      <point x="679" y="965"/>
      <point x="637" y="1006"/>
      <point x="579" y="1006" type="curve" smooth="yes"/>
      <point x="521" y="1006"/>
      <point x="469" y="965"/>
      <point x="463" y="915" type="curve" smooth="yes"/>
    </contour>
  </outline>
</glyph>
<glyph name="Latin_Capital_Letter_J" format="1">
  <advance width="819"/>
  <unicode hex="004A"/>
  <outline>
    <contour>
      <point x="396" y="313" type="line" smooth="yes"/>
      <point x="389" y="262"/>
      <point x="356" y="218"/>
      <point x="308" y="198" type="curve" smooth="yes"/>
      <point x="261" y="178"/>
      <point x="214" y="188"/>
      <point x="184" y="225" type="curve"/>
      <point x="184" y="225" type="line"/>
      <point x="153" y="265"/>
      <point x="90" y="267"/>
      <point x="44" y="229" type="curve"/>
      <point x="44" y="229" type="line"/>
      <point x="-2" y="191"/>
      <point x="-14" y="128"/>
      <point x="18" y="88" type="curve"/>
      <point x="18" y="88" type="line"/>
      <point x="102" y="-6"/>
      <point x="234" y="-32"/>
      <point x="366" y="18" type="curve" smooth="yes"/>
      <point x="497" y="69"/>
      <point x="589" y="181"/>
      <point x="606" y="313" type="curve" smooth="yes"/>
      <point x="683" y="909" type="line" smooth="yes"/>
      <point x="690" y="962"/>
      <point x="649" y="1006"/>
      <point x="591" y="1006" type="curve" smooth="yes"/>
      <point x="533" y="1006"/>
      <point x="480" y="962"/>
      <point x="473" y="909" type="curve" smooth="yes"/>
    </contour>
  </outline>
</glyph>
<glyph name="K" format="1">
  <advance width="911"/>
  <unicode hex="004B"/>
  <outline>
    <contour>
      <point x="230" y="241" type="line"/>
      <point x="313" y="339" type="line"/>
      <point x="469" y="39" type="line" smooth="yes"/>
      <point x="494" y="-6"/>
      <point x="557" y="-19"/>
      <point x="610" y="10" type="curve" smooth="yes"/>
      <point x="662" y="39"/>
      <point x="684" y="99"/>
      <point x="659" y="144" type="curve" smooth="yes"/>
      <point x="465" y="519" type="line"/>
      <point x="748" y="852" type="line" smooth="yes"/>
      <point x="787" y="896"/>
      <point x="784" y="956"/>
      <point x="741" y="988" type="curve" smooth="yes"/>
      <point x="698" y="1019"/>
      <point x="631" y="1009"/>
      <point x="592" y="965" type="curve" smooth="yes"/>
      <point x="276" y="592" type="line"/>
      <point x="317" y="909" type="line" smooth="yes"/>
      <point x="324" y="962"/>
      <point x="283" y="1006"/>
      <point x="225" y="1006" type="curve" smooth="yes"/>
      <point x="167" y="1006"/>
      <point x="114" y="962"/>
      <point x="107" y="909" type="curve" smooth="yes"/>
      <point x="1" y="91" type="line" smooth="yes"/>
      <point x="-6" y="38"/>
      <point x="35" y="-6"/>
      <point x="93" y="-6" type="curve" smooth="yes"/>
      <point x="151" y="-6"/>
      <point x="204" y="38"/>
      <point x="211" y="91" type="curve" smooth="yes"/>
    </contour>
  </outline>
</glyph>
<glyph name="Latin_Capital_Letter_K" format="1">
  <advance width="776"/>
  <unicode hex="004B"/>
  <outline>
    <contour>
      <point x="230" y="241" type="line"/>
      <point x="313" y="339" type="line"/>
      <point x="467" y="41" type="line" smooth="yes"/>
      <point x="491" y="-5"/>
      <point x="553" y="-20"/>
      <point x="607" y="8" type="curve" smooth="yes"/>
      <point x="660" y="35"/>
      <point x="684" y="95"/>
      <point x="660" y="141" type="curve" smooth="yes"/>
      <point x="465" y="519" type="line"/>
      <point x="750" y="855" type="line" smooth="yes"/>
      <point x="788" y="900"/>
      <point x="783" y="960"/>
      <point x="738" y="990" type="curve" smooth="yes"/>
      <point x="694" y="1019"/>
      <point x="627" y="1007"/>
      <point x="589" y="962" type="curve" smooth="yes"/>
      <point x="276" y="592" type="line"/>
      <point x="317" y="909" type="line" smooth="yes"/>
      <point x="324" y="962"/>
      <point x="283" y="1006"/>
      <point x="225" y="1006" type="curve" smooth="yes"/>
      <point x="167" y="1006"/>
      <point x="114" y="962"/>
      <point x="107" y="909" type="curve" smooth="yes"/>
      <point x="1" y="91" type="line" smooth="yes"/>
      <point x="-6" y="38"/>
      <point x="35" y="-6"/>
      <point x="93" y="-6" type="curve" smooth="yes"/>
      <point x="151" y="-6"/>
      <point x="204" y="38"/>
      <point x="211" y="91" type="curve" smooth="yes"/>
    </contour>
  </outline>
</glyph>
<glyph name="L" format="1">
  <advance width="822"/>
  <unicode hex="004C"/>
  <outline>
    <contour>
      <point x="568" y="8" type="line" smooth="yes"/>
      <point x="626" y="8"/>
      <point x="679" y="51"/>
      <point x="685" y="105" type="curve"/>
      <point x="685" y="105" type="line"/>
      <point x="692" y="159"/>
      <point x="651" y="202"/>
      <point x="593" y="202" type="curve" smooth="yes"/>
      <point x="223" y="202" type="line"/>
      <point x="315" y="909" type="line" smooth="yes"/>
      <point x="322" y="962"/>
      <point x="281" y="1006"/>
      <point x="223" y="1006" type="curve" smooth="yes"/>
      <point x="165" y="1006"/>
      <point x="112" y="962"/>
      <point x="105" y="909" type="curve" smooth="yes"/>
      <point x="1" y="106" type="line" smooth="yes"/>
      <point x="-7" y="44"/>
      <point x="40" y="-6"/>
      <point x="107" y="-6" type="curve" smooth="yes"/>
    </contour>
  </outline>
</glyph>
<glyph name="Latin_Capital_Letter_L" format="1">
  <advance width="677"/>
  <unicode hex="004C"/>
  <outline>
    <contour>
      <point x="558" y="0" type="line" smooth="yes"/>
      <point x="616" y="0"/>
      <point x="669" y="43"/>
      <point x="676" y="97" type="curve"/>
      <point x="676" y="97" type="line"/>
      <point x="683" y="151"/>
      <point x="641" y="194"/>
      <point x="583" y="194" type="curve" smooth="yes"/>
      <point x="222" y="194" type="line"/>
      <point x="314" y="909" type="line" smooth="yes"/>
      <point x="321" y="962"/>
      <point x="280" y="1006"/>
      <point x="222" y="1006" type="curve" smooth="yes"/>
      <point x="164" y="1006"/>
      <point x="111" y="962"/>
      <point x="104" y="909" type="curve" smooth="yes"/>
      <point x="1" y="112" type="line" smooth="yes"/>
      <point x="-7" y="50"/>
      <point x="40" y="0"/>
      <point x="107" y="0" type="curve" smooth="yes"/>
    </contour>
  </outline>
</glyph>
<glyph name="Latin_Capital_Letter_M" format="1">
  <advance width="1265"/>
  <unicode hex="004D"/>
  <outline>
    <contour>
      <point x="447" y="75" type="line" smooth="yes"/>
      <point x="455" y="28"/>
      <point x="495" y="-4"/>
      <point x="548" y="-6" type="curve" smooth="yes"/>
      <point x="601" y="-7"/>
      <point x="651" y="21"/>
      <point x="675" y="68" type="curve"/>
      <point x="885" y="559" type="line"/>
      <point x="918" y="73" type="line" smooth="yes"/>
      <point x="923" y="20"/>
      <point x="973" y="-14"/>
      <point x="1032" y="-4" type="curve" smooth="yes"/>
      <point x="1090" y="6"/>
      <point x="1134" y="57"/>
      <point x="1129" y="110" type="curve" smooth="yes"/>
      <point x="1064" y="916" type="line" smooth="yes"/>
      <point x="1060" y="966"/>
      <point x="1021" y="1002"/>
      <point x="966" y="1006" type="curve" smooth="yes"/>
      <point x="912" y="1009"/>
      <point x="859" y="980"/>
      <point x="834" y="932" type="curve"/>
      <point x="596" y="364" type="line"/>
      <point x="516" y="925" type="line" smooth="yes"/>
      <point x="507" y="975"/>
      <point x="462" y="1008"/>
      <point x="405" y="1006" type="curve" smooth="yes"/>
      <point x="348" y="1004"/>
      <point x="298" y="967"/>
      <point x="280" y="916" type="curve" smooth="yes"/>
      <point x="5" y="110" type="line" smooth="yes"/>
      <point x="-13" y="57"/>
      <point x="18" y="6"/>
      <point x="73" y="-4" type="curve" smooth="yes"/>
      <point x="129" y="-14"/>
      <point x="188" y="20"/>
      <point x="206" y="73" type="curve" smooth="yes"/>
      <point x="369" y="569" type="line"/>
    </contour>
  </outline>
</glyph>
<glyph name="M" format="1">
  <advance width="1265"/>
  <unicode hex="004D"/>
  <outline>
    <contour>
      <point x="448" y="69" type="line"/>
      <point x="459" y="23"/>
      <point x="500" y="-6"/>
      <point x="552" y="-6" type="curve" smooth="yes"/>
      <point x="605" y="-6"/>
      <point x="653" y="23"/>
      <point x="676" y="69" type="curve"/>
      <point x="885" y="559" type="line"/>
      <point x="919" y="69" type="line" smooth="yes"/>
      <point x="925" y="17"/>
      <point x="977" y="-15"/>
      <point x="1035" y="-3" type="curve" smooth="yes"/>
      <point x="1093" y="9"/>
      <point x="1135" y="61"/>
      <point x="1129" y="113" type="curve" smooth="yes"/>
      <point x="1064" y="919" type="line" smooth="yes"/>
      <point x="1058" y="969"/>
      <point x="1018" y="1003"/>
      <point x="964" y="1006" type="curve" smooth="yes"/>
      <point x="909" y="1008"/>
      <point x="858" y="979"/>
      <point x="833" y="931" type="curve"/>
      <point x="596" y="364" type="line"/>
      <point x="514" y="931" type="line"/>
      <point x="503" y="979"/>
      <point x="458" y="1009"/>
      <point x="403" y="1006" type="curve" smooth="yes"/>
      <point x="347" y="1002"/>
      <point x="298" y="967"/>
      <point x="281" y="917" type="curve" smooth="yes"/>
      <point x="6" y="111" type="line" smooth="yes"/>
      <point x="-13" y="59"/>
      <point x="16" y="7"/>
      <point x="72" y="-4" type="curve" smooth="yes"/>
      <point x="127" y="-15"/>
      <point x="187" y="19"/>
      <point x="206" y="71" type="curve" smooth="yes"/>
      <point x="369" y="569" type="line"/>
    </contour>
  </outline>
</glyph>
<glyph name="N" format="1">
  <advance width="1010"/>
  <unicode hex="004E"/>
  <outline>
    <contour>
      <point x="270" y="548" type="line"/>
      <point x="539" y="47" type="line" smooth="yes"/>
      <point x="562" y="4"/>
      <point x="613" y="-15"/>
      <point x="668" y="-2" type="curve" smooth="yes"/>
      <point x="723" y="12"/>
      <point x="763" y="55"/>
      <point x="770" y="106" type="curve" smooth="yes"/>
      <point x="874" y="909" type="line" smooth="yes"/>
      <point x="881" y="962"/>
      <point x="840" y="1006"/>
      <point x="782" y="1006" type="curve" smooth="yes"/>
      <point x="724" y="1006"/>
      <point x="671" y="962"/>
      <point x="664" y="909" type="curve" smooth="yes"/>
      <point x="605" y="452" type="line"/>
      <point x="336" y="953" type="line" smooth="yes"/>
      <point x="313" y="996"/>
      <point x="262" y="1015"/>
      <point x="207" y="1002" type="curve" smooth="yes"/>
      <point x="152" y="988"/>
      <point x="112" y="945"/>
      <point x="105" y="894" type="curve" smooth="yes"/>
      <point x="1" y="91" type="line" smooth="yes"/>
      <point x="-6" y="38"/>
      <point x="35" y="-6"/>
      <point x="93" y="-6" type="curve" smooth="yes"/>
      <point x="151" y="-6"/>
      <point x="204" y="38"/>
      <point x="211" y="91" type="curve" smooth="yes"/>
    </contour>
  </outline>
</glyph>
<glyph name="Latin_Capital_Letter_P" format="1">
  <advance width="879"/>
  <unicode hex="0050"/>
  <outline>
    <contour>
      <point x="211" y="91" type="curve" smooth="yes"/>
      <point x="245" y="353" type="line"/>
      <point x="349" y="353" type="line" smooth="yes"/>
      <point x="542" y="353"/>
      <point x="717" y="495"/>
      <point x="739" y="670" type="curve" smooth="yes"/>
      <point x="741" y="683" type="line" smooth="yes"/>
      <point x="764" y="858"/>
      <point x="626" y="1000"/>
      <point x="433" y="1000" type="curve" smooth="yes"/>
      <point x="240" y="1000" type="line" smooth="yes"/>
      <point x="173" y="1000"/>
      <point x="112" y="950"/>
      <point x="104" y="888" type="curve" smooth="yes"/>
      <point x="1" y="91" type="line" smooth="yes"/>
      <point x="-6" y="38"/>
      <point x="35" y="-6"/>
      <point x="93" y="-6" type="curve" smooth="yes"/>
      <point x="151" y="-6"/>
      <point x="204" y="38"/>
    </contour>
    <contour>
      <point x="304" y="806" type="line"/>
      <point x="408" y="806" type="line" smooth="yes"/>
      <point x="478" y="806"/>
      <point x="529" y="751"/>
      <point x="521" y="683" type="curve" smooth="yes"/>
      <point x="519" y="670" type="line" smooth="yes"/>
      <point x="510" y="601"/>
      <point x="445" y="547"/>
      <point x="375" y="547" type="curve" smooth="yes"/>
      <point x="270" y="547" type="line"/>
    </contour>
  </outline>
</glyph>
<glyph name="P" format="1">
  <advance width="871"/>
  <unicode hex="0050"/>
  <outline>
    <contour>
      <point x="211" y="85" type="curve" smooth="yes"/>
      <point x="246" y="353" type="line"/>
      <point x="341" y="353" type="line" smooth="yes"/>
      <point x="534" y="353"/>
      <point x="708" y="495"/>
      <point x="731" y="670" type="curve" smooth="yes"/>
      <point x="733" y="683" type="line" smooth="yes"/>
      <point x="756" y="858"/>
      <point x="618" y="1000"/>
      <point x="425" y="1000" type="curve" smooth="yes"/>
      <point x="240" y="1000" type="line" smooth="yes"/>
      <point x="174" y="1000"/>
      <point x="114" y="953"/>
      <point x="106" y="896" type="curve" smooth="yes"/>
      <point x="1" y="85" type="line" smooth="yes"/>
      <point x="-6" y="35"/>
      <point x="36" y="-6"/>
      <point x="94" y="-6" type="curve" smooth="yes"/>
      <point x="152" y="-6"/>
      <point x="204" y="35"/>
    </contour>
    <contour>
      <point x="304" y="806" type="line"/>
      <point x="400" y="806" type="line" smooth="yes"/>
      <point x="473" y="806"/>
      <point x="527" y="751"/>
      <point x="519" y="683" type="curve" smooth="yes"/>
      <point x="517" y="670" type="line" smooth="yes"/>
      <point x="508" y="601"/>
      <point x="441" y="547"/>
      <point x="366" y="547" type="curve" smooth="yes"/>
      <point x="271" y="547" type="line"/>
    </contour>
  </outline>
</glyph>
<glyph name="Q" format="1">
  <advance width="1032"/>
  <unicode hex="0051"/>
  <outline>
    <contour>
      <point x="221" y="472" type="curve" smooth="yes"/>
      <point x="228" y="528" type="line" smooth="yes"/>
      <point x="247" y="672"/>
      <point x="357" y="806"/>
      <point x="473" y="806" type="curve" smooth="yes"/>
      <point x="503" y="806" type="line" smooth="yes"/>
      <point x="629" y="806"/>
      <point x="695" y="682"/>
      <point x="675" y="528" type="curve" smooth="yes"/>
      <point x="668" y="472" type="line" smooth="yes"/>
      <point x="650" y="328"/>
      <point x="539" y="194"/>
      <point x="424" y="194" type="curve" smooth="yes"/>
      <point x="393" y="194" type="line" smooth="yes"/>
      <point x="267" y="194"/>
      <point x="201" y="318"/>
    </contour>
    <contour>
      <point x="5" y="473" type="line" smooth="yes"/>
      <point x="-17" y="302"/>
      <point x="37" y="157"/>
      <point x="156" y="69" type="curve"/>
      <point x="509" y="-163" type="line"/>
      <point x="544" y="-197"/>
      <point x="605" y="-190"/>
      <point x="645" y="-149" type="curve" smooth="yes"/>
      <point x="686" y="-107"/>
      <point x="690" y="-46"/>
      <point x="655" y="-12" type="curve"/>
      <point x="566" y="36" type="line"/>
      <point x="729" y="107"/>
      <point x="859" y="275"/>
      <point x="885" y="472" type="curve" smooth="yes"/>
      <point x="892" y="528" type="line" smooth="yes"/>
      <point x="926" y="788"/>
      <point x="763" y="1000"/>
      <point x="529" y="1000" type="curve" smooth="yes"/>
      <point x="498" y="1000" type="line" smooth="yes"/>
      <point x="263" y="1000"/>
      <point x="46" y="788"/>
      <point x="12" y="528" type="curve" smooth="yes"/>
    </contour>
  </outline>
</glyph>
<glyph name="Latin_Capital_Letter_R" format="1">
  <advance width="879"/>
  <unicode hex="0052"/>
  <outline>
    <contour>
      <point x="245" y="353" type="line"/>
      <point x="340" y="353" type="line"/>
      <point x="459" y="49" type="line" smooth="yes"/>
      <point x="472" y="17"/>
      <point x="500" y="-3"/>
      <point x="539" y="-6" type="curve" smooth="yes"/>
      <point x="577" y="-8"/>
      <point x="613" y="7"/>
      <point x="639" y="37" type="curve" smooth="yes"/>
      <point x="664" y="66"/>
      <point x="672" y="101"/>
      <point x="659" y="133" type="curve" smooth="yes"/>
      <point x="552" y="407" type="line"/>
      <point x="652" y="464"/>
      <point x="725" y="561"/>
      <point x="739" y="670" type="curve" smooth="yes"/>
      <point x="741" y="683" type="line" smooth="yes"/>
      <point x="764" y="858"/>
      <point x="626" y="1000"/>
      <point x="433" y="1000" type="curve" smooth="yes"/>
      <point x="240" y="1000" type="line" smooth="yes"/>
      <point x="173" y="1000"/>
      <point x="112" y="950"/>
      <point x="104" y="888" type="curve" smooth="yes"/>
      <point x="1" y="91" type="line" smooth="yes"/>
      <point x="-6" y="38"/>
      <point x="35" y="-6"/>
      <point x="93" y="-6" type="curve" smooth="yes"/>
      <point x="151" y="-6"/>
      <point x="204" y="38"/>
      <point x="211" y="91" type="curve" smooth="yes"/>
    </contour>
    <contour>
      <point x="304" y="806" type="line"/>
      <point x="408" y="806" type="line" smooth="yes"/>
      <point x="478" y="806"/>
      <point x="529" y="751"/>
      <point x="521" y="683" type="curve" smooth="yes"/>
      <point x="519" y="670" type="line" smooth="yes"/>
      <point x="510" y="601"/>
      <point x="445" y="547"/>
      <point x="375" y="547" type="curve" smooth="yes"/>
      <point x="270" y="547" type="line"/>
    </contour>
  </outline>
</glyph>
<glyph name="R" format="1">
  <advance width="937"/>
  <unicode hex="0052"/>
  <outline>
    <contour>
      <point x="245" y="353" type="line"/>
      <point x="377" y="353" type="line"/>
      <point x="521" y="42" type="line" smooth="yes"/>
      <point x="545" y="-4"/>
      <point x="607" y="-20"/>
      <point x="660" y="8" type="curve" smooth="yes"/>
      <point x="714" y="35"/>
      <point x="738" y="95"/>
      <point x="715" y="141" type="curve" smooth="yes"/>
      <point x="595" y="399" type="line"/>
      <point x="703" y="455"/>
      <point x="783" y="555"/>
      <point x="798" y="670" type="curve" smooth="yes"/>
      <point x="800" y="683" type="line" smooth="yes"/>
      <point x="822" y="858"/>
      <point x="685" y="1000"/>
      <point x="492" y="1000" type="curve" smooth="yes"/>
      <point x="240" y="1000" type="line" smooth="yes"/>
      <point x="173" y="1000"/>
      <point x="112" y="950"/>
      <point x="104" y="888" type="curve" smooth="yes"/>
      <point x="1" y="91" type="line" smooth="yes"/>
      <point x="-6" y="38"/>
      <point x="35" y="-6"/>
      <point x="93" y="-6" type="curve" smooth="yes"/>
      <point x="151" y="-6"/>
      <point x="204" y="38"/>
      <point x="211" y="91" type="curve" smooth="yes"/>
    </contour>
    <contour>
      <point x="304" y="806" type="line"/>
      <point x="467" y="806" type="line" smooth="yes"/>
      <point x="543" y="806"/>
      <point x="598" y="751"/>
      <point x="590" y="683" type="curve" smooth="yes"/>
      <point x="588" y="670" type="line" smooth="yes"/>
      <point x="579" y="601"/>
      <point x="510" y="547"/>
      <point x="433" y="547" type="curve" smooth="yes"/>
      <point x="270" y="547" type="line"/>
    </contour>
  </outline>
</glyph>
<glyph name="S" format="1">
  <advance width="836"/>
  <unicode hex="0053"/>
  <outline>
    <contour>
      <point x="699" y="318" type="curve" smooth="yes"/>
      <point x="722" y="497"/>
      <point x="590" y="583"/>
      <point x="427" y="638" type="curve"/>
      <point x="427" y="638" type="line"/>
      <point x="387" y="653"/>
      <point x="312" y="680"/>
      <point x="318" y="727" type="curve"/>
      <point x="316" y="727" type="line"/>
      <point x="322" y="774"/>
      <point x="367" y="812"/>
      <point x="417" y="812" type="curve"/>
      <point x="417" y="812" type="line"/>
      <point x="457" y="812"/>
      <point x="491" y="803"/>
      <point x="517" y="787" type="curve"/>
      <point x="519" y="788" type="line"/>
      <point x="550" y="748"/>
      <point x="613" y="745"/>
      <point x="658" y="783" type="curve"/>
      <point x="658" y="783" type="line"/>
      <point x="704" y="820"/>
      <point x="714" y="883"/>
      <point x="682" y="923" type="curve"/>
      <point x="684" y="924" type="line"/>
      <point x="621" y="979"/>
      <point x="540" y="1006"/>
      <point x="442" y="1006" type="curve"/>
      <point x="442" y="1006" type="line"/>
      <point x="272" y="1006"/>
      <point x="119" y="881"/>
      <point x="99" y="727" type="curve" smooth="yes"/>
      <point x="79" y="573"/>
      <point x="202" y="500"/>
      <point x="342" y="453" type="curve"/>
      <point x="342" y="453" type="line"/>
      <point x="402" y="431"/>
      <point x="486" y="390"/>
      <point x="476" y="318" type="curve"/>
      <point x="477" y="318" type="line"/>
      <point x="468" y="247"/>
      <point x="398" y="188"/>
      <point x="321" y="188" type="curve"/>
      <point x="321" y="188" type="line"/>
      <point x="265" y="188"/>
      <point x="219" y="201"/>
      <point x="183" y="226" type="curve"/>
      <point x="182" y="225" type="line"/>
      <point x="150" y="266"/>
      <point x="88" y="268"/>
      <point x="42" y="231" type="curve"/>
      <point x="42" y="231" type="line"/>
      <point x="-3" y="193"/>
      <point x="-14" y="130"/>
      <point x="18" y="90" type="curve"/>
      <point x="17" y="89" type="line"/>
      <point x="89" y="26"/>
      <point x="182" y="-6"/>
      <point x="295" y="-6" type="curve"/>
      <point x="295" y="-6" type="line"/>
      <point x="495" y="-6"/>
      <point x="675" y="139"/>
    </contour>
  </outline>
</glyph>
<glyph name="Latin_Capital_Letter_T" format="1">
  <advance width="814"/>
  <unicode hex="0054"/>
  <outline>
    <contour>
      <point x="499" y="806" type="line"/>
      <point x="695" y="806" type="line" smooth="yes"/>
      <point x="753" y="806"/>
      <point x="806" y="849"/>
      <point x="813" y="903" type="curve"/>
      <point x="813" y="903" type="line"/>
      <point x="820" y="957"/>
      <point x="779" y="1000"/>
      <point x="721" y="1000" type="curve" smooth="yes"/>
      <point x="118" y="1000" type="line" smooth="yes"/>
      <point x="60" y="1000"/>
      <point x="8" y="957"/>
      <point x="1" y="903" type="curve"/>
      <point x="1" y="903" type="line"/>
      <point x="-6" y="849"/>
      <point x="35" y="806"/>
      <point x="93" y="806" type="curve" smooth="yes"/>
      <point x="289" y="806" type="line"/>
      <point x="196" y="91" type="line" smooth="yes"/>
      <point x="189" y="38"/>
      <point x="231" y="-6"/>
      <point x="289" y="-6" type="curve" smooth="yes"/>
      <point x="347" y="-6"/>
      <point x="399" y="38"/>
      <point x="406" y="91" type="curve" smooth="yes"/>
    </contour>
  </outline>
</glyph>
<glyph name="T" format="1">
  <advance width="940"/>
  <unicode hex="0054"/>
  <outline>
    <contour>
      <point x="495" y="806" type="line"/>
      <point x="693" y="806" type="line" smooth="yes"/>
      <point x="748" y="806"/>
      <point x="797" y="849"/>
      <point x="804" y="903" type="curve" smooth="yes"/>
      <point x="811" y="957"/>
      <point x="773" y="1000"/>
      <point x="719" y="1000" type="curve" smooth="yes"/>
      <point x="111" y="1000" type="line" smooth="yes"/>
      <point x="57" y="1000"/>
      <point x="8" y="957"/>
      <point x="1" y="903" type="curve" smooth="yes"/>
      <point x="-6" y="849"/>
      <point x="32" y="806"/>
      <point x="86" y="806" type="curve" smooth="yes"/>
      <point x="285" y="806" type="line"/>
      <point x="191" y="85" type="line" smooth="yes"/>
      <point x="185" y="35"/>
      <point x="226" y="-6"/>
      <point x="284" y="-6" type="curve" smooth="yes"/>
      <point x="342" y="-6"/>
      <point x="395" y="35"/>
      <point x="401" y="85" type="curve" smooth="yes"/>
    </contour>
  </outline>
</glyph>
<glyph name="Latin_Capital_Letter_U" format="1">
  <advance width="1033"/>
  <unicode hex="0055"/>
  <outline>
    <contour>
      <point x="376" y="0" type="line" smooth="yes"/>
      <point x="599" y="0"/>
      <point x="807" y="212"/>
      <point x="841" y="472" type="curve" smooth="yes"/>
      <point x="897" y="909" type="line" smooth="yes"/>
      <point x="904" y="962"/>
      <point x="863" y="1006"/>
      <point x="805" y="1006" type="curve" smooth="yes"/>
      <point x="747" y="1006"/>
      <point x="694" y="962"/>
      <point x="687" y="909" type="curve" smooth="yes"/>
      <point x="631" y="472" type="line" smooth="yes"/>
      <point x="612" y="330"/>
      <point x="509" y="194"/>
      <point x="401" y="194" type="curve" smooth="yes"/>
      <point x="372" y="194" type="line" smooth="yes"/>
      <point x="250" y="194"/>
      <point x="195" y="318"/>
      <point x="215" y="472" type="curve" smooth="yes"/>
      <point x="271" y="909" type="line" smooth="yes"/>
      <point x="278" y="962"/>
      <point x="237" y="1006"/>
      <point x="179" y="1006" type="curve" smooth="yes"/>
      <point x="121" y="1006"/>
      <point x="68" y="962"/>
      <point x="61" y="909" type="curve" smooth="yes"/>
      <point x="5" y="472" type="line" smooth="yes"/>
      <point x="-29" y="212"/>
      <point x="124" y="0"/>
      <point x="347" y="0" type="curve" smooth="yes"/>
    </contour>
  </outline>
</glyph>
<glyph name="U" format="1">
  <advance width="973"/>
  <unicode hex="0055"/>
  <outline>
    <contour>
      <point x="344" y="0" type="line" smooth="yes"/>
      <point x="551" y="0"/>
      <point x="745" y="212"/>
      <point x="779" y="472" type="curve" smooth="yes"/>
      <point x="837" y="915" type="line" smooth="yes"/>
      <point x="843" y="965"/>
      <point x="802" y="1006"/>
      <point x="744" y="1006" type="curve" smooth="yes"/>
      <point x="686" y="1006"/>
      <point x="633" y="965"/>
      <point x="627" y="915" type="curve" smooth="yes"/>
      <point x="569" y="472" type="line" smooth="yes"/>
      <point x="551" y="333"/>
      <point x="461" y="194"/>
      <point x="370" y="194" type="curve" smooth="yes"/>
      <point x="342" y="194" type="line" smooth="yes"/>
      <point x="232" y="194"/>
      <point x="195" y="318"/>
      <point x="215" y="472" type="curve" smooth="yes"/>
      <point x="273" y="915" type="line" smooth="yes"/>
      <point x="279" y="965"/>
      <point x="237" y="1006"/>
      <point x="179" y="1006" type="curve" smooth="yes"/>
      <point x="121" y="1006"/>
      <point x="69" y="965"/>
      <point x="63" y="915" type="curve" smooth="yes"/>
      <point x="5" y="472" type="line" smooth="yes"/>
      <point x="-29" y="212"/>
      <point x="111" y="0"/>
      <point x="317" y="0" type="curve" smooth="yes"/>
    </contour>
  </outline>
</glyph>
<glyph name="V" format="1">
  <advance width="994"/>
  <unicode hex="0056"/>
  <outline>
    <contour>
      <point x="177" y="83" type="line"/>
      <point x="195" y="27"/>
      <point x="249" y="-8"/>
      <point x="315" y="-6" type="curve" smooth="yes"/>
      <point x="382" y="-4"/>
      <point x="442" y="34"/>
      <point x="472" y="92" type="curve" smooth="yes"/>
      <point x="848" y="877" type="line" smooth="yes"/>
      <point x="874" y="927"/>
      <point x="852" y="983"/>
      <point x="800" y="1000" type="curve" smooth="yes"/>
      <point x="747" y="1018"/>
      <point x="684" y="991"/>
      <point x="658" y="941" type="curve" smooth="yes"/>
      <point x="350" y="297" type="line"/>
      <point x="207" y="946" type="line"/>
      <point x="191" y="996"/>
      <point x="133" y="1019"/>
      <point x="77" y="998" type="curve" smooth="yes"/>
      <point x="20" y="977"/>
      <point x="-12" y="920"/>
      <point x="4" y="871" type="curve"/>
    </contour>
  </outline>
</glyph>
<glyph name="Latin_Capital_Letter_W" format="1">
  <advance width="1355"/>
  <unicode hex="0057"/>
  <outline>
    <contour>
      <point x="160" y="74" type="line" smooth="yes"/>
      <point x="170" y="26"/>
      <point x="211" y="-6"/>
      <point x="266" y="-6" type="curve" smooth="yes"/>
      <point x="320" y="-6"/>
      <point x="369" y="26"/>
      <point x="391" y="74" type="curve" smooth="yes"/>
      <point x="644" y="652" type="line"/>
      <point x="747" y="74" type="line" smooth="yes"/>
      <point x="756" y="26"/>
      <point x="798" y="-6"/>
      <point x="852" y="-6" type="curve" smooth="yes"/>
      <point x="906" y="-6"/>
      <point x="956" y="26"/>
      <point x="978" y="74" type="curve" smooth="yes"/>
      <point x="1346" y="881" type="line" smooth="yes"/>
      <point x="1370" y="932"/>
      <point x="1345" y="986"/>
      <point x="1292" y="1002" type="curve" smooth="yes"/>
      <point x="1238" y="1017"/>
      <point x="1176" y="988"/>
      <point x="1153" y="937" type="curve" smooth="yes"/>
      <point x="897" y="352" type="line"/>
      <point x="796" y="926" type="line" smooth="yes"/>
      <point x="786" y="974"/>
      <point x="744" y="1006"/>
      <point x="690" y="1006" type="curve" smooth="yes"/>
      <point x="636" y="1006"/>
      <point x="586" y="974"/>
      <point x="564" y="926" type="curve" smooth="yes"/>
      <point x="313" y="352" type="line"/>
      <point x="210" y="937" type="line" smooth="yes"/>
      <point x="200" y="988"/>
      <point x="145" y="1017"/>
      <point x="87" y="1002" type="curve" smooth="yes"/>
      <point x="30" y="986"/>
      <point x="-9" y="932"/>
      <point x="2" y="881" type="curve" smooth="yes"/>
    </contour>
  </outline>
</glyph>
<glyph name="W" format="1">
  <advance width="1491"/>
  <unicode hex="0057"/>
  <outline>
    <contour>
      <point x="161" y="69" type="line"/>
      <point x="173" y="23"/>
      <point x="214" y="-6"/>
      <point x="267" y="-6" type="curve" smooth="yes"/>
      <point x="320" y="-5"/>
      <point x="368" y="25"/>
      <point x="390" y="71" type="curve" smooth="yes"/>
      <point x="644" y="653" type="line"/>
      <point x="748" y="69" type="line"/>
      <point x="759" y="23"/>
      <point x="800" y="-6"/>
      <point x="853" y="-6" type="curve" smooth="yes"/>
      <point x="906" y="-5"/>
      <point x="954" y="25"/>
      <point x="977" y="71" type="curve" smooth="yes"/>
      <point x="1345" y="879" type="line" smooth="yes"/>
      <point x="1370" y="930"/>
      <point x="1347" y="984"/>
      <point x="1294" y="1001" type="curve" smooth="yes"/>
      <point x="1241" y="1018"/>
      <point x="1178" y="990"/>
      <point x="1154" y="939" type="curve" smooth="yes"/>
      <point x="897" y="352" type="line"/>
      <point x="795" y="931" type="line"/>
      <point x="783" y="977"/>
      <point x="742" y="1006"/>
      <point x="689" y="1006" type="curve" smooth="yes"/>
      <point x="636" y="1005"/>
      <point x="588" y="975"/>
      <point x="565" y="929" type="curve"/>
      <point x="313" y="352" type="line"/>
      <point x="209" y="941" type="line"/>
      <point x="197" y="991"/>
      <point x="140" y="1018"/>
      <point x="83" y="1000" type="curve" smooth="yes"/>
      <point x="26" y="983"/>
      <point x="-10" y="928"/>
      <point x="2" y="877" type="curve" smooth="yes"/>
    </contour>
  </outline>
</glyph>
<glyph name="X" format="1">
  <advance width="931"/>
  <unicode hex="0058"/>
  <outline>
    <contour>
      <point x="372" y="299" type="line"/>
      <point x="488" y="46" type="line" smooth="yes"/>
      <point x="508" y="2"/>
      <point x="568" y="-13"/>
      <point x="622" y="12" type="curve" smooth="yes"/>
      <point x="676" y="37"/>
      <point x="704" y="92"/>
      <point x="684" y="136" type="curve" smooth="yes"/>
      <point x="516" y="500" type="line"/>
      <point x="778" y="864" type="line" smooth="yes"/>
      <point x="810" y="908"/>
      <point x="797" y="963"/>
      <point x="749" y="988" type="curve" smooth="yes"/>
      <point x="702" y="1013"/>
      <point x="638" y="998"/>
      <point x="606" y="954" type="curve" smooth="yes"/>
      <point x="424" y="701" type="line"/>
      <point x="308" y="954" type="line" smooth="yes"/>
      <point x="288" y="998"/>
      <point x="228" y="1013"/>
      <point x="174" y="988" type="curve" smooth="yes"/>
      <point x="120" y="963"/>
      <point x="92" y="908"/>
      <point x="112" y="864" type="curve" smooth="yes"/>
      <point x="279" y="500" type="line"/>
      <point x="18" y="136" type="line" smooth="yes"/>
      <point x="-3" y="107"/>
      <point x="-6" y="74"/>
      <point x="11" y="45" type="curve" smooth="yes"/>
      <point x="28" y="16"/>
      <point x="59" y="0"/>
      <point x="97" y="0" type="curve" smooth="yes"/>
      <point x="135" y="0"/>
      <point x="169" y="17"/>
      <point x="190" y="46" type="curve" smooth="yes"/>
    </contour>
  </outline>
</glyph>
<glyph name="Y" format="1">
  <advance width="904"/>
  <unicode hex="0059"/>
  <outline>
    <contour>
      <point x="224" y="475" type="line"/>
      <point x="173" y="85" type="line" smooth="yes"/>
      <point x="166" y="35"/>
      <point x="208" y="-6"/>
      <point x="266" y="-6" type="curve" smooth="yes"/>
      <point x="324" y="-6"/>
      <point x="376" y="35"/>
      <point x="383" y="85" type="curve" smooth="yes"/>
      <point x="434" y="475" type="line"/>
      <point x="748" y="858" type="line" smooth="yes"/>
      <point x="782" y="900"/>
      <point x="773" y="957"/>
      <point x="728" y="985" type="curve" smooth="yes"/>
      <point x="683" y="1013"/>
      <point x="618" y="1001"/>
      <point x="584" y="959" type="curve" smooth="yes"/>
      <point x="355" y="678" type="line"/>
      <point x="199" y="959" type="line" smooth="yes"/>
      <point x="176" y="1001"/>
      <point x="115" y="1013"/>
      <point x="62" y="985" type="curve" smooth="yes"/>
      <point x="9" y="957"/>
      <point x="-14" y="900"/>
      <point x="9" y="858" type="curve" smooth="yes"/>
    </contour>
  </outline>
</glyph>
<glyph name="Z" format="1">
  <advance width="917"/>
  <unicode hex="005A"/>
  <outline>
    <contour>
      <point x="501" y="806" type="line"/>
      <point x="24" y="162" type="line" smooth="yes"/>
      <point x="-1" y="128"/>
      <point x="-7" y="89"/>
      <point x="8" y="54" type="curve" smooth="yes"/>
      <point x="23" y="20"/>
      <point x="55" y="0"/>
      <point x="95" y="0" type="curve" smooth="yes"/>
      <point x="566" y="0" type="line" smooth="yes"/>
      <point x="620" y="0"/>
      <point x="670" y="43"/>
      <point x="677" y="97" type="curve" smooth="yes"/>
      <point x="684" y="151"/>
      <point x="646" y="194"/>
      <point x="592" y="194" type="curve" smooth="yes"/>
      <point x="281" y="194" type="line"/>
      <point x="758" y="838" type="line" smooth="yes"/>
      <point x="783" y="872"/>
      <point x="788" y="911"/>
      <point x="773" y="946" type="curve" smooth="yes"/>
      <point x="758" y="980"/>
      <point x="727" y="1000"/>
      <point x="687" y="1000" type="curve" smooth="yes"/>
      <point x="215" y="1000" type="line" smooth="yes"/>
      <point x="161" y="1000"/>
      <point x="112" y="957"/>
      <point x="105" y="903" type="curve" smooth="yes"/>
      <point x="98" y="849"/>
      <point x="136" y="806"/>
      <point x="190" y="806" type="curve" smooth="yes"/>
    </contour>
  </outline>
</glyph>
<glyph name="bracketleft" format="1">
  <advance width="628"/>
  <unicode hex="005B"/>
  <outline>
    <contour>
      <point x="250" y="-100" type="line" smooth="yes"/>
      <point x="304" y="-100"/>
      <point x="354" y="-57"/>
      <point x="361" y="-3" type="curve" smooth="yes"/>
      <point x="368" y="51"/>
      <point x="330" y="94"/>
      <point x="276" y="94" type="curve" smooth="yes"/>
      <point x="199" y="94" type="line"/>
      <point x="305" y="906" type="line"/>
      <point x="381" y="906" type="line" smooth="yes"/>
      <point x="435" y="906"/>
      <point x="485" y="949"/>
      <point x="492" y="1003" type="curve" smooth="yes"/>
      <point x="499" y="1057"/>
      <point x="460" y="1100"/>
      <point x="406" y="1100" type="curve" smooth="yes"/>
      <point x="264" y="1100" type="line" smooth="yes"/>
      <point x="197" y="1100"/>
      <point x="137" y="1053"/>
      <point x="130" y="996" type="curve" smooth="yes"/>
      <point x="1" y="4" type="line" smooth="yes"/>
      <point x="-7" y="-53"/>
      <point x="41" y="-100"/>
      <point x="108" y="-100" type="curve" smooth="yes"/>
    </contour>
  </outline>
</glyph>
<glyph name="backslash" format="1">
  <advance width="539"/>
  <unicode hex="005C"/>
  <outline>
    <contour>
      <point x="1" y="976" type="curve" smooth="yes"/>
      <point x="199" y="-40" type="line" smooth="yes"/>
      <point x="209" y="-87"/>
      <point x="262" y="-112"/>
      <point x="318" y="-94" type="curve" smooth="yes"/>
      <point x="374" y="-77"/>
      <point x="412" y="-24"/>
      <point x="403" y="24" type="curve" smooth="yes"/>
      <point x="205" y="1040" type="line" smooth="yes"/>
      <point x="195" y="1087"/>
      <point x="142" y="1112"/>
      <point x="86" y="1094" type="curve" smooth="yes"/>
      <point x="30" y="1077"/>
      <point x="-8" y="1024"/>
    </contour>
  </outline>
</glyph>
<glyph name="bracketright" format="1">
  <advance width="628"/>
  <unicode hex="005D"/>
  <outline>
    <contour>
      <point x="86" y="-100" type="curve" smooth="yes"/>
      <point x="228" y="-100" type="line" smooth="yes"/>
      <point x="295" y="-100"/>
      <point x="355" y="-53"/>
      <point x="363" y="4" type="curve" smooth="yes"/>
      <point x="492" y="996" type="line" smooth="yes"/>
      <point x="499" y="1053"/>
      <point x="451" y="1100"/>
      <point x="384" y="1100" type="curve" smooth="yes"/>
      <point x="242" y="1100" type="line" smooth="yes"/>
      <point x="188" y="1100"/>
      <point x="139" y="1057"/>
      <point x="132" y="1003" type="curve" smooth="yes"/>
      <point x="125" y="949"/>
      <point x="163" y="906"/>
      <point x="217" y="906" type="curve" smooth="yes"/>
      <point x="293" y="906" type="line"/>
      <point x="188" y="94" type="line"/>
      <point x="111" y="94" type="line" smooth="yes"/>
      <point x="57" y="94"/>
      <point x="8" y="51"/>
      <point x="1" y="-3" type="curve" smooth="yes"/>
      <point x="-6" y="-57"/>
      <point x="32" y="-100"/>
    </contour>
  </outline>
</glyph>
<glyph name="asciicircum" format="1">
  <advance width="687"/>
  <unicode hex="005E"/>
  <outline>
    <contour>
      <point x="27" y="762" type="line" smooth="yes"/>
      <point x="12" y="746"/>
      <point x="2" y="726"/>
      <point x="0" y="704" type="curve" smooth="yes"/>
      <point x="-4" y="651"/>
      <point x="35" y="607"/>
      <point x="88" y="605" type="curve" smooth="yes"/>
      <point x="118" y="603"/>
      <point x="147" y="616"/>
      <point x="167" y="638" type="curve" smooth="yes"/>
      <point x="283" y="765" type="line"/>
      <point x="367" y="638" type="line" smooth="yes"/>
      <point x="381" y="616"/>
      <point x="406" y="603"/>
      <point x="437" y="605" type="curve" smooth="yes"/>
      <point x="491" y="607"/>
      <point x="541" y="651"/>
      <point x="550" y="704" type="curve" smooth="yes"/>
      <point x="554" y="726"/>
      <point x="550" y="746"/>
      <point x="539" y="762" type="curve" smooth="yes"/>
      <point x="409" y="960" type="line" smooth="yes"/>
      <point x="390" y="988"/>
      <point x="356" y="1006"/>
      <point x="315" y="1006" type="curve" smooth="yes"/>
      <point x="273" y="1006"/>
      <point x="234" y="988"/>
      <point x="209" y="960" type="curve" smooth="yes"/>
    </contour>
  </outline>
</glyph>
<glyph name="underscore" format="1">
  <advance width="962"/>
  <unicode hex="005F"/>
  <outline>
    <contour>
      <point x="715" y="-217" type="line" smooth="yes"/>
      <point x="769" y="-217"/>
      <point x="819" y="-174"/>
      <point x="826" y="-120" type="curve" smooth="yes"/>
      <point x="833" y="-66"/>
      <point x="795" y="-23"/>
      <point x="741" y="-23" type="curve" smooth="yes"/>
      <point x="111" y="-23" type="line" smooth="yes"/>
      <point x="57" y="-23"/>
      <point x="8" y="-66"/>
      <point x="1" y="-120" type="curve" smooth="yes"/>
      <point x="-6" y="-174"/>
      <point x="32" y="-217"/>
      <point x="86" y="-217" type="curve" smooth="yes"/>
    </contour>
  </outline>
</glyph>
<glyph name="grave" format="1">
  <advance width="440"/>
  <unicode hex="0060"/>
  <outline>
    <contour>
      <point x="185" y="978" type="line" smooth="yes"/>
      <point x="165" y="1006"/>
      <point x="129" y="1013"/>
      <point x="89" y="998" type="curve" smooth="yes"/>
      <point x="49" y="984"/>
      <point x="18" y="951"/>
      <point x="5" y="911" type="curve" smooth="yes"/>
      <point x="-7" y="871"/>
      <point x="3" y="836"/>
      <point x="32" y="818" type="curve" smooth="yes"/>
      <point x="191" y="719" type="line" smooth="yes"/>
      <point x="216" y="703"/>
      <point x="253" y="712"/>
      <point x="280" y="739" type="curve" smooth="yes"/>
      <point x="306" y="767"/>
      <point x="313" y="804"/>
      <point x="295" y="827" type="curve" smooth="yes"/>
    </contour>
  </outline>
</glyph>
<glyph name="b" format="1">
  <advance width="817"/>
  <unicode hex="0062"/>
  <outline>
    <contour>
      <point x="242" y="325" type="curve" smooth="yes"/>
      <point x="252" y="400"/>
      <point x="310" y="462"/>
      <point x="371" y="462" type="curve" smooth="yes"/>
      <point x="433" y="462"/>
      <point x="475" y="400"/>
      <point x="465" y="325" type="curve" smooth="yes"/>
      <point x="455" y="250"/>
      <point x="397" y="188"/>
      <point x="336" y="188" type="curve" smooth="yes"/>
      <point x="274" y="188"/>
      <point x="232" y="250"/>
    </contour>
    <contour>
      <point x="281" y="624" type="curve"/>
      <point x="319" y="915" type="line" smooth="yes"/>
      <point x="325" y="965"/>
      <point x="283" y="1006"/>
      <point x="225" y="1006" type="curve" smooth="yes"/>
      <point x="167" y="1006"/>
      <point x="115" y="965"/>
      <point x="109" y="915" type="curve" smooth="yes"/>
      <point x="1" y="85" type="line" smooth="yes"/>
      <point x="-6" y="35"/>
      <point x="36" y="-6"/>
      <point x="94" y="-6" type="curve" smooth="yes"/>
      <point x="131" y="-6"/>
      <point x="167" y="11"/>
      <point x="188" y="37" type="curve"/>
      <point x="223" y="10"/>
      <point x="264" y="-6"/>
      <point x="310" y="-6" type="curve" smooth="yes"/>
      <point x="490" y="-6"/>
      <point x="655" y="142"/>
      <point x="678" y="325" type="curve" smooth="yes"/>
      <point x="702" y="508"/>
      <point x="576" y="656"/>
      <point x="396" y="656" type="curve" smooth="yes"/>
      <point x="357" y="656"/>
      <point x="317" y="644"/>
    </contour>
  </outline>
</glyph>
<glyph name="d" format="1">
  <advance width="862"/>
  <unicode hex="0064"/>
  <outline>
    <contour>
      <point x="439" y="325" type="curve" smooth="yes"/>
      <point x="430" y="250"/>
      <point x="372" y="188"/>
      <point x="310" y="188" type="curve" smooth="yes"/>
      <point x="248" y="188"/>
      <point x="206" y="250"/>
      <point x="216" y="325" type="curve" smooth="yes"/>
      <point x="226" y="400"/>
      <point x="284" y="462"/>
      <point x="346" y="462" type="curve" smooth="yes"/>
      <point x="407" y="462"/>
      <point x="449" y="400"/>
    </contour>
    <contour>
      <point x="478" y="624" type="line"/>
      <point x="447" y="644"/>
      <point x="411" y="656"/>
      <point x="371" y="656" type="curve" smooth="yes"/>
      <point x="191" y="656"/>
      <point x="27" y="508"/>
      <point x="3" y="325" type="curve" smooth="yes"/>
      <point x="-21" y="142"/>
      <point x="105" y="-6"/>
      <point x="285" y="-6" type="curve" smooth="yes"/>
      <point x="331" y="-6"/>
      <point x="377" y="10"/>
      <point x="418" y="37" type="curve"/>
      <point x="433" y="11"/>
      <point x="464" y="-6"/>
      <point x="501" y="-6" type="curve" smooth="yes"/>
      <point x="559" y="-6"/>
      <point x="612" y="35"/>
      <point x="618" y="85" type="curve" smooth="yes"/>
      <point x="726" y="915" type="line" smooth="yes"/>
      <point x="733" y="965"/>
      <point x="691" y="1006"/>
      <point x="633" y="1006" type="curve" smooth="yes"/>
      <point x="575" y="1006"/>
      <point x="523" y="965"/>
      <point x="516" y="915" type="curve" smooth="yes"/>
    </contour>
  </outline>
</glyph>
<glyph name="f" format="1">
  <advance width="803"/>
  <unicode hex="0066"/>
  <outline>
    <contour>
      <point x="144" y="456" type="line"/>
      <point x="95" y="85" type="line" smooth="yes"/>
      <point x="89" y="35"/>
      <point x="131" y="-6"/>
      <point x="189" y="-6" type="curve" smooth="yes"/>
      <point x="247" y="-6"/>
      <point x="299" y="35"/>
      <point x="305" y="85" type="curve" smooth="yes"/>
      <point x="354" y="456" type="line"/>
      <point x="444" y="456" type="line" smooth="yes"/>
      <point x="498" y="456"/>
      <point x="547" y="499"/>
      <point x="554" y="553" type="curve" smooth="yes"/>
      <point x="561" y="607"/>
      <point x="523" y="650"/>
      <point x="469" y="650" type="curve" smooth="yes"/>
      <point x="379" y="650" type="line"/>
      <point x="390" y="734" type="line" smooth="yes"/>
      <point x="393" y="759"/>
      <point x="410" y="781"/>
      <point x="438" y="797" type="curve" smooth="yes"/>
      <point x="466" y="812"/>
      <point x="497" y="816"/>
      <point x="527" y="808" type="curve"/>
      <point x="575" y="791"/>
      <point x="633" y="818"/>
      <point x="657" y="869" type="curve" smooth="yes"/>
      <point x="682" y="919"/>
      <point x="663" y="975"/>
      <point x="616" y="992" type="curve"/>
      <point x="523" y="1020"/>
      <point x="424" y="1007"/>
      <point x="335" y="954" type="curve" smooth="yes"/>
      <point x="246" y="901"/>
      <point x="191" y="824"/>
      <point x="180" y="734" type="curve" smooth="yes"/>
      <point x="169" y="650" type="line"/>
      <point x="111" y="650" type="line" smooth="yes"/>
      <point x="57" y="650"/>
      <point x="8" y="607"/>
      <point x="1" y="553" type="curve" smooth="yes"/>
      <point x="-6" y="499"/>
      <point x="32" y="456"/>
      <point x="86" y="456" type="curve" smooth="yes"/>
    </contour>
  </outline>
</glyph>
<glyph name="h" format="1">
  <advance width="758"/>
  <unicode hex="0068"/>
  <outline>
    <contour>
      <point x="1" y="85" type="line" smooth="yes"/>
      <point x="-6" y="35"/>
      <point x="36" y="-6"/>
      <point x="94" y="-6" type="curve" smooth="yes"/>
      <point x="152" y="-6"/>
      <point x="204" y="35"/>
      <point x="211" y="85" type="curve" smooth="yes"/>
      <point x="259" y="455" type="line"/>
      <point x="259" y="455"/>
      <point x="305" y="514"/>
      <point x="353" y="514" type="curve" smooth="yes"/>
      <point x="389" y="514"/>
      <point x="415" y="487"/>
      <point x="411" y="455" type="curve" smooth="yes"/>
      <point x="363" y="85" type="line" smooth="yes"/>
      <point x="356" y="35"/>
      <point x="398" y="-6"/>
      <point x="456" y="-6" type="curve" smooth="yes"/>
      <point x="514" y="-6"/>
      <point x="566" y="35"/>
      <point x="573" y="85" type="curve" smooth="yes"/>
      <point x="621" y="455" type="line" smooth="yes"/>
      <point x="635" y="563"/>
      <point x="549" y="650"/>
      <point x="429" y="650" type="curve" smooth="yes"/>
      <point x="375" y="650"/>
      <point x="321" y="626"/>
      <point x="277" y="593" type="curve"/>
      <point x="319" y="915" type="line" smooth="yes"/>
      <point x="325" y="965"/>
      <point x="283" y="1006"/>
      <point x="225" y="1006" type="curve" smooth="yes"/>
      <point x="167" y="1006"/>
      <point x="115" y="965"/>
      <point x="109" y="915" type="curve" smooth="yes"/>
    </contour>
  </outline>
</glyph>
<glyph name="i" format="1">
  <advance width="447"/>
  <unicode hex="0069"/>
  <outline>
    <contour>
      <point x="273" y="565" type="line" smooth="yes"/>
      <point x="280" y="615"/>
      <point x="238" y="656"/>
      <point x="180" y="656" type="curve" smooth="yes"/>
      <point x="122" y="656"/>
      <point x="70" y="615"/>
      <point x="63" y="565" type="curve" smooth="yes"/>
      <point x="1" y="85" type="line" smooth="yes"/>
      <point x="-6" y="35"/>
      <point x="36" y="-6"/>
      <point x="94" y="-6" type="curve" smooth="yes"/>
      <point x="152" y="-6"/>
      <point x="204" y="35"/>
      <point x="211" y="85" type="curve" smooth="yes"/>
    </contour>
    <contour>
      <point x="311" y="860" type="line"/>
      <point x="318" y="910"/>
      <point x="276" y="950"/>
      <point x="218" y="950" type="curve" smooth="yes"/>
      <point x="160" y="950"/>
      <point x="108" y="910"/>
      <point x="101" y="860" type="curve"/>
      <point x="100" y="846" type="line"/>
      <point x="93" y="796"/>
      <point x="135" y="756"/>
      <point x="193" y="756" type="curve" smooth="yes"/>
      <point x="251" y="756"/>
      <point x="303" y="796"/>
      <point x="310" y="846" type="curve"/>
    </contour>
  </outline>
</glyph>
<glyph name="j" format="1">
  <advance width="737"/>
  <unicode hex="006A"/>
  <outline>
    <contour>
      <point x="563" y="565" type="line" smooth="yes"/>
      <point x="570" y="615"/>
      <point x="528" y="656"/>
      <point x="470" y="656" type="curve" smooth="yes"/>
      <point x="412" y="656"/>
      <point x="360" y="615"/>
      <point x="353" y="565" type="curve" smooth="yes"/>
      <point x="271" y="-68" type="line" smooth="yes"/>
      <point x="268" y="-86"/>
      <point x="255" y="-101"/>
      <point x="235" y="-108" type="curve" smooth="yes"/>
      <point x="215" y="-115"/>
      <point x="194" y="-112"/>
      <point x="181" y="-99" type="curve"/>
      <point x="150" y="-63"/>
      <point x="90" y="-62"/>
      <point x="44" y="-100" type="curve" smooth="yes"/>
      <point x="-1" y="-137"/>
      <point x="-13" y="-198"/>
      <point x="16" y="-236" type="curve"/>
      <point x="82" y="-306"/>
      <point x="187" y="-325"/>
      <point x="292" y="-288" type="curve" smooth="yes"/>
      <point x="396" y="-250"/>
      <point x="468" y="-167"/>
      <point x="481" y="-68" type="curve" smooth="yes"/>
    </contour>
    <contour>
      <point x="601" y="860" type="line"/>
      <point x="608" y="910"/>
      <point x="566" y="950"/>
      <point x="508" y="950" type="curve" smooth="yes"/>
      <point x="450" y="950"/>
      <point x="398" y="910"/>
      <point x="391" y="860" type="curve"/>
      <point x="390" y="846" type="line"/>
      <point x="383" y="796"/>
      <point x="425" y="756"/>
      <point x="483" y="756" type="curve" smooth="yes"/>
      <point x="541" y="756"/>
      <point x="593" y="796"/>
      <point x="600" y="846" type="curve"/>
    </contour>
  </outline>
</glyph>
<glyph name="k" format="1">
  <advance width="783"/>
  <unicode hex="006B"/>
  <outline>
    <contour>
      <point x="1" y="85" type="line" smooth="yes"/>
      <point x="-6" y="35"/>
      <point x="36" y="-6"/>
      <point x="94" y="-6" type="curve" smooth="yes"/>
      <point x="152" y="-6"/>
      <point x="204" y="35"/>
      <point x="211" y="85" type="curve" smooth="yes"/>
      <point x="226" y="200" type="line"/>
      <point x="263" y="228" type="line"/>
      <point x="404" y="26" type="line" smooth="yes"/>
      <point x="432" y="-13"/>
      <point x="492" y="-17"/>
      <point x="539" y="18" type="curve" smooth="yes"/>
      <point x="586" y="54"/>
      <point x="602" y="114"/>
      <point x="575" y="153" type="curve" smooth="yes"/>
      <point x="434" y="355" type="line"/>
      <point x="605" y="483" type="line" smooth="yes"/>
      <point x="634" y="505"/>
      <point x="650" y="537"/>
      <point x="647" y="573" type="curve" smooth="yes"/>
      <point x="645" y="608"/>
      <point x="626" y="635"/>
      <point x="594" y="649" type="curve" smooth="yes"/>
      <point x="563" y="662"/>
      <point x="528" y="657"/>
      <point x="499" y="635" type="curve" smooth="yes"/>
      <point x="259" y="456" type="line"/>
      <point x="319" y="915" type="line" smooth="yes"/>
      <point x="325" y="965"/>
      <point x="283" y="1006"/>
      <point x="225" y="1006" type="curve" smooth="yes"/>
      <point x="167" y="1006"/>
      <point x="115" y="965"/>
      <point x="109" y="915" type="curve" smooth="yes"/>
    </contour>
  </outline>
</glyph>
<glyph name="l" format="1">
  <advance width="455"/>
  <unicode hex="006C"/>
  <outline>
    <contour>
      <point x="319" y="915" type="line" smooth="yes"/>
      <point x="325" y="965"/>
      <point x="283" y="1006"/>
      <point x="225" y="1006" type="curve" smooth="yes"/>
      <point x="167" y="1006"/>
      <point x="115" y="965"/>
      <point x="109" y="915" type="curve" smooth="yes"/>
      <point x="1" y="85" type="line" smooth="yes"/>
      <point x="-6" y="35"/>
      <point x="36" y="-6"/>
      <point x="94" y="-6" type="curve" smooth="yes"/>
      <point x="152" y="-6"/>
      <point x="204" y="35"/>
      <point x="211" y="85" type="curve" smooth="yes"/>
    </contour>
  </outline>
</glyph>
<glyph name="m" format="1">
  <advance width="1120"/>
  <unicode hex="006D"/>
  <outline>
    <contour>
      <point x="1" y="85" type="line" smooth="yes"/>
      <point x="-6" y="35"/>
      <point x="36" y="-6"/>
      <point x="94" y="-6" type="curve" smooth="yes"/>
      <point x="152" y="-6"/>
      <point x="204" y="35"/>
      <point x="211" y="85" type="curve" smooth="yes"/>
      <point x="259" y="455" type="line"/>
      <point x="259" y="455"/>
      <point x="305" y="514"/>
      <point x="353" y="514" type="curve" smooth="yes"/>
      <point x="389" y="514"/>
      <point x="415" y="487"/>
      <point x="411" y="455" type="curve" smooth="yes"/>
      <point x="363" y="85" type="line" smooth="yes"/>
      <point x="356" y="35"/>
      <point x="398" y="-6"/>
      <point x="456" y="-6" type="curve" smooth="yes"/>
      <point x="514" y="-6"/>
      <point x="566" y="35"/>
      <point x="573" y="85" type="curve" smooth="yes"/>
      <point x="621" y="455" type="line"/>
      <point x="621" y="455"/>
      <point x="667" y="514"/>
      <point x="715" y="514" type="curve" smooth="yes"/>
      <point x="751" y="514"/>
      <point x="777" y="487"/>
      <point x="773" y="455" type="curve" smooth="yes"/>
      <point x="725" y="85" type="line" smooth="yes"/>
      <point x="718" y="35"/>
      <point x="760" y="-6"/>
      <point x="818" y="-6" type="curve" smooth="yes"/>
      <point x="876" y="-6"/>
      <point x="928" y="35"/>
      <point x="935" y="85" type="curve" smooth="yes"/>
      <point x="983" y="455" type="line" smooth="yes"/>
      <point x="997" y="563"/>
      <point x="911" y="650"/>
      <point x="791" y="650" type="curve" smooth="yes"/>
      <point x="720" y="650"/>
      <point x="650" y="608"/>
      <point x="600" y="561" type="curve"/>
      <point x="568" y="615"/>
      <point x="506" y="650"/>
      <point x="429" y="650" type="curve" smooth="yes"/>
      <point x="373" y="650"/>
      <point x="318" y="624"/>
      <point x="272" y="590" type="curve"/>
      <point x="265" y="628"/>
      <point x="228" y="656"/>
      <point x="180" y="656" type="curve" smooth="yes"/>
      <point x="122" y="656"/>
      <point x="70" y="615"/>
      <point x="63" y="565" type="curve" smooth="yes"/>
    </contour>
  </outline>
</glyph>
<glyph name="n" format="1">
  <advance width="758"/>
  <unicode hex="006E"/>
  <outline>
    <contour>
      <point x="1" y="85" type="line" smooth="yes"/>
      <point x="-6" y="35"/>
      <point x="36" y="-6"/>
      <point x="94" y="-6" type="curve" smooth="yes"/>
      <point x="152" y="-6"/>
      <point x="204" y="35"/>
      <point x="211" y="85" type="curve" smooth="yes"/>
      <point x="259" y="455" type="line"/>
      <point x="259" y="455"/>
      <point x="305" y="514"/>
      <point x="353" y="514" type="curve" smooth="yes"/>
      <point x="389" y="514"/>
      <point x="415" y="487"/>
      <point x="411" y="455" type="curve" smooth="yes"/>
      <point x="363" y="85" type="line" smooth="yes"/>
      <point x="356" y="35"/>
      <point x="398" y="-6"/>
      <point x="456" y="-6" type="curve" smooth="yes"/>
      <point x="514" y="-6"/>
      <point x="566" y="35"/>
      <point x="573" y="85" type="curve" smooth="yes"/>
      <point x="621" y="455" type="line" smooth="yes"/>
      <point x="635" y="563"/>
      <point x="549" y="650"/>
      <point x="429" y="650" type="curve" smooth="yes"/>
      <point x="373" y="650"/>
      <point x="318" y="624"/>
      <point x="272" y="590" type="curve"/>
      <point x="265" y="628"/>
      <point x="228" y="656"/>
      <point x="180" y="656" type="curve" smooth="yes"/>
      <point x="122" y="656"/>
      <point x="70" y="615"/>
      <point x="63" y="565" type="curve" smooth="yes"/>
    </contour>
  </outline>
</glyph>
<glyph name="p" format="1">
  <advance width="856"/>
  <unicode hex="0070"/>
  <outline>
    <contour>
      <point x="281" y="325" type="curve" smooth="yes"/>
      <point x="291" y="400"/>
      <point x="349" y="462"/>
      <point x="410" y="462" type="curve" smooth="yes"/>
      <point x="472" y="462"/>
      <point x="514" y="400"/>
      <point x="504" y="325" type="curve" smooth="yes"/>
      <point x="494" y="250"/>
      <point x="436" y="188"/>
      <point x="375" y="188" type="curve" smooth="yes"/>
      <point x="313" y="188"/>
      <point x="271" y="250"/>
    </contour>
    <contour>
      <point x="242" y="26" type="line"/>
      <point x="273" y="6"/>
      <point x="310" y="-6"/>
      <point x="349" y="-6" type="curve" smooth="yes"/>
      <point x="529" y="-6"/>
      <point x="694" y="142"/>
      <point x="717" y="325" type="curve" smooth="yes"/>
      <point x="741" y="508"/>
      <point x="615" y="656"/>
      <point x="435" y="656" type="curve" smooth="yes"/>
      <point x="389" y="656"/>
      <point x="344" y="640"/>
      <point x="302" y="613" type="curve"/>
      <point x="287" y="639"/>
      <point x="256" y="656"/>
      <point x="219" y="656" type="curve" smooth="yes"/>
      <point x="161" y="656"/>
      <point x="109" y="615"/>
      <point x="102" y="565" type="curve" smooth="yes"/>
      <point x="1" y="-215" type="line" smooth="yes"/>
      <point x="-6" y="-265"/>
      <point x="36" y="-306"/>
      <point x="94" y="-306" type="curve" smooth="yes"/>
      <point x="152" y="-306"/>
      <point x="204" y="-265"/>
      <point x="211" y="-215" type="curve" smooth="yes"/>
    </contour>
  </outline>
</glyph>
<glyph name="q" format="1">
  <advance width="817"/>
  <unicode hex="0071"/>
  <outline>
    <contour>
      <point x="439" y="325" type="curve" smooth="yes"/>
      <point x="430" y="250"/>
      <point x="372" y="188"/>
      <point x="310" y="188" type="curve" smooth="yes"/>
      <point x="248" y="188"/>
      <point x="206" y="250"/>
      <point x="216" y="325" type="curve" smooth="yes"/>
      <point x="226" y="400"/>
      <point x="284" y="462"/>
      <point x="346" y="462" type="curve" smooth="yes"/>
      <point x="407" y="462"/>
      <point x="449" y="400"/>
    </contour>
    <contour>
      <point x="400" y="26" type="curve"/>
      <point x="369" y="-215" type="line" smooth="yes"/>
      <point x="363" y="-265"/>
      <point x="404" y="-306"/>
      <point x="462" y="-306" type="curve" smooth="yes"/>
      <point x="520" y="-306"/>
      <point x="573" y="-265"/>
      <point x="579" y="-215" type="curve" smooth="yes"/>
      <point x="681" y="565" type="line" smooth="yes"/>
      <point x="687" y="615"/>
      <point x="645" y="656"/>
      <point x="587" y="656" type="curve" smooth="yes"/>
      <point x="550" y="656"/>
      <point x="515" y="639"/>
      <point x="493" y="613" type="curve"/>
      <point x="459" y="640"/>
      <point x="417" y="656"/>
      <point x="371" y="656" type="curve" smooth="yes"/>
      <point x="191" y="656"/>
      <point x="27" y="508"/>
      <point x="3" y="325" type="curve" smooth="yes"/>
      <point x="-21" y="142"/>
      <point x="105" y="-6"/>
      <point x="285" y="-6" type="curve" smooth="yes"/>
      <point x="325" y="-6"/>
      <point x="364" y="6"/>
    </contour>
  </outline>
</glyph>
<glyph name="r" format="1">
  <advance width="716"/>
  <unicode hex="0072"/>
  <outline>
    <contour>
      <point x="1" y="85" type="line" smooth="yes"/>
      <point x="-6" y="35"/>
      <point x="36" y="-6"/>
      <point x="94" y="-6" type="curve" smooth="yes"/>
      <point x="152" y="-6"/>
      <point x="204" y="35"/>
      <point x="211" y="85" type="curve" smooth="yes"/>
      <point x="245" y="345" type="line" smooth="yes"/>
      <point x="252" y="406"/>
      <point x="353" y="456"/>
      <point x="469" y="456" type="curve" smooth="yes"/>
      <point x="523" y="456"/>
      <point x="572" y="499"/>
      <point x="579" y="553" type="curve" smooth="yes"/>
      <point x="586" y="607"/>
      <point x="548" y="650"/>
      <point x="494" y="650" type="curve" smooth="yes"/>
      <point x="378" y="650"/>
      <point x="278" y="601"/>
      <point x="270" y="540" type="curve"/>
      <point x="273" y="565" type="line" smooth="yes"/>
      <point x="280" y="615"/>
      <point x="238" y="656"/>
      <point x="180" y="656" type="curve" smooth="yes"/>
      <point x="122" y="656"/>
      <point x="70" y="615"/>
      <point x="63" y="565" type="curve" smooth="yes"/>
    </contour>
  </outline>
</glyph>
<glyph name="s" format="1">
  <advance width="677"/>
  <unicode hex="0073"/>
  <outline>
    <contour>
      <point x="509" y="208" type="curve" smooth="yes"/>
      <point x="524" y="326"/>
      <point x="411" y="381"/>
      <point x="303" y="418" type="curve" smooth="yes"/>
      <point x="293" y="421"/>
      <point x="248" y="431"/>
      <point x="249" y="442" type="curve" smooth="yes"/>
      <point x="250" y="453"/>
      <point x="262" y="462"/>
      <point x="275" y="462" type="curve" smooth="yes"/>
      <point x="322" y="462"/>
      <point x="352" y="433"/>
      <point x="387" y="412" type="curve" smooth="yes"/>
      <point x="429" y="387"/>
      <point x="490" y="405"/>
      <point x="522" y="453" type="curve" smooth="yes"/>
      <point x="554" y="500"/>
      <point x="546" y="559"/>
      <point x="503" y="584" type="curve" smooth="yes"/>
      <point x="440" y="622"/>
      <point x="382" y="656"/>
      <point x="301" y="656" type="curve" smooth="yes"/>
      <point x="171" y="656"/>
      <point x="53" y="560"/>
      <point x="38" y="442" type="curve" smooth="yes"/>
      <point x="23" y="324"/>
      <point x="111" y="269"/>
      <point x="219" y="232" type="curve" smooth="yes"/>
      <point x="228" y="229"/>
      <point x="298" y="219"/>
      <point x="297" y="208" type="curve" smooth="yes"/>
      <point x="296" y="197"/>
      <point x="266" y="188"/>
      <point x="230" y="188" type="curve" smooth="yes"/>
      <point x="194" y="188"/>
      <point x="178" y="225"/>
      <point x="152" y="239" type="curve" smooth="yes"/>
      <point x="109" y="263"/>
      <point x="49" y="243"/>
      <point x="18" y="195" type="curve" smooth="yes"/>
      <point x="-13" y="146"/>
      <point x="-3" y="88"/>
      <point x="41" y="64" type="curve" smooth="yes"/>
      <point x="93" y="36"/>
      <point x="137" y="-6"/>
      <point x="205" y="-6" type="curve" smooth="yes"/>
      <point x="358" y="-6"/>
      <point x="494" y="90"/>
    </contour>
  </outline>
</glyph>
<glyph name="t" format="1">
  <advance width="690"/>
  <unicode hex="0074"/>
  <outline>
    <contour>
      <point x="169" y="650" type="line"/>
      <point x="111" y="650" type="line" smooth="yes"/>
      <point x="57" y="650"/>
      <point x="8" y="607"/>
      <point x="1" y="553" type="curve" smooth="yes"/>
      <point x="-6" y="499"/>
      <point x="32" y="456"/>
      <point x="86" y="456" type="curve" smooth="yes"/>
      <point x="144" y="456" type="line"/>
      <point x="113" y="218" type="line" smooth="yes"/>
      <point x="103" y="144"/>
      <point x="130" y="81"/>
      <point x="189" y="37" type="curve" smooth="yes"/>
      <point x="248" y="-7"/>
      <point x="323" y="-18"/>
      <point x="402" y="5" type="curve" smooth="yes"/>
      <point x="454" y="23"/>
      <point x="487" y="78"/>
      <point x="476" y="129" type="curve" smooth="yes"/>
      <point x="465" y="180"/>
      <point x="414" y="207"/>
      <point x="362" y="190" type="curve" smooth="yes"/>
      <point x="351" y="187"/>
      <point x="341" y="188"/>
      <point x="333" y="194" type="curve" smooth="yes"/>
      <point x="325" y="200"/>
      <point x="321" y="209"/>
      <point x="323" y="218" type="curve"/>
      <point x="354" y="456" type="line"/>
      <point x="444" y="456" type="line" smooth="yes"/>
      <point x="498" y="456"/>
      <point x="547" y="499"/>
      <point x="554" y="553" type="curve" smooth="yes"/>
      <point x="561" y="607"/>
      <point x="523" y="650"/>
      <point x="469" y="650" type="curve" smooth="yes"/>
      <point x="379" y="650" type="line"/>
      <point x="393" y="760" type="line" smooth="yes"/>
      <point x="400" y="810"/>
      <point x="358" y="851"/>
      <point x="300" y="851" type="curve" smooth="yes"/>
      <point x="242" y="851"/>
      <point x="190" y="810"/>
      <point x="183" y="760" type="curve" smooth="yes"/>
    </contour>
  </outline>
</glyph>
<glyph name="v" format="1">
  <advance width="751"/>
  <unicode hex="0076"/>
  <outline>
    <contour>
      <point x="129" y="60" type="line" smooth="yes"/>
      <point x="141" y="20"/>
      <point x="179" y="-5"/>
      <point x="228" y="-6" type="curve" smooth="yes"/>
      <point x="277" y="-6"/>
      <point x="323" y="18"/>
      <point x="345" y="58" type="curve" smooth="yes"/>
      <point x="605" y="531" type="line" smooth="yes"/>
      <point x="630" y="577"/>
      <point x="609" y="630"/>
      <point x="558" y="649" type="curve" smooth="yes"/>
      <point x="507" y="668"/>
      <point x="444" y="646"/>
      <point x="419" y="599" type="curve" smooth="yes"/>
      <point x="273" y="313" type="line"/>
      <point x="207" y="598" type="line" smooth="yes"/>
      <point x="194" y="645"/>
      <point x="138" y="668"/>
      <point x="82" y="650" type="curve" smooth="yes"/>
      <point x="26" y="632"/>
      <point x="-10" y="579"/>
      <point x="3" y="532" type="curve" smooth="yes"/>
    </contour>
  </outline>
</glyph>
<glyph name="x" format="1">
  <advance width="813"/>
  <unicode hex="0078"/>
  <outline>
    <contour>
      <point x="319" y="171" type="line"/>
      <point x="418" y="32" type="line" smooth="yes"/>
      <point x="447" y="-9"/>
      <point x="511" y="-18"/>
      <point x="562" y="11" type="curve" smooth="yes"/>
      <point x="613" y="41"/>
      <point x="631" y="97"/>
      <point x="602" y="138" type="curve" smooth="yes"/>
      <point x="469" y="325" type="line"/>
      <point x="650" y="512" type="line" smooth="yes"/>
      <point x="690" y="553"/>
      <point x="687" y="609"/>
      <point x="644" y="639" type="curve" smooth="yes"/>
      <point x="600" y="668"/>
      <point x="534" y="659"/>
      <point x="494" y="618" type="curve" smooth="yes"/>
      <point x="359" y="479" type="line"/>
      <point x="260" y="618" type="line" smooth="yes"/>
      <point x="231" y="659"/>
      <point x="167" y="668"/>
      <point x="116" y="639" type="curve" smooth="yes"/>
      <point x="65" y="609"/>
      <point x="47" y="553"/>
      <point x="76" y="512" type="curve" smooth="yes"/>
      <point x="209" y="325" type="line"/>
      <point x="28" y="138" type="line" smooth="yes"/>
      <point x="-12" y="97"/>
      <point x="-9" y="41"/>
      <point x="34" y="11" type="curve" smooth="yes"/>
      <point x="78" y="-18"/>
      <point x="144" y="-9"/>
      <point x="184" y="32" type="curve" smooth="yes"/>
    </contour>
  </outline>
</glyph>
<glyph name="y" format="1">
  <advance width="788"/>
  <unicode hex="0079"/>
  <outline>
    <contour>
      <point x="12" y="-176" type="line" smooth="yes"/>
      <point x="-15" y="-222"/>
      <point x="5" y="-276"/>
      <point x="54" y="-298" type="curve" smooth="yes"/>
      <point x="104" y="-319"/>
      <point x="166" y="-298"/>
      <point x="193" y="-253" type="curve" smooth="yes"/>
      <point x="641" y="526" type="line" smooth="yes"/>
      <point x="667" y="572"/>
      <point x="648" y="626"/>
      <point x="598" y="648" type="curve" smooth="yes"/>
      <point x="548" y="669"/>
      <point x="486" y="648"/>
      <point x="460" y="603" type="curve" smooth="yes"/>
      <point x="322" y="363" type="line"/>
      <point x="246" y="603" type="line" smooth="yes"/>
      <point x="232" y="648"/>
      <point x="175" y="669"/>
      <point x="120" y="648" type="curve" smooth="yes"/>
      <point x="64" y="626"/>
      <point x="31" y="572"/>
      <point x="46" y="526" type="curve" smooth="yes"/>
      <point x="177" y="110" type="line"/>
    </contour>
  </outline>
</glyph>
<glyph name="z" format="1">
  <advance width="809"/>
  <unicode hex="007A"/>
  <outline>
    <contour>
      <point x="504" y="0" type="line" smooth="yes"/>
      <point x="558" y="0"/>
      <point x="607" y="43"/>
      <point x="614" y="97" type="curve" smooth="yes"/>
      <point x="621" y="151"/>
      <point x="583" y="194"/>
      <point x="529" y="194" type="curve" smooth="yes"/>
      <point x="332" y="194" type="line"/>
      <point x="633" y="469" type="line" smooth="yes"/>
      <point x="667" y="501"/>
      <point x="681" y="545"/>
      <point x="669" y="585" type="curve" smooth="yes"/>
      <point x="657" y="625"/>
      <point x="622" y="650"/>
      <point x="578" y="650" type="curve" smooth="yes"/>
      <point x="170" y="650" type="line" smooth="yes"/>
      <point x="116" y="650"/>
      <point x="66" y="607"/>
      <point x="59" y="553" type="curve" smooth="yes"/>
      <point x="52" y="499"/>
      <point x="90" y="456"/>
      <point x="144" y="456" type="curve" smooth="yes"/>
      <point x="341" y="456" type="line"/>
      <point x="41" y="181" type="line" smooth="yes"/>
      <point x="6" y="149"/>
      <point x="-8" y="105"/>
      <point x="4" y="65" type="curve" smooth="yes"/>
      <point x="16" y="25"/>
      <point x="51" y="0"/>
      <point x="95" y="0" type="curve" smooth="yes"/>
    </contour>
  </outline>
</glyph>
<glyph name="braceleft" format="1">
  <advance width="654"/>
  <unicode hex="007B"/>
  <outline>
    <contour>
      <point x="215" y="500" type="curve"/>
      <point x="260" y="523"/>
      <point x="296" y="562"/>
      <point x="303" y="618" type="curve" smooth="yes"/>
      <point x="332" y="839" type="line" smooth="yes"/>
      <point x="337" y="876"/>
      <point x="370" y="906"/>
      <point x="407" y="906" type="curve" smooth="yes"/>
      <point x="461" y="906"/>
      <point x="510" y="949"/>
      <point x="517" y="1003" type="curve" smooth="yes"/>
      <point x="524" y="1057"/>
      <point x="486" y="1100"/>
      <point x="432" y="1100" type="curve" smooth="yes"/>
      <point x="288" y="1100"/>
      <point x="181" y="969"/>
      <point x="164" y="839" type="curve" smooth="yes"/>
      <point x="135" y="618" type="line" smooth="yes"/>
      <point x="134" y="607"/>
      <point x="123" y="597"/>
      <point x="111" y="597" type="curve" smooth="yes"/>
      <point x="57" y="597"/>
      <point x="8" y="554"/>
      <point x="1" y="500" type="curve" smooth="yes"/>
      <point x="-6" y="446"/>
      <point x="32" y="403"/>
      <point x="86" y="403" type="curve" smooth="yes"/>
      <point x="98" y="403"/>
      <point x="106" y="393"/>
      <point x="104" y="382" type="curve"/>
      <point x="76" y="161" type="line" smooth="yes"/>
      <point x="59" y="31"/>
      <point x="132" y="-100"/>
      <point x="276" y="-100" type="curve" smooth="yes"/>
      <point x="330" y="-100"/>
      <point x="380" y="-57"/>
      <point x="387" y="-3" type="curve" smooth="yes"/>
      <point x="394" y="51"/>
      <point x="355" y="94"/>
      <point x="301" y="94" type="curve" smooth="yes"/>
      <point x="265" y="94"/>
      <point x="239" y="124"/>
      <point x="244" y="161" type="curve" smooth="yes"/>
      <point x="272" y="382" type="line" smooth="yes"/>
      <point x="280" y="438"/>
      <point x="253" y="477"/>
    </contour>
  </outline>
</glyph>
<glyph name="bar" format="1">
  <advance width="481"/>
  <unicode hex="007C"/>
  <outline>
    <contour>
      <point x="345" y="1015" type="line" smooth="yes"/>
      <point x="351" y="1065"/>
      <point x="309" y="1106"/>
      <point x="251" y="1106" type="curve" smooth="yes"/>
      <point x="193" y="1106"/>
      <point x="141" y="1065"/>
      <point x="135" y="1015" type="curve" smooth="yes"/>
      <point x="1" y="-15" type="line" smooth="yes"/>
      <point x="-6" y="-65"/>
      <point x="36" y="-106"/>
      <point x="94" y="-106" type="curve" smooth="yes"/>
      <point x="152" y="-106"/>
      <point x="204" y="-65"/>
      <point x="211" y="-15" type="curve" smooth="yes"/>
    </contour>
  </outline>
</glyph>
<glyph name="braceright" format="1">
  <advance width="654"/>
  <unicode hex="007D"/>
  <outline>
    <contour>
      <point x="303" y="500" type="curve"/>
      <point x="259" y="477"/>
      <point x="222" y="438"/>
      <point x="215" y="382" type="curve" smooth="yes"/>
      <point x="186" y="161" type="line" smooth="yes"/>
      <point x="181" y="124"/>
      <point x="148" y="94"/>
      <point x="111" y="94" type="curve" smooth="yes"/>
      <point x="57" y="94"/>
      <point x="8" y="51"/>
      <point x="1" y="-3" type="curve" smooth="yes"/>
      <point x="-6" y="-57"/>
      <point x="32" y="-100"/>
      <point x="86" y="-100" type="curve" smooth="yes"/>
      <point x="230" y="-100"/>
      <point x="337" y="31"/>
      <point x="354" y="161" type="curve" smooth="yes"/>
      <point x="383" y="382" type="line" smooth="yes"/>
      <point x="384" y="393"/>
      <point x="395" y="403"/>
      <point x="407" y="403" type="curve" smooth="yes"/>
      <point x="461" y="403"/>
      <point x="510" y="446"/>
      <point x="517" y="500" type="curve" smooth="yes"/>
      <point x="524" y="554"/>
      <point x="486" y="597"/>
      <point x="432" y="597" type="curve" smooth="yes"/>
      <point x="420" y="597"/>
      <point x="412" y="607"/>
      <point x="414" y="618" type="curve"/>
      <point x="442" y="839" type="line" smooth="yes"/>
      <point x="459" y="969"/>
      <point x="386" y="1100"/>
      <point x="242" y="1100" type="curve" smooth="yes"/>
      <point x="188" y="1100"/>
      <point x="139" y="1057"/>
      <point x="132" y="1003" type="curve" smooth="yes"/>
      <point x="125" y="949"/>
      <point x="163" y="906"/>
      <point x="217" y="906" type="curve" smooth="yes"/>
      <point x="253" y="906"/>
      <point x="279" y="876"/>
      <point x="274" y="839" type="curve" smooth="yes"/>
      <point x="246" y="618" type="line" smooth="yes"/>
      <point x="238" y="562"/>
      <point x="265" y="523"/>
    </contour>
  </outline>
</glyph>
<glyph name="asciitilde" format="1">
  <advance width="692"/>
  <unicode hex="007E"/>
  <outline>
    <contour>
      <point x="156" y="443" type="curve" smooth="yes"/>
      <point x="178" y="476"/>
      <point x="213" y="432"/>
      <point x="222" y="427" type="curve" smooth="yes"/>
      <point x="315" y="372"/>
      <point x="463" y="376"/>
      <point x="542" y="493" type="curve" smooth="yes"/>
      <point x="559" y="518"/>
      <point x="561" y="548"/>
      <point x="547" y="574" type="curve" smooth="yes"/>
      <point x="533" y="600"/>
      <point x="508" y="615"/>
      <point x="476" y="616" type="curve" smooth="yes"/>
      <point x="445" y="616"/>
      <point x="418" y="602"/>
      <point x="401" y="577" type="curve" smooth="yes"/>
      <point x="378" y="544"/>
      <point x="343" y="588"/>
      <point x="334" y="593" type="curve" smooth="yes"/>
      <point x="241" y="648"/>
      <point x="94" y="644"/>
      <point x="14" y="527" type="curve" smooth="yes"/>
      <point x="-12" y="489"/>
      <point x="-1" y="439"/>
      <point x="38" y="416" type="curve" smooth="yes"/>
      <point x="77" y="393"/>
      <point x="130" y="405"/>
    </contour>
  </outline>
</glyph>
<glyph name="exclamdown" format="1">
  <advance width="468"/>
  <unicode hex="00A1"/>
  <outline>
    <contour>
      <point x="328" y="882" type="curve" smooth="yes"/>
      <point x="332" y="909" type="line" smooth="yes"/>
      <point x="339" y="962"/>
      <point x="294" y="1006"/>
      <point x="232" y="1006" type="curve" smooth="yes"/>
      <point x="170" y="1006"/>
      <point x="114" y="962"/>
      <point x="107" y="909" type="curve" smooth="yes"/>
      <point x="104" y="882" type="line" smooth="yes"/>
      <point x="97" y="829"/>
      <point x="141" y="785"/>
      <point x="203" y="785" type="curve" smooth="yes"/>
      <point x="265" y="785"/>
      <point x="321" y="829"/>
    </contour>
    <contour>
      <point x="225" y="91" type="curve" smooth="yes"/>
      <point x="273" y="571" type="line" smooth="yes"/>
      <point x="279" y="618"/>
      <point x="240" y="655"/>
      <point x="186" y="655" type="curve" smooth="yes"/>
      <point x="132" y="655"/>
      <point x="84" y="618"/>
      <point x="78" y="571" type="curve" smooth="yes"/>
      <point x="1" y="91" type="line" smooth="yes"/>
      <point x="-6" y="38"/>
      <point x="38" y="-6"/>
      <point x="100" y="-6" type="curve" smooth="yes"/>
      <point x="163" y="-6"/>
      <point x="218" y="38"/>
    </contour>
  </outline>
</glyph>
<glyph name="dieresis" format="1">
  <advance width="732"/>
  <unicode hex="00A8"/>
  <outline>
    <contour>
      <point x="212" y="915" type="line"/>
      <point x="219" y="965"/>
      <point x="177" y="1006"/>
      <point x="119" y="1006" type="curve" smooth="yes"/>
      <point x="61" y="1006"/>
      <point x="9" y="965"/>
      <point x="2" y="915" type="curve"/>
      <point x="1" y="902" type="line"/>
      <point x="-6" y="852"/>
      <point x="36" y="812"/>
      <point x="94" y="812" type="curve" smooth="yes"/>
      <point x="152" y="812"/>
      <point x="204" y="852"/>
      <point x="211" y="902" type="curve"/>
    </contour>
    <contour>
      <point x="596" y="915" type="line" smooth="yes"/>
      <point x="602" y="965"/>
      <point x="560" y="1006"/>
      <point x="502" y="1006" type="curve" smooth="yes"/>
      <point x="444" y="1006"/>
      <point x="392" y="965"/>
      <point x="386" y="915" type="curve" smooth="yes"/>
      <point x="384" y="902" type="line" smooth="yes"/>
      <point x="377" y="852"/>
      <point x="419" y="812"/>
      <point x="477" y="812" type="curve" smooth="yes"/>
      <point x="535" y="812"/>
      <point x="587" y="852"/>
      <point x="594" y="902" type="curve" smooth="yes"/>
    </contour>
  </outline>
</glyph>
<glyph name="macron" format="1">
  <advance width="637"/>
  <unicode hex="00AF"/>
  <outline>
    <contour>
      <point x="390" y="781" type="line" smooth="yes"/>
      <point x="444" y="781"/>
      <point x="494" y="824"/>
      <point x="501" y="878" type="curve" smooth="yes"/>
      <point x="508" y="932"/>
      <point x="470" y="975"/>
      <point x="416" y="975" type="curve" smooth="yes"/>
      <point x="111" y="975" type="line" smooth="yes"/>
      <point x="57" y="975"/>
      <point x="8" y="932"/>
      <point x="1" y="878" type="curve" smooth="yes"/>
      <point x="-6" y="824"/>
      <point x="32" y="781"/>
      <point x="86" y="781" type="curve" smooth="yes"/>
    </contour>
  </outline>
</glyph>
<glyph name="acute" format="1">
  <advance width="467"/>
  <unicode hex="00B4"/>
  <outline>
    <contour>
      <point x="169" y="978" type="curve" smooth="yes"/>
      <point x="20" y="827" type="line" smooth="yes"/>
      <point x="-4" y="804"/>
      <point x="-7" y="767"/>
      <point x="13" y="739" type="curve" smooth="yes"/>
      <point x="32" y="712"/>
      <point x="67" y="703"/>
      <point x="96" y="719" type="curve" smooth="yes"/>
      <point x="281" y="818" type="line" smooth="yes"/>
      <point x="315" y="836"/>
      <point x="334" y="871"/>
      <point x="331" y="911" type="curve" smooth="yes"/>
      <point x="329" y="951"/>
      <point x="306" y="984"/>
      <point x="270" y="998" type="curve" smooth="yes"/>
      <point x="234" y="1013"/>
      <point x="196" y="1006"/>
    </contour>
  </outline>
</glyph>
<glyph name="periodcentered" format="1">
  <advance width="372"/>
  <unicode hex="00B7"/>
  <outline>
    <contour>
      <point x="236" y="516" type="line" smooth="yes"/>
      <point x="243" y="571"/>
      <point x="197" y="616"/>
      <point x="133" y="616" type="curve" smooth="yes"/>
      <point x="70" y="616"/>
      <point x="12" y="571"/>
      <point x="5" y="516" type="curve" smooth="yes"/>
      <point x="1" y="484" type="line" smooth="yes"/>
      <point x="-6" y="429"/>
      <point x="39" y="384"/>
      <point x="103" y="384" type="curve" smooth="yes"/>
      <point x="167" y="384"/>
      <point x="225" y="429"/>
      <point x="232" y="484" type="curve" smooth="yes"/>
    </contour>
  </outline>
</glyph>
<glyph name="Agrave" format="1">
  <advance width="994"/>
  <unicode hex="00C0"/>
  <outline>
    <contour>
      <point x="384" y="417" type="line"/>
      <point x="503" y="652" type="line"/>
      <point x="561" y="417" type="line"/>
    </contour>
    <contour>
      <point x="650" y="57" type="line" smooth="yes"/>
      <point x="661" y="9"/>
      <point x="717" y="-17"/>
      <point x="774" y="-1" type="curve" smooth="yes"/>
      <point x="831" y="14"/>
      <point x="868" y="65"/>
      <point x="857" y="113" type="curve" smooth="yes"/>
      <point x="655" y="934" type="line" smooth="yes"/>
      <point x="644" y="978"/>
      <point x="602" y="1006"/>
      <point x="549" y="1006" type="curve" smooth="yes"/>
      <point x="496" y="1006"/>
      <point x="447" y="978"/>
      <point x="425" y="934" type="curve" smooth="yes"/>
      <point x="9" y="113" type="line" smooth="yes"/>
      <point x="-15" y="65"/>
      <point x="9" y="14"/>
      <point x="62" y="-1" type="curve" smooth="yes"/>
      <point x="115" y="-17"/>
      <point x="178" y="9"/>
      <point x="202" y="57" type="curve" smooth="yes"/>
      <point x="286" y="223" type="line"/>
      <point x="609" y="223" type="line"/>
    </contour>
    <contour>
      <point x="547" y="1356" type="line" smooth="yes"/>
      <point x="527" y="1383"/>
      <point x="491" y="1391"/>
      <point x="451" y="1376" type="curve" smooth="yes"/>
      <point x="411" y="1361"/>
      <point x="380" y="1329"/>
      <point x="367" y="1289" type="curve" smooth="yes"/>
      <point x="354" y="1249"/>
      <point x="364" y="1214"/>
      <point x="394" y="1195" type="curve" smooth="yes"/>
      <point x="553" y="1096" type="line" smooth="yes"/>
      <point x="578" y="1081"/>
      <point x="615" y="1090"/>
      <point x="641" y="1117" type="curve" smooth="yes"/>
      <point x="668" y="1145"/>
      <point x="674" y="1182"/>
      <point x="657" y="1205" type="curve" smooth="yes"/>
    </contour>
  </outline>
</glyph>
<glyph name="Aacute" format="1">
  <advance width="994"/>
  <unicode hex="00C1"/>
  <outline>
    <contour>
      <point x="384" y="417" type="line"/>
      <point x="503" y="652" type="line"/>
      <point x="561" y="417" type="line"/>
    </contour>
    <contour>
      <point x="650" y="57" type="line" smooth="yes"/>
      <point x="661" y="9"/>
      <point x="717" y="-17"/>
      <point x="774" y="-1" type="curve" smooth="yes"/>
      <point x="831" y="14"/>
      <point x="868" y="65"/>
      <point x="857" y="113" type="curve" smooth="yes"/>
      <point x="655" y="934" type="line" smooth="yes"/>
      <point x="644" y="978"/>
      <point x="602" y="1006"/>
      <point x="549" y="1006" type="curve" smooth="yes"/>
      <point x="496" y="1006"/>
      <point x="447" y="978"/>
      <point x="425" y="934" type="curve" smooth="yes"/>
      <point x="9" y="113" type="line" smooth="yes"/>
      <point x="-15" y="65"/>
      <point x="9" y="14"/>
      <point x="62" y="-1" type="curve" smooth="yes"/>
      <point x="115" y="-17"/>
      <point x="178" y="9"/>
      <point x="202" y="57" type="curve" smooth="yes"/>
      <point x="286" y="223" type="line"/>
      <point x="609" y="223" type="line"/>
    </contour>
    <contour>
      <point x="642" y="1356" type="curve" smooth="yes"/>
      <point x="493" y="1205" type="line" smooth="yes"/>
      <point x="470" y="1182"/>
      <point x="467" y="1145"/>
      <point x="486" y="1117" type="curve" smooth="yes"/>
      <point x="505" y="1090"/>
      <point x="540" y="1081"/>
      <point x="569" y="1096" type="curve" smooth="yes"/>
      <point x="754" y="1195" type="line" smooth="yes"/>
      <point x="788" y="1214"/>
      <point x="807" y="1249"/>
      <point x="805" y="1289" type="curve" smooth="yes"/>
      <point x="802" y="1329"/>
      <point x="779" y="1361"/>
      <point x="744" y="1376" type="curve" smooth="yes"/>
      <point x="708" y="1391"/>
      <point x="670" y="1383"/>
    </contour>
  </outline>
</glyph>
<glyph name="Acircumflex" format="1">
  <advance width="994"/>
  <unicode hex="00C2"/>
  <outline>
    <contour>
      <point x="384" y="417" type="line"/>
      <point x="503" y="652" type="line"/>
      <point x="561" y="417" type="line"/>
    </contour>
    <contour>
      <point x="650" y="57" type="line" smooth="yes"/>
      <point x="661" y="9"/>
      <point x="717" y="-17"/>
      <point x="774" y="-1" type="curve" smooth="yes"/>
      <point x="831" y="14"/>
      <point x="868" y="65"/>
      <point x="857" y="113" type="curve" smooth="yes"/>
      <point x="655" y="934" type="line" smooth="yes"/>
      <point x="644" y="978"/>
      <point x="602" y="1006"/>
      <point x="549" y="1006" type="curve" smooth="yes"/>
      <point x="496" y="1006"/>
      <point x="447" y="978"/>
      <point x="425" y="934" type="curve" smooth="yes"/>
      <point x="9" y="113" type="line" smooth="yes"/>
      <point x="-15" y="65"/>
      <point x="9" y="14"/>
      <point x="62" y="-1" type="curve" smooth="yes"/>
      <point x="115" y="-17"/>
      <point x="178" y="9"/>
      <point x="202" y="57" type="curve" smooth="yes"/>
      <point x="286" y="223" type="line"/>
      <point x="609" y="223" type="line"/>
    </contour>
    <contour>
      <point x="378" y="1245" type="line" smooth="yes"/>
      <point x="361" y="1228"/>
      <point x="349" y="1206"/>
      <point x="347" y="1181" type="curve" smooth="yes"/>
      <point x="342" y="1128"/>
      <point x="381" y="1084"/>
      <point x="433" y="1082" type="curve" smooth="yes"/>
      <point x="461" y="1081"/>
      <point x="488" y="1092"/>
      <point x="507" y="1111" type="curve" smooth="yes"/>
      <point x="571" y="1172" type="line"/>
      <point x="618" y="1111" type="line" smooth="yes"/>
      <point x="633" y="1092"/>
      <point x="656" y="1081"/>
      <point x="685" y="1082" type="curve" smooth="yes"/>
      <point x="738" y="1084"/>
      <point x="788" y="1128"/>
      <point x="797" y="1181" type="curve" smooth="yes"/>
      <point x="801" y="1206"/>
      <point x="795" y="1228"/>
      <point x="783" y="1245" type="curve" smooth="yes"/>
      <point x="691" y="1363" type="line" smooth="yes"/>
      <point x="672" y="1388"/>
      <point x="640" y="1404"/>
      <point x="601" y="1404" type="curve" smooth="yes"/>
      <point x="562" y="1404"/>
      <point x="525" y="1388"/>
      <point x="500" y="1363" type="curve" smooth="yes"/>
    </contour>
  </outline>
</glyph>
<glyph name="Atilde" format="1">
  <advance width="994"/>
  <unicode hex="00C3"/>
  <outline>
    <contour>
      <point x="384" y="417" type="line"/>
      <point x="503" y="652" type="line"/>
      <point x="561" y="417" type="line"/>
    </contour>
    <contour>
      <point x="650" y="57" type="line" smooth="yes"/>
      <point x="661" y="9"/>
      <point x="717" y="-17"/>
      <point x="774" y="-1" type="curve" smooth="yes"/>
      <point x="831" y="14"/>
      <point x="868" y="65"/>
      <point x="857" y="113" type="curve" smooth="yes"/>
      <point x="655" y="934" type="line" smooth="yes"/>
      <point x="644" y="978"/>
      <point x="602" y="1006"/>
      <point x="549" y="1006" type="curve" smooth="yes"/>
      <point x="496" y="1006"/>
      <point x="447" y="978"/>
      <point x="425" y="934" type="curve" smooth="yes"/>
      <point x="9" y="113" type="line" smooth="yes"/>
      <point x="-15" y="65"/>
      <point x="9" y="14"/>
      <point x="62" y="-1" type="curve" smooth="yes"/>
      <point x="115" y="-17"/>
      <point x="178" y="9"/>
      <point x="202" y="57" type="curve" smooth="yes"/>
      <point x="286" y="223" type="line"/>
      <point x="609" y="223" type="line"/>
    </contour>
    <contour>
      <point x="336" y="1132" type="curve" smooth="yes"/>
      <point x="350" y="1158"/>
      <point x="383" y="1123"/>
      <point x="390" y="1119" type="curve" smooth="yes"/>
      <point x="471" y="1075"/>
      <point x="588" y="1079"/>
      <point x="640" y="1172" type="curve" smooth="yes"/>
      <point x="651" y="1192"/>
      <point x="649" y="1216"/>
      <point x="635" y="1236" type="curve" smooth="yes"/>
      <point x="621" y="1257"/>
      <point x="599" y="1269"/>
      <point x="574" y="1270" type="curve" smooth="yes"/>
      <point x="549" y="1271"/>
      <point x="529" y="1259"/>
      <point x="518" y="1239" type="curve" smooth="yes"/>
      <point x="503" y="1213"/>
      <point x="470" y="1248"/>
      <point x="463" y="1252" type="curve" smooth="yes"/>
      <point x="383" y="1296"/>
      <point x="265" y="1292"/>
      <point x="214" y="1199" type="curve" smooth="yes"/>
      <point x="197" y="1169"/>
      <point x="211" y="1129"/>
      <point x="244" y="1110" type="curve" smooth="yes"/>
      <point x="278" y="1092"/>
      <point x="319" y="1102"/>
    </contour>
  </outline>
</glyph>
<glyph name="Adieresis" format="1">
  <advance width="994"/>
  <unicode hex="00C4"/>
  <outline>
    <contour>
      <point x="384" y="417" type="line"/>
      <point x="503" y="652" type="line"/>
      <point x="561" y="417" type="line"/>
    </contour>
    <contour>
      <point x="650" y="57" type="line" smooth="yes"/>
      <point x="661" y="9"/>
      <point x="717" y="-17"/>
      <point x="774" y="-1" type="curve" smooth="yes"/>
      <point x="831" y="14"/>
      <point x="868" y="65"/>
      <point x="857" y="113" type="curve" smooth="yes"/>
      <point x="655" y="934" type="line" smooth="yes"/>
      <point x="644" y="978"/>
      <point x="602" y="1006"/>
      <point x="549" y="1006" type="curve" smooth="yes"/>
      <point x="496" y="1006"/>
      <point x="447" y="978"/>
      <point x="425" y="934" type="curve" smooth="yes"/>
      <point x="9" y="113" type="line" smooth="yes"/>
      <point x="-15" y="65"/>
      <point x="9" y="14"/>
      <point x="62" y="-1" type="curve" smooth="yes"/>
      <point x="115" y="-17"/>
      <point x="178" y="9"/>
      <point x="202" y="57" type="curve" smooth="yes"/>
      <point x="286" y="223" type="line"/>
      <point x="609" y="223" type="line"/>
    </contour>
    <contour>
      <point x="340" y="1179" type="line" smooth="yes"/>
      <point x="340" y="1229"/>
      <point x="293" y="1269"/>
      <point x="235" y="1269" type="curve" smooth="yes"/>
      <point x="177" y="1269"/>
      <point x="130" y="1229"/>
      <point x="130" y="1179" type="curve" smooth="yes"/>
      <point x="130" y="1166" type="line" smooth="yes"/>
      <point x="130" y="1116"/>
      <point x="177" y="1075"/>
      <point x="235" y="1075" type="curve" smooth="yes"/>
      <point x="293" y="1075"/>
      <point x="340" y="1116"/>
      <point x="340" y="1166" type="curve" smooth="yes"/>
    </contour>
    <contour>
      <point x="723" y="1179" type="line" smooth="yes"/>
      <point x="723" y="1229"/>
      <point x="676" y="1269"/>
      <point x="618" y="1269" type="curve" smooth="yes"/>
      <point x="560" y="1269"/>
      <point x="513" y="1229"/>
      <point x="513" y="1179" type="curve" smooth="yes"/>
      <point x="513" y="1166" type="line" smooth="yes"/>
      <point x="513" y="1116"/>
      <point x="560" y="1075"/>
      <point x="618" y="1075" type="curve" smooth="yes"/>
      <point x="676" y="1075"/>
      <point x="723" y="1116"/>
      <point x="723" y="1166" type="curve" smooth="yes"/>
    </contour>
  </outline>
</glyph>
<glyph name="Aring" format="1">
  <advance width="994"/>
  <unicode hex="00C5"/>
  <outline>
    <contour>
      <point x="384" y="417" type="line"/>
      <point x="503" y="652" type="line"/>
      <point x="561" y="417" type="line"/>
    </contour>
    <contour>
      <point x="650" y="57" type="line" smooth="yes"/>
      <point x="661" y="9"/>
      <point x="717" y="-17"/>
      <point x="774" y="-1" type="curve" smooth="yes"/>
      <point x="831" y="14"/>
      <point x="868" y="65"/>
      <point x="857" y="113" type="curve" smooth="yes"/>
      <point x="655" y="934" type="line" smooth="yes"/>
      <point x="644" y="978"/>
      <point x="602" y="1006"/>
      <point x="549" y="1006" type="curve" smooth="yes"/>
      <point x="496" y="1006"/>
      <point x="447" y="978"/>
      <point x="425" y="934" type="curve" smooth="yes"/>
      <point x="9" y="113" type="line" smooth="yes"/>
      <point x="-15" y="65"/>
      <point x="9" y="14"/>
      <point x="62" y="-1" type="curve" smooth="yes"/>
      <point x="115" y="-17"/>
      <point x="178" y="9"/>
      <point x="202" y="57" type="curve" smooth="yes"/>
      <point x="286" y="223" type="line"/>
      <point x="609" y="223" type="line"/>
    </contour>
    <contour>
      <point x="497" y="1314" type="curve" smooth="yes"/>
      <point x="504" y="1362"/>
      <point x="550" y="1401"/>
      <point x="601" y="1401" type="curve" smooth="yes"/>
      <point x="651" y="1401"/>
      <point x="687" y="1362"/>
      <point x="681" y="1314" type="curve" smooth="yes"/>
      <point x="675" y="1266"/>
      <point x="628" y="1227"/>
      <point x="578" y="1227" type="curve" smooth="yes"/>
      <point x="527" y="1227"/>
      <point x="491" y="1266"/>
    </contour>
    <contour>
      <point x="337" y="1314" type="curve" smooth="yes"/>
      <point x="320" y="1185"/>
      <point x="420" y="1081"/>
      <point x="559" y="1081" type="curve" smooth="yes"/>
      <point x="698" y="1081"/>
      <point x="824" y="1185"/>
      <point x="841" y="1314" type="curve" smooth="yes"/>
      <point x="858" y="1443"/>
      <point x="759" y="1547"/>
      <point x="619" y="1547" type="curve" smooth="yes"/>
      <point x="480" y="1547"/>
      <point x="354" y="1443"/>
    </contour>
  </outline>
</glyph>
<glyph name="Egrave" format="1">
  <advance width="868"/>
  <unicode hex="00C8"/>
  <outline>
    <contour>
      <point x="517" y="0" type="line" smooth="yes"/>
      <point x="571" y="0"/>
      <point x="620" y="43"/>
      <point x="627" y="97" type="curve" smooth="yes"/>
      <point x="634" y="151"/>
      <point x="596" y="194"/>
      <point x="542" y="194" type="curve" smooth="yes"/>
      <point x="222" y="194" type="line"/>
      <point x="251" y="413" type="line"/>
      <point x="458" y="413" type="line" smooth="yes"/>
      <point x="512" y="413"/>
      <point x="562" y="456"/>
      <point x="569" y="510" type="curve" smooth="yes"/>
      <point x="576" y="564"/>
      <point x="537" y="607"/>
      <point x="483" y="607" type="curve" smooth="yes"/>
      <point x="276" y="607" type="line"/>
      <point x="302" y="806" type="line"/>
      <point x="621" y="806" type="line" smooth="yes"/>
      <point x="675" y="806"/>
      <point x="725" y="849"/>
      <point x="732" y="903" type="curve" smooth="yes"/>
      <point x="739" y="957"/>
      <point x="701" y="1000"/>
      <point x="647" y="1000" type="curve" smooth="yes"/>
      <point x="238" y="1000" type="line" smooth="yes"/>
      <point x="171" y="1000"/>
      <point x="111" y="953"/>
      <point x="104" y="896" type="curve" smooth="yes"/>
      <point x="1" y="104" type="line" smooth="yes"/>
      <point x="-7" y="47"/>
      <point x="41" y="0"/>
      <point x="108" y="0" type="curve" smooth="yes"/>
    </contour>
    <contour>
      <point x="429" y="1350" type="line" smooth="yes"/>
      <point x="409" y="1377"/>
      <point x="372" y="1385"/>
      <point x="333" y="1370" type="curve" smooth="yes"/>
      <point x="293" y="1356"/>
      <point x="261" y="1323"/>
      <point x="249" y="1283" type="curve" smooth="yes"/>
      <point x="236" y="1243"/>
      <point x="246" y="1208"/>
      <point x="276" y="1190" type="curve" smooth="yes"/>
      <point x="435" y="1090" type="line" smooth="yes"/>
      <point x="460" y="1075"/>
      <point x="497" y="1084"/>
      <point x="523" y="1111" type="curve" smooth="yes"/>
      <point x="549" y="1139"/>
      <point x="556" y="1176"/>
      <point x="539" y="1199" type="curve" smooth="yes"/>
    </contour>
  </outline>
</glyph>
<glyph name="Eacute" format="1">
  <advance width="868"/>
  <unicode hex="00C9"/>
  <outline>
    <contour>
      <point x="517" y="0" type="line" smooth="yes"/>
      <point x="571" y="0"/>
      <point x="620" y="43"/>
      <point x="627" y="97" type="curve" smooth="yes"/>
      <point x="634" y="151"/>
      <point x="596" y="194"/>
      <point x="542" y="194" type="curve" smooth="yes"/>
      <point x="222" y="194" type="line"/>
      <point x="251" y="413" type="line"/>
      <point x="458" y="413" type="line" smooth="yes"/>
      <point x="512" y="413"/>
      <point x="562" y="456"/>
      <point x="569" y="510" type="curve" smooth="yes"/>
      <point x="576" y="564"/>
      <point x="537" y="607"/>
      <point x="483" y="607" type="curve" smooth="yes"/>
      <point x="276" y="607" type="line"/>
      <point x="302" y="806" type="line"/>
      <point x="621" y="806" type="line" smooth="yes"/>
      <point x="675" y="806"/>
      <point x="725" y="849"/>
      <point x="732" y="903" type="curve" smooth="yes"/>
      <point x="739" y="957"/>
      <point x="701" y="1000"/>
      <point x="647" y="1000" type="curve" smooth="yes"/>
      <point x="238" y="1000" type="line" smooth="yes"/>
      <point x="171" y="1000"/>
      <point x="111" y="953"/>
      <point x="104" y="896" type="curve" smooth="yes"/>
      <point x="1" y="104" type="line" smooth="yes"/>
      <point x="-7" y="47"/>
      <point x="41" y="0"/>
      <point x="108" y="0" type="curve" smooth="yes"/>
    </contour>
    <contour>
      <point x="524" y="1350" type="curve" smooth="yes"/>
      <point x="375" y="1199" type="line" smooth="yes"/>
      <point x="351" y="1176"/>
      <point x="348" y="1139"/>
      <point x="368" y="1111" type="curve" smooth="yes"/>
      <point x="387" y="1084"/>
      <point x="422" y="1075"/>
      <point x="451" y="1090" type="curve" smooth="yes"/>
      <point x="635" y="1190" type="line" smooth="yes"/>
      <point x="670" y="1208"/>
      <point x="689" y="1243"/>
      <point x="686" y="1283" type="curve" smooth="yes"/>
      <point x="684" y="1323"/>
      <point x="661" y="1356"/>
      <point x="625" y="1370" type="curve" smooth="yes"/>
      <point x="589" y="1385"/>
      <point x="551" y="1377"/>
    </contour>
  </outline>
</glyph>
<glyph name="Ecircumflex" format="1">
  <advance width="868"/>
  <unicode hex="00CA"/>
  <outline>
    <contour>
      <point x="517" y="0" type="line" smooth="yes"/>
      <point x="571" y="0"/>
      <point x="620" y="43"/>
      <point x="627" y="97" type="curve" smooth="yes"/>
      <point x="634" y="151"/>
      <point x="596" y="194"/>
      <point x="542" y="194" type="curve" smooth="yes"/>
      <point x="222" y="194" type="line"/>
      <point x="251" y="413" type="line"/>
      <point x="458" y="413" type="line" smooth="yes"/>
      <point x="512" y="413"/>
      <point x="562" y="456"/>
      <point x="569" y="510" type="curve" smooth="yes"/>
      <point x="576" y="564"/>
      <point x="537" y="607"/>
      <point x="483" y="607" type="curve" smooth="yes"/>
      <point x="276" y="607" type="line"/>
      <point x="302" y="806" type="line"/>
      <point x="621" y="806" type="line" smooth="yes"/>
      <point x="675" y="806"/>
      <point x="725" y="849"/>
      <point x="732" y="903" type="curve" smooth="yes"/>
      <point x="739" y="957"/>
      <point x="701" y="1000"/>
      <point x="647" y="1000" type="curve" smooth="yes"/>
      <point x="238" y="1000" type="line" smooth="yes"/>
      <point x="171" y="1000"/>
      <point x="111" y="953"/>
      <point x="104" y="896" type="curve" smooth="yes"/>
      <point x="1" y="104" type="line" smooth="yes"/>
      <point x="-7" y="47"/>
      <point x="41" y="0"/>
      <point x="108" y="0" type="curve" smooth="yes"/>
    </contour>
    <contour>
      <point x="164" y="1239" type="line" smooth="yes"/>
      <point x="149" y="1222"/>
      <point x="140" y="1200"/>
      <point x="141" y="1175" type="curve" smooth="yes"/>
      <point x="143" y="1122"/>
      <point x="187" y="1078"/>
      <point x="240" y="1076" type="curve" smooth="yes"/>
      <point x="269" y="1075"/>
      <point x="294" y="1086"/>
      <point x="311" y="1105" type="curve" smooth="yes"/>
      <point x="366" y="1166" type="line"/>
      <point x="422" y="1105" type="line" smooth="yes"/>
      <point x="438" y="1086"/>
      <point x="463" y="1075"/>
      <point x="492" y="1076" type="curve" smooth="yes"/>
      <point x="545" y="1078"/>
      <point x="589" y="1122"/>
      <point x="591" y="1175" type="curve" smooth="yes"/>
      <point x="592" y="1200"/>
      <point x="583" y="1222"/>
      <point x="568" y="1239" type="curve" smooth="yes"/>
      <point x="461" y="1358" type="line" smooth="yes"/>
      <point x="439" y="1382"/>
      <point x="405" y="1398"/>
      <point x="366" y="1398" type="curve" smooth="yes"/>
      <point x="327" y="1398"/>
      <point x="293" y="1382"/>
      <point x="271" y="1358" type="curve" smooth="yes"/>
    </contour>
  </outline>
</glyph>
<glyph name="Edieresis" format="1">
  <advance width="887"/>
  <unicode hex="00CB"/>
  <outline>
    <contour>
      <point x="517" y="0" type="line" smooth="yes"/>
      <point x="571" y="0"/>
      <point x="620" y="43"/>
      <point x="627" y="97" type="curve" smooth="yes"/>
      <point x="634" y="151"/>
      <point x="596" y="194"/>
      <point x="542" y="194" type="curve" smooth="yes"/>
      <point x="222" y="194" type="line"/>
      <point x="251" y="413" type="line"/>
      <point x="458" y="413" type="line" smooth="yes"/>
      <point x="512" y="413"/>
      <point x="562" y="456"/>
      <point x="569" y="510" type="curve" smooth="yes"/>
      <point x="576" y="564"/>
      <point x="537" y="607"/>
      <point x="483" y="607" type="curve" smooth="yes"/>
      <point x="276" y="607" type="line"/>
      <point x="302" y="806" type="line"/>
      <point x="621" y="806" type="line" smooth="yes"/>
      <point x="675" y="806"/>
      <point x="725" y="849"/>
      <point x="732" y="903" type="curve" smooth="yes"/>
      <point x="739" y="957"/>
      <point x="701" y="1000"/>
      <point x="647" y="1000" type="curve" smooth="yes"/>
      <point x="238" y="1000" type="line" smooth="yes"/>
      <point x="171" y="1000"/>
      <point x="111" y="953"/>
      <point x="104" y="896" type="curve" smooth="yes"/>
      <point x="1" y="104" type="line" smooth="yes"/>
      <point x="-7" y="47"/>
      <point x="41" y="0"/>
      <point x="108" y="0" type="curve" smooth="yes"/>
    </contour>
    <contour>
      <point x="367" y="1179" type="line"/>
      <point x="374" y="1229"/>
      <point x="332" y="1269"/>
      <point x="274" y="1269" type="curve" smooth="yes"/>
      <point x="216" y="1269"/>
      <point x="164" y="1229"/>
      <point x="157" y="1179" type="curve"/>
      <point x="156" y="1166" type="line"/>
      <point x="149" y="1116"/>
      <point x="191" y="1075"/>
      <point x="249" y="1075" type="curve" smooth="yes"/>
      <point x="307" y="1075"/>
      <point x="359" y="1116"/>
      <point x="366" y="1166" type="curve"/>
    </contour>
    <contour>
      <point x="751" y="1179" type="line" smooth="yes"/>
      <point x="757" y="1229"/>
      <point x="715" y="1269"/>
      <point x="657" y="1269" type="curve" smooth="yes"/>
      <point x="599" y="1269"/>
      <point x="547" y="1229"/>
      <point x="541" y="1179" type="curve" smooth="yes"/>
      <point x="539" y="1166" type="line" smooth="yes"/>
      <point x="532" y="1116"/>
      <point x="574" y="1075"/>
      <point x="632" y="1075" type="curve" smooth="yes"/>
      <point x="690" y="1075"/>
      <point x="742" y="1116"/>
      <point x="749" y="1166" type="curve" smooth="yes"/>
    </contour>
  </outline>
</glyph>
<glyph name="Igrave" format="1">
  <advance width="455"/>
  <unicode hex="00CC"/>
  <outline>
    <contour>
      <point x="319" y="915" type="line" smooth="yes"/>
      <point x="325" y="965"/>
      <point x="283" y="1006"/>
      <point x="225" y="1006" type="curve" smooth="yes"/>
      <point x="167" y="1006"/>
      <point x="115" y="965"/>
      <point x="109" y="915" type="curve" smooth="yes"/>
      <point x="1" y="85" type="line" smooth="yes"/>
      <point x="-6" y="35"/>
      <point x="36" y="-6"/>
      <point x="94" y="-6" type="curve" smooth="yes"/>
      <point x="152" y="-6"/>
      <point x="204" y="35"/>
      <point x="211" y="85" type="curve" smooth="yes"/>
    </contour>
    <contour>
      <point x="112" y="1350" type="line" smooth="yes"/>
      <point x="88" y="1377"/>
      <point x="51" y="1385"/>
      <point x="13" y="1370" type="curve" smooth="yes"/>
      <point x="-24" y="1356"/>
      <point x="-52" y="1323"/>
      <point x="-59" y="1283" type="curve" smooth="yes"/>
      <point x="-67" y="1243"/>
      <point x="-52" y="1208"/>
      <point x="-20" y="1190" type="curve" smooth="yes"/>
      <point x="152" y="1090" type="line" smooth="yes"/>
      <point x="179" y="1075"/>
      <point x="215" y="1084"/>
      <point x="237" y="1111" type="curve" smooth="yes"/>
      <point x="260" y="1139"/>
      <point x="262" y="1176"/>
      <point x="242" y="1199" type="curve" smooth="yes"/>
    </contour>
  </outline>
</glyph>
<glyph name="Iacute" format="1">
  <advance width="455"/>
  <unicode hex="00CD"/>
  <outline>
    <contour>
      <point x="319" y="915" type="line" smooth="yes"/>
      <point x="325" y="965"/>
      <point x="283" y="1006"/>
      <point x="225" y="1006" type="curve" smooth="yes"/>
      <point x="167" y="1006"/>
      <point x="115" y="965"/>
      <point x="109" y="915" type="curve" smooth="yes"/>
      <point x="1" y="85" type="line" smooth="yes"/>
      <point x="-6" y="35"/>
      <point x="36" y="-6"/>
      <point x="94" y="-6" type="curve" smooth="yes"/>
      <point x="152" y="-6"/>
      <point x="204" y="35"/>
      <point x="211" y="85" type="curve" smooth="yes"/>
    </contour>
    <contour>
      <point x="207" y="1350" type="curve" smooth="yes"/>
      <point x="77" y="1199" type="line" smooth="yes"/>
      <point x="57" y="1176"/>
      <point x="59" y="1139"/>
      <point x="82" y="1111" type="curve" smooth="yes"/>
      <point x="105" y="1084"/>
      <point x="141" y="1075"/>
      <point x="168" y="1090" type="curve" smooth="yes"/>
      <point x="340" y="1190" type="line" smooth="yes"/>
      <point x="371" y="1208"/>
      <point x="386" y="1243"/>
      <point x="378" y="1283" type="curve" smooth="yes"/>
      <point x="371" y="1323"/>
      <point x="344" y="1356"/>
      <point x="306" y="1370" type="curve" smooth="yes"/>
      <point x="268" y="1385"/>
      <point x="231" y="1377"/>
    </contour>
  </outline>
</glyph>
<glyph name="Icircumflex" format="1">
  <advance width="455"/>
  <unicode hex="00CE"/>
  <outline>
    <contour>
      <point x="319" y="915" type="line" smooth="yes"/>
      <point x="325" y="965"/>
      <point x="283" y="1006"/>
      <point x="225" y="1006" type="curve" smooth="yes"/>
      <point x="167" y="1006"/>
      <point x="115" y="965"/>
      <point x="109" y="915" type="curve" smooth="yes"/>
      <point x="1" y="85" type="line" smooth="yes"/>
      <point x="-6" y="35"/>
      <point x="36" y="-6"/>
      <point x="94" y="-6" type="curve" smooth="yes"/>
      <point x="152" y="-6"/>
      <point x="204" y="35"/>
      <point x="211" y="85" type="curve" smooth="yes"/>
    </contour>
    <contour>
      <point x="-43" y="1239" type="line" smooth="yes"/>
      <point x="-58" y="1222"/>
      <point x="-66" y="1200"/>
      <point x="-65" y="1175" type="curve" smooth="yes"/>
      <point x="-63" y="1122"/>
      <point x="-19" y="1078"/>
      <point x="34" y="1076" type="curve" smooth="yes"/>
      <point x="62" y="1075"/>
      <point x="87" y="1086"/>
      <point x="104" y="1105" type="curve" smooth="yes"/>
      <point x="160" y="1166" type="line"/>
      <point x="215" y="1105" type="line" smooth="yes"/>
      <point x="232" y="1086"/>
      <point x="257" y="1075"/>
      <point x="285" y="1076" type="curve" smooth="yes"/>
      <point x="338" y="1078"/>
      <point x="383" y="1122"/>
      <point x="385" y="1175" type="curve" smooth="yes"/>
      <point x="386" y="1200"/>
      <point x="377" y="1222"/>
      <point x="362" y="1239" type="curve" smooth="yes"/>
      <point x="255" y="1358" type="line" smooth="yes"/>
      <point x="233" y="1382"/>
      <point x="198" y="1398"/>
      <point x="160" y="1398" type="curve" smooth="yes"/>
      <point x="121" y="1398"/>
      <point x="86" y="1382"/>
      <point x="64" y="1358" type="curve" smooth="yes"/>
    </contour>
  </outline>
</glyph>
